<?xml version="1.0" standalone="no"?>
<!DOCTYPE svg PUBLIC "-//W3C//DTD SVG 1.1//EN" "http://www.w3.org/Graphics/SVG/1.1/DTD/svg11.dtd" >
<svg>
<metadata>
Created by FontForge 20090914 at Fri Aug 12 10:49:59 2016
 By www-data
</metadata>
<defs>
<font id="Futura-Black-Bold" horiz-adv-x="0" >
  <font-face 
    font-family="Futura-Black"
    font-weight="700"
    font-stretch="normal"
    units-per-em="2048"
    panose-1="2 2 5 0 0 0 0 0 0 0"
    ascent="1638"
    descent="-410"
    x-height="1034"
    cap-height="1464"
    bbox="-1126 -485 2675 2179"
    underline-thickness="379"
    underline-position="-98"
    unicode-range="U+0020-U+F02A"
  />
<missing-glyph horiz-adv-x="1536" 
d="M256 0v1280h1024v-1280h-1024zM1247 33v1214h-958v-1214h958z" />
    <glyph glyph-name=".notdef" horiz-adv-x="1536" 
d="M256 0v1280h1024v-1280h-1024zM1247 33v1214h-958v-1214h958z" />
    <glyph glyph-name="space" unicode=" " horiz-adv-x="702" 
 />
    <glyph glyph-name="space" unicode="&#x2031;" horiz-adv-x="702" 
 />
    <glyph glyph-name="space" unicode="&#x2025;" horiz-adv-x="702" 
 />
    <glyph glyph-name="space" unicode="&#x2024;" horiz-adv-x="702" 
 />
    <glyph glyph-name="space" unicode="&#x2023;" horiz-adv-x="702" 
 />
    <glyph glyph-name="space" unicode="&#x201f;" horiz-adv-x="702" 
 />
    <glyph glyph-name="space" unicode="&#x201b;" horiz-adv-x="702" 
 />
    <glyph glyph-name="space" unicode="&#x2017;" horiz-adv-x="702" 
 />
    <glyph glyph-name="space" unicode="&#x2016;" horiz-adv-x="702" 
 />
    <glyph glyph-name="space" unicode="&#x2015;" horiz-adv-x="702" 
 />
    <glyph glyph-name="exclam" unicode="!" horiz-adv-x="768" 
d="M135 553v965h496v-965h-496zM100 201c0 66.667 27.332 123.167 81.999 169.5s121.667 69.5 201 69.5c80.667 0 148.334 -23.167 203.001 -69.5s82 -102.833 82 -169.5s-27.5 -123.334 -82.5 -170.001s-122.5 -70 -202.5 -70c-78.667 0 -145.667 23.333 -201 70
c-54.667 46.667 -82 103.334 -82 170.001z" />
    <glyph glyph-name="quotedbl" unicode="&#x22;" horiz-adv-x="758" 
d="M690 1440v-563h-260v563h260zM326 1440v-563h-258v563h258z" />
    <glyph glyph-name="numbersign" unicode="#" horiz-adv-x="1575" 
d="M946 834h-239l-78 -213h239zM938 1470l-129 -366h227l129 366h289l-129 -366h256l-100 -270h-252l-76 -213h258l-100 -271h-254l-131 -366h-289l131 366h-227l-131 -366h-289l131 366h-258l100 271h254l74 213h-258l98 270h258l129 366h289z" />
    <glyph glyph-name="dollar" unicode="$" horiz-adv-x="1403" 
d="M47 168l162.001 385c74.667 -58 151.5 -102.5 230.5 -133.5s156.5 -46.5 232.5 -46.5c47.333 0 84 8 110 24c27.333 17.333 41 40 41 68c0 21.333 -11.833 39 -35.5 53s-78.5 29 -164.5 45l-148 31c-114.667 22 -204 71 -268 147c-65.333 73.333 -98 164.333 -98 273
c0 120.667 43 223 129 307c86 82 201.333 131 346 147v152h237v-147c73.333 -2.66699 147.666 -13.667 222.999 -33c72.667 -21.333 141.667 -50 207 -86l-157 -367c-67.333 42.667 -129 74 -185 94c-54 20.667 -107 31 -159 31c-50 0 -87.667 -9 -113 -27
c-28.667 -16 -43 -38.333 -43 -67c0 -39.333 64 -70 192 -92c3.33301 -0.666992 6.33301 -1.16699 9 -1.5s5.33398 -1.16602 8.00098 -2.49902l137 -27c119.333 -23.333 211.666 -67 276.999 -131c65.333 -68.667 98 -151.334 98 -248.001
c0 -144.667 -42.333 -261.334 -127 -350.001c-88 -90 -215 -146 -381 -168v-164h-238v164c-98.667 2 -189.334 17 -272.001 45c-87.333 28.667 -170.666 70.334 -249.999 125.001z" />
    <glyph glyph-name="percent" unicode="%" horiz-adv-x="1851" 
d="M428 879c29.333 0 49.665 15.001 60.998 45.001c12.667 29.333 19 79.666 19 150.999c0 72.667 -6.33301 124 -19 154c-11.333 30 -31.666 45 -60.999 45s-49.666 -15 -60.999 -45c-14 -28.667 -21 -80 -21 -154c0 -71.333 7 -121 21 -149c12 -31.333 32.333 -47 61 -47z
M802.999 1075c0 -122.667 -34.332 -220.333 -102.999 -293c-67.333 -73.333 -158.666 -110 -273.999 -110c-114.667 0 -206 36 -274 108c-68.667 74.667 -103 173 -103 295s34.333 220.333 103 295c67.333 72.667 158.666 109 273.999 109s206.666 -36.333 273.999 -109
c68.667 -74.667 103 -173 103 -295zM1444 168.002c29.333 0 49.667 14.999 61 44.999c12.667 30 19 81.333 19 154c0 70.667 -6.33301 121 -19 151c-11.333 30 -31.666 45 -60.999 45c-28.667 0 -49.334 -15 -62.001 -45c-13.333 -29.333 -20 -79.666 -20 -150.999
c0 -72 6.66699 -122.667 20 -152c13.333 -31.333 34 -47 62 -47zM1819 367.001c0 -124.667 -34.333 -223 -103 -295c-66.667 -74 -157.334 -111 -272.001 -111c-115.333 0 -207 37 -275 111c-68 72 -102 170.333 -102 295c0 123.333 34 221.666 102 294.999
c68.667 72 160.334 108 275.001 108s206 -36 274 -108c67.333 -71.333 101 -169.666 101 -294.999zM408.001 -38.999l845 1518h211l-850 -1518h-206z" />
    <glyph glyph-name="percent" unicode="&#x202f;" horiz-adv-x="1851" 
d="M428 879c29.333 0 49.665 15.001 60.998 45.001c12.667 29.333 19 79.666 19 150.999c0 72.667 -6.33301 124 -19 154c-11.333 30 -31.666 45 -60.999 45s-49.666 -15 -60.999 -45c-14 -28.667 -21 -80 -21 -154c0 -71.333 7 -121 21 -149c12 -31.333 32.333 -47 61 -47z
M802.999 1075c0 -122.667 -34.332 -220.333 -102.999 -293c-67.333 -73.333 -158.666 -110 -273.999 -110c-114.667 0 -206 36 -274 108c-68.667 74.667 -103 173 -103 295s34.333 220.333 103 295c67.333 72.667 158.666 109 273.999 109s206.666 -36.333 273.999 -109
c68.667 -74.667 103 -173 103 -295zM1444 168.002c29.333 0 49.667 14.999 61 44.999c12.667 30 19 81.333 19 154c0 70.667 -6.33301 121 -19 151c-11.333 30 -31.666 45 -60.999 45c-28.667 0 -49.334 -15 -62.001 -45c-13.333 -29.333 -20 -79.666 -20 -150.999
c0 -72 6.66699 -122.667 20 -152c13.333 -31.333 34 -47 62 -47zM1819 367.001c0 -124.667 -34.333 -223 -103 -295c-66.667 -74 -157.334 -111 -272.001 -111c-115.333 0 -207 37 -275 111c-68 72 -102 170.333 -102 295c0 123.333 34 221.666 102 294.999
c68.667 72 160.334 108 275.001 108s206 -36 274 -108c67.333 -71.333 101 -169.666 101 -294.999zM408.001 -38.999l845 1518h211l-850 -1518h-206z" />
    <glyph glyph-name="percent" unicode="&#x202e;" horiz-adv-x="1851" 
d="M428 879c29.333 0 49.665 15.001 60.998 45.001c12.667 29.333 19 79.666 19 150.999c0 72.667 -6.33301 124 -19 154c-11.333 30 -31.666 45 -60.999 45s-49.666 -15 -60.999 -45c-14 -28.667 -21 -80 -21 -154c0 -71.333 7 -121 21 -149c12 -31.333 32.333 -47 61 -47z
M802.999 1075c0 -122.667 -34.332 -220.333 -102.999 -293c-67.333 -73.333 -158.666 -110 -273.999 -110c-114.667 0 -206 36 -274 108c-68.667 74.667 -103 173 -103 295s34.333 220.333 103 295c67.333 72.667 158.666 109 273.999 109s206.666 -36.333 273.999 -109
c68.667 -74.667 103 -173 103 -295zM1444 168.002c29.333 0 49.667 14.999 61 44.999c12.667 30 19 81.333 19 154c0 70.667 -6.33301 121 -19 151c-11.333 30 -31.666 45 -60.999 45c-28.667 0 -49.334 -15 -62.001 -45c-13.333 -29.333 -20 -79.666 -20 -150.999
c0 -72 6.66699 -122.667 20 -152c13.333 -31.333 34 -47 62 -47zM1819 367.001c0 -124.667 -34.333 -223 -103 -295c-66.667 -74 -157.334 -111 -272.001 -111c-115.333 0 -207 37 -275 111c-68 72 -102 170.333 -102 295c0 123.333 34 221.666 102 294.999
c68.667 72 160.334 108 275.001 108s206 -36 274 -108c67.333 -71.333 101 -169.666 101 -294.999zM408.001 -38.999l845 1518h211l-850 -1518h-206z" />
    <glyph glyph-name="percent" unicode="&#x202d;" horiz-adv-x="1851" 
d="M428 879c29.333 0 49.665 15.001 60.998 45.001c12.667 29.333 19 79.666 19 150.999c0 72.667 -6.33301 124 -19 154c-11.333 30 -31.666 45 -60.999 45s-49.666 -15 -60.999 -45c-14 -28.667 -21 -80 -21 -154c0 -71.333 7 -121 21 -149c12 -31.333 32.333 -47 61 -47z
M802.999 1075c0 -122.667 -34.332 -220.333 -102.999 -293c-67.333 -73.333 -158.666 -110 -273.999 -110c-114.667 0 -206 36 -274 108c-68.667 74.667 -103 173 -103 295s34.333 220.333 103 295c67.333 72.667 158.666 109 273.999 109s206.666 -36.333 273.999 -109
c68.667 -74.667 103 -173 103 -295zM1444 168.002c29.333 0 49.667 14.999 61 44.999c12.667 30 19 81.333 19 154c0 70.667 -6.33301 121 -19 151c-11.333 30 -31.666 45 -60.999 45c-28.667 0 -49.334 -15 -62.001 -45c-13.333 -29.333 -20 -79.666 -20 -150.999
c0 -72 6.66699 -122.667 20 -152c13.333 -31.333 34 -47 62 -47zM1819 367.001c0 -124.667 -34.333 -223 -103 -295c-66.667 -74 -157.334 -111 -272.001 -111c-115.333 0 -207 37 -275 111c-68 72 -102 170.333 -102 295c0 123.333 34 221.666 102 294.999
c68.667 72 160.334 108 275.001 108s206 -36 274 -108c67.333 -71.333 101 -169.666 101 -294.999zM408.001 -38.999l845 1518h211l-850 -1518h-206z" />
    <glyph glyph-name="percent" unicode="&#x202c;" horiz-adv-x="1851" 
d="M428 879c29.333 0 49.665 15.001 60.998 45.001c12.667 29.333 19 79.666 19 150.999c0 72.667 -6.33301 124 -19 154c-11.333 30 -31.666 45 -60.999 45s-49.666 -15 -60.999 -45c-14 -28.667 -21 -80 -21 -154c0 -71.333 7 -121 21 -149c12 -31.333 32.333 -47 61 -47z
M802.999 1075c0 -122.667 -34.332 -220.333 -102.999 -293c-67.333 -73.333 -158.666 -110 -273.999 -110c-114.667 0 -206 36 -274 108c-68.667 74.667 -103 173 -103 295s34.333 220.333 103 295c67.333 72.667 158.666 109 273.999 109s206.666 -36.333 273.999 -109
c68.667 -74.667 103 -173 103 -295zM1444 168.002c29.333 0 49.667 14.999 61 44.999c12.667 30 19 81.333 19 154c0 70.667 -6.33301 121 -19 151c-11.333 30 -31.666 45 -60.999 45c-28.667 0 -49.334 -15 -62.001 -45c-13.333 -29.333 -20 -79.666 -20 -150.999
c0 -72 6.66699 -122.667 20 -152c13.333 -31.333 34 -47 62 -47zM1819 367.001c0 -124.667 -34.333 -223 -103 -295c-66.667 -74 -157.334 -111 -272.001 -111c-115.333 0 -207 37 -275 111c-68 72 -102 170.333 -102 295c0 123.333 34 221.666 102 294.999
c68.667 72 160.334 108 275.001 108s206 -36 274 -108c67.333 -71.333 101 -169.666 101 -294.999zM408.001 -38.999l845 1518h211l-850 -1518h-206z" />
    <glyph glyph-name="percent" unicode="&#x202b;" horiz-adv-x="1851" 
d="M428 879c29.333 0 49.665 15.001 60.998 45.001c12.667 29.333 19 79.666 19 150.999c0 72.667 -6.33301 124 -19 154c-11.333 30 -31.666 45 -60.999 45s-49.666 -15 -60.999 -45c-14 -28.667 -21 -80 -21 -154c0 -71.333 7 -121 21 -149c12 -31.333 32.333 -47 61 -47z
M802.999 1075c0 -122.667 -34.332 -220.333 -102.999 -293c-67.333 -73.333 -158.666 -110 -273.999 -110c-114.667 0 -206 36 -274 108c-68.667 74.667 -103 173 -103 295s34.333 220.333 103 295c67.333 72.667 158.666 109 273.999 109s206.666 -36.333 273.999 -109
c68.667 -74.667 103 -173 103 -295zM1444 168.002c29.333 0 49.667 14.999 61 44.999c12.667 30 19 81.333 19 154c0 70.667 -6.33301 121 -19 151c-11.333 30 -31.666 45 -60.999 45c-28.667 0 -49.334 -15 -62.001 -45c-13.333 -29.333 -20 -79.666 -20 -150.999
c0 -72 6.66699 -122.667 20 -152c13.333 -31.333 34 -47 62 -47zM1819 367.001c0 -124.667 -34.333 -223 -103 -295c-66.667 -74 -157.334 -111 -272.001 -111c-115.333 0 -207 37 -275 111c-68 72 -102 170.333 -102 295c0 123.333 34 221.666 102 294.999
c68.667 72 160.334 108 275.001 108s206 -36 274 -108c67.333 -71.333 101 -169.666 101 -294.999zM408.001 -38.999l845 1518h211l-850 -1518h-206z" />
    <glyph glyph-name="percent" unicode="&#x202a;" horiz-adv-x="1851" 
d="M428 879c29.333 0 49.665 15.001 60.998 45.001c12.667 29.333 19 79.666 19 150.999c0 72.667 -6.33301 124 -19 154c-11.333 30 -31.666 45 -60.999 45s-49.666 -15 -60.999 -45c-14 -28.667 -21 -80 -21 -154c0 -71.333 7 -121 21 -149c12 -31.333 32.333 -47 61 -47z
M802.999 1075c0 -122.667 -34.332 -220.333 -102.999 -293c-67.333 -73.333 -158.666 -110 -273.999 -110c-114.667 0 -206 36 -274 108c-68.667 74.667 -103 173 -103 295s34.333 220.333 103 295c67.333 72.667 158.666 109 273.999 109s206.666 -36.333 273.999 -109
c68.667 -74.667 103 -173 103 -295zM1444 168.002c29.333 0 49.667 14.999 61 44.999c12.667 30 19 81.333 19 154c0 70.667 -6.33301 121 -19 151c-11.333 30 -31.666 45 -60.999 45c-28.667 0 -49.334 -15 -62.001 -45c-13.333 -29.333 -20 -79.666 -20 -150.999
c0 -72 6.66699 -122.667 20 -152c13.333 -31.333 34 -47 62 -47zM1819 367.001c0 -124.667 -34.333 -223 -103 -295c-66.667 -74 -157.334 -111 -272.001 -111c-115.333 0 -207 37 -275 111c-68 72 -102 170.333 -102 295c0 123.333 34 221.666 102 294.999
c68.667 72 160.334 108 275.001 108s206 -36 274 -108c67.333 -71.333 101 -169.666 101 -294.999zM408.001 -38.999l845 1518h211l-850 -1518h-206z" />
    <glyph glyph-name="percent" unicode="&#x2029;" horiz-adv-x="1851" 
d="M428 879c29.333 0 49.665 15.001 60.998 45.001c12.667 29.333 19 79.666 19 150.999c0 72.667 -6.33301 124 -19 154c-11.333 30 -31.666 45 -60.999 45s-49.666 -15 -60.999 -45c-14 -28.667 -21 -80 -21 -154c0 -71.333 7 -121 21 -149c12 -31.333 32.333 -47 61 -47z
M802.999 1075c0 -122.667 -34.332 -220.333 -102.999 -293c-67.333 -73.333 -158.666 -110 -273.999 -110c-114.667 0 -206 36 -274 108c-68.667 74.667 -103 173 -103 295s34.333 220.333 103 295c67.333 72.667 158.666 109 273.999 109s206.666 -36.333 273.999 -109
c68.667 -74.667 103 -173 103 -295zM1444 168.002c29.333 0 49.667 14.999 61 44.999c12.667 30 19 81.333 19 154c0 70.667 -6.33301 121 -19 151c-11.333 30 -31.666 45 -60.999 45c-28.667 0 -49.334 -15 -62.001 -45c-13.333 -29.333 -20 -79.666 -20 -150.999
c0 -72 6.66699 -122.667 20 -152c13.333 -31.333 34 -47 62 -47zM1819 367.001c0 -124.667 -34.333 -223 -103 -295c-66.667 -74 -157.334 -111 -272.001 -111c-115.333 0 -207 37 -275 111c-68 72 -102 170.333 -102 295c0 123.333 34 221.666 102 294.999
c68.667 72 160.334 108 275.001 108s206 -36 274 -108c67.333 -71.333 101 -169.666 101 -294.999zM408.001 -38.999l845 1518h211l-850 -1518h-206z" />
    <glyph glyph-name="percent" unicode="&#x2028;" horiz-adv-x="1851" 
d="M428 879c29.333 0 49.665 15.001 60.998 45.001c12.667 29.333 19 79.666 19 150.999c0 72.667 -6.33301 124 -19 154c-11.333 30 -31.666 45 -60.999 45s-49.666 -15 -60.999 -45c-14 -28.667 -21 -80 -21 -154c0 -71.333 7 -121 21 -149c12 -31.333 32.333 -47 61 -47z
M802.999 1075c0 -122.667 -34.332 -220.333 -102.999 -293c-67.333 -73.333 -158.666 -110 -273.999 -110c-114.667 0 -206 36 -274 108c-68.667 74.667 -103 173 -103 295s34.333 220.333 103 295c67.333 72.667 158.666 109 273.999 109s206.666 -36.333 273.999 -109
c68.667 -74.667 103 -173 103 -295zM1444 168.002c29.333 0 49.667 14.999 61 44.999c12.667 30 19 81.333 19 154c0 70.667 -6.33301 121 -19 151c-11.333 30 -31.666 45 -60.999 45c-28.667 0 -49.334 -15 -62.001 -45c-13.333 -29.333 -20 -79.666 -20 -150.999
c0 -72 6.66699 -122.667 20 -152c13.333 -31.333 34 -47 62 -47zM1819 367.001c0 -124.667 -34.333 -223 -103 -295c-66.667 -74 -157.334 -111 -272.001 -111c-115.333 0 -207 37 -275 111c-68 72 -102 170.333 -102 295c0 123.333 34 221.666 102 294.999
c68.667 72 160.334 108 275.001 108s206 -36 274 -108c67.333 -71.333 101 -169.666 101 -294.999zM408.001 -38.999l845 1518h211l-850 -1518h-206z" />
    <glyph glyph-name="percent" unicode="&#x2027;" horiz-adv-x="1851" 
d="M428 879c29.333 0 49.665 15.001 60.998 45.001c12.667 29.333 19 79.666 19 150.999c0 72.667 -6.33301 124 -19 154c-11.333 30 -31.666 45 -60.999 45s-49.666 -15 -60.999 -45c-14 -28.667 -21 -80 -21 -154c0 -71.333 7 -121 21 -149c12 -31.333 32.333 -47 61 -47z
M802.999 1075c0 -122.667 -34.332 -220.333 -102.999 -293c-67.333 -73.333 -158.666 -110 -273.999 -110c-114.667 0 -206 36 -274 108c-68.667 74.667 -103 173 -103 295s34.333 220.333 103 295c67.333 72.667 158.666 109 273.999 109s206.666 -36.333 273.999 -109
c68.667 -74.667 103 -173 103 -295zM1444 168.002c29.333 0 49.667 14.999 61 44.999c12.667 30 19 81.333 19 154c0 70.667 -6.33301 121 -19 151c-11.333 30 -31.666 45 -60.999 45c-28.667 0 -49.334 -15 -62.001 -45c-13.333 -29.333 -20 -79.666 -20 -150.999
c0 -72 6.66699 -122.667 20 -152c13.333 -31.333 34 -47 62 -47zM1819 367.001c0 -124.667 -34.333 -223 -103 -295c-66.667 -74 -157.334 -111 -272.001 -111c-115.333 0 -207 37 -275 111c-68 72 -102 170.333 -102 295c0 123.333 34 221.666 102 294.999
c68.667 72 160.334 108 275.001 108s206 -36 274 -108c67.333 -71.333 101 -169.666 101 -294.999zM408.001 -38.999l845 1518h211l-850 -1518h-206z" />
    <glyph glyph-name="ampersand" unicode="&#x26;" horiz-adv-x="1712" 
d="M805 397l-172.001 178c-29.333 -17.333 -50 -35 -62 -53c-12 -16 -18 -33.667 -18 -53c0 -30 12.333 -55.333 37 -76c22.667 -20.667 53.334 -31 92.001 -31c22.667 0 44.667 3 66 9c22.667 7.33301 41.667 16 57 26zM794.999 983c27.333 15.333 48.333 33.667 63 55
c15.333 20.667 23 42 23 64c0 24 -7.66699 43.667 -23 59c-14 16.667 -33 25 -57 25s-44 -9 -60 -27s-24 -39.667 -24 -65c0 -22 6.66699 -42 20 -60c16 -22 35.333 -39 58 -51zM1081 123.001c-70.667 -48.667 -146.333 -85.666 -227 -110.999
c-82 -24.667 -166.667 -37 -254 -37c-164 0 -295.667 41.667 -395 125c-51.333 42 -89.833 90 -115.5 144s-38.5 113.333 -38.5 178c0 101.333 30.667 187.333 92 258c61.333 69.333 146 113 254 131c-54 47.333 -91.333 92.333 -112 135
c-24.667 42.667 -37 91.334 -37 146.001c0 121.333 49 218.666 147 291.999c98 75.333 227.667 113 389 113c153.333 0 278.333 -38.333 375 -115c96 -74.667 144 -171.334 144 -290.001c0 -84.667 -22 -155 -66 -211c-46.667 -57.333 -113 -99 -199 -125l140 -129
c42.667 32.667 80 66 112 100c36 38 70.333 78.333 103 121l288 -297c-30.667 -36.667 -66 -70.667 -106 -102c-42.667 -34 -85.667 -62 -129 -84l358 -365h-610z" />
    <glyph glyph-name="quotesingle" unicode="'" horiz-adv-x="393" 
d="M326 1440v-563h-258v563h258z" />
    <glyph glyph-name="parenleft" unicode="(" horiz-adv-x="891" 
d="M436 -451c-50.667 82.667 -95.332 164.998 -133.999 246.998s-71 165.667 -97 251c-49.333 163.333 -74 331.333 -74 504c0 170 28 342.667 84 518c27.333 86 62.166 173.5 104.499 262.5s92.833 181.167 151.5 276.5l373 -205
c-84 -141.333 -147.667 -282.666 -191 -423.999c-40.667 -140 -61 -285.333 -61 -436c0 -126.667 19 -253.667 57 -381c38.667 -129.333 98 -270.666 178 -423.999z" />
    <glyph glyph-name="parenright" unicode=")" horiz-adv-x="891" 
d="M455 -451l-391.998 189.005c80 151.333 139.667 292.666 179 423.999c38 127.333 57 254.333 57 381c0 150.667 -20.333 296 -61 436c-43.333 141.333 -107 282.666 -191 423.999l373 205c36.667 -58.667 71.167 -118.334 103.5 -179.001s62 -122.334 89 -185.001
s48.833 -121 65.5 -175c54.667 -170.667 82 -343.334 82 -518.001c0 -88.667 -6.33301 -175.167 -19 -259.5s-31 -165.833 -55 -244.5c-12.667 -41.333 -27.334 -83.666 -44.001 -126.999s-34.334 -84.833 -53.001 -124.5s-37.667 -77.334 -57 -113.001
s-45 -80.167 -77 -133.5z" />
    <glyph glyph-name="asterisk" unicode="*" horiz-adv-x="1067" 
d="M608 1214l197 156l117 -196l-238 -93l238 -90l-117 -198l-197 159l39 -254h-231l39 254l-197 -159l-115 198l240 90l-240 93l115 196l197 -156l-39 250h231z" />
    <glyph glyph-name="plus" unicode="+" horiz-adv-x="1706" 
d="M993 1221v-473h459v-273h-459v-475h-280v475h-459v273h459v473h280z" />
    <glyph glyph-name="comma" unicode="," horiz-adv-x="702" 
d="M-18 -350l237 725h500l-344 -725h-393z" />
    <glyph glyph-name="hyphen" unicode="-" horiz-adv-x="983" 
d="M150 305v418h684v-418h-684z" />
    <glyph glyph-name="period" unicode="." horiz-adv-x="702" 
d="M66 209c0 65.333 27.998 122.667 83.998 172c54.667 46.667 121.334 70 200.001 70c80.667 0 148.334 -23.333 203.001 -70c54.667 -48.667 82 -106 82 -172c0 -65.333 -27.333 -121.333 -82 -168c-56 -48 -123.667 -72 -203 -72c-78 0 -145.667 24 -203 72
c-54 46 -81 102 -81 168z" />
    <glyph glyph-name="slash" unicode="/" horiz-adv-x="958" 
d="M0 -190l717 1687h241l-716 -1687h-242z" />
    <glyph glyph-name="zero" unicode="0" horiz-adv-x="1403" 
d="M584 721c0 -102.667 9.33203 -179.999 27.999 -231.999c18.667 -48.667 48.667 -73 90 -73c40.667 0 70.334 24.333 89.001 73c18.667 50 28 127.333 28 232c0 105.333 -9.33301 182.333 -28 231c-19.333 49.333 -49 74 -89 74c-40.667 0 -70.667 -24 -90 -72
c-18.667 -48.667 -28 -126.334 -28 -233.001zM71.999 721.001c0 234 56.666 419.666 169.999 556.999c55.333 66.667 121.5 116.834 198.5 150.501s164.167 50.5 261.5 50.5c196.667 0 350.334 -67 461.001 -201c112 -132 168 -317.667 168 -557s-56 -425 -168 -557
c-110 -135.333 -263.667 -203 -461 -203c-194.667 0 -348 68.333 -460 205c-113.333 135.333 -170 320.333 -170 555z" />
    <glyph glyph-name="one" unicode="1" horiz-adv-x="1403" 
d="M500 1006h-219v444h745v-1450h-526v1006z" />
    <glyph glyph-name="two" unicode="2" horiz-adv-x="1403" 
d="M33 0l653.003 777.997c31.333 40 53.166 71.333 65.499 94s18.5 46 18.5 70c0 28.667 -8.33301 51.334 -25 68.001c-14 16 -35.667 24 -65 24c-32 0 -56.667 -13.667 -74 -41c-14.667 -27.333 -22 -70.333 -22 -129h-488v17c0 184.667 52.667 331.334 158 440.001
c52.667 52.667 115.5 92.167 188.5 118.5s156.167 39.5 249.5 39.5c179.333 0 322.666 -49.333 429.999 -148c108 -95.333 162 -223.666 162 -384.999c0 -86 -19 -161.667 -57 -227c-38.667 -69.333 -102.334 -140.333 -191.001 -213l-123 -103h369v-403h-1249z" />
    <glyph glyph-name="three" unicode="3" horiz-adv-x="1403" 
d="M633 907l22 -0.00195312c46.667 0 81 9 103 27c22 16 33 40.667 33 74c0 25.333 -7.66699 45.666 -23 60.999c-14.667 16.667 -34.334 25 -59.001 25c-23.333 0 -42.666 -9 -57.999 -27c-13.333 -17.333 -20 -42.666 -20 -75.999h-484
c2.66699 159.333 53.334 281 152.001 365c96 82 236.667 123 422 123c166.667 0 299.667 -37.667 399 -113c100 -75.333 150 -174.333 150 -297c0 -75.333 -17 -136.666 -51 -183.999c-34.667 -48.667 -87.334 -85.667 -158.001 -111c85.333 -18 150.666 -57 195.999 -117
c45.333 -58 68 -133 68 -225c0 -143.333 -54.667 -258 -164 -344c-108.667 -84.667 -256 -127 -442 -127c-197.333 0 -352.5 49.167 -465.5 147.5s-169.5 233.5 -169.5 405.5v4h504c2 -49.333 12 -86 30 -110c18 -26 44.667 -39 80 -39c34.667 0 62.667 10.667 84 32
c20.667 22.667 31 51.334 31 86.001c0 41.333 -12.333 72.333 -37 93c-23.333 21.333 -58.666 32 -105.999 32h-23c-4 -1.33301 -8.66699 -2 -14 -2v297z" />
    <glyph glyph-name="four" unicode="4" horiz-adv-x="1403" 
d="M694 0v291h-626v383l550 790h578v-790h158v-383h-158v-291h-502zM524 674h208.999v198c0 46.667 0.666992 79 2 97c2.66699 30.667 5.33398 53 8.00098 67c-8.66699 -22 -20.667 -48 -36 -78c-10 -17.333 -31.333 -52 -64 -104z" />
    <glyph glyph-name="five" unicode="5" horiz-adv-x="1403" 
d="M152 578l138.998 871.999h907v-391h-577l-15 -88c44 5.33301 76.833 8.66602 98.5 9.99902s53.834 2 96.501 2c158 0 283.667 -43 377 -129c91.333 -83.333 137 -200 137 -350c0 -85.333 -14.5 -161.166 -43.5 -227.499s-73.833 -124.5 -134.5 -174.5
c-118 -95.333 -284 -143 -498 -143c-108.667 0 -207 11 -295 33c-95.333 22 -185.333 55.333 -270 100l65 408c112.667 -47.333 205.667 -80.333 279 -99c76.667 -18.667 143.334 -28 200.001 -28c36 0 67.333 2.33301 94 7s46.667 11 60 19
c32.667 18.667 49 47.334 49 86.001c0 44.667 -23.667 79.667 -71 105c-49.333 24.667 -118.333 37 -207 37c-44.667 0 -98 -3.66699 -160 -11c-74.667 -10 -151.667 -22.667 -231 -38z" />
    <glyph glyph-name="six" unicode="6" horiz-adv-x="1403" 
d="M709 408c36 0 65.333 12.666 88 37.999c22.667 28 34 62.333 34 103c0 42.667 -10.667 76.667 -32 102c-22 26 -52 39 -90 39c-37.333 0 -66.666 -13 -87.999 -39c-23.333 -26.667 -35 -60.667 -35 -102s11.667 -75.666 35 -102.999
c21.333 -25.333 50.666 -38 87.999 -38zM829 1032c8.66699 0 15.667 0.667969 21 2.00098h31c146 0 259.333 -40.333 340 -121c81.333 -78.667 122 -190.334 122 -335.001c0 -182 -59.333 -330.333 -178 -445c-115.333 -114.667 -266.666 -172 -453.999 -172
s-339 56 -455 168c-118.667 110.667 -178 252 -178 424c0 100.667 24 201 72 301c25.333 51.333 60.666 109 105.999 173s104 140 176 228l172 205h686z" />
    <glyph glyph-name="seven" unicode="7" horiz-adv-x="1403" 
d="M125 0l520 1001h-508v449h1313l-733 -1450h-592z" />
    <glyph glyph-name="eight" unicode="8" horiz-adv-x="1403" 
d="M702 324c34 0 60.668 12.667 80.001 38c20.667 24.667 31 57.667 31 99c0 42 -10.333 74.667 -31 98c-18 24.667 -44.667 37 -80 37c-34 0 -61 -12.333 -81 -37c-20.667 -23.333 -31 -56 -31 -98s11 -75 33 -99c19.333 -25.333 45.666 -38 78.999 -38zM700.001 899
c24 0 44.667 9.66602 62 28.999c14.667 18.667 22 43 22 73c0 30.667 -7.33301 55.334 -22 74.001c-17.333 19.333 -38 29 -62 29c-25.333 0 -45 -9.66699 -59 -29c-15.333 -20 -23 -44.667 -23 -74c0 -28.667 7.66699 -53 23 -73c14 -19.333 33.667 -29 59 -29z
M369.001 761.999c-76.667 21.333 -136.333 58.666 -179 111.999c-40.667 52.667 -61 115.667 -61 189c0 119.333 53.333 219 160 299c106 78 243.667 117 413 117c168.667 0 306 -39 412 -117c106.667 -80 160 -179.667 160 -299c0 -73.333 -20.667 -136.333 -62 -189
c-39.333 -52.667 -98 -90 -176 -112c92.667 -29.333 163.667 -73.666 213 -132.999c49.333 -60.667 74 -131.667 74 -213c0 -136.667 -56 -246.667 -168 -330c-112.667 -82 -263.667 -123 -453 -123c-190 0 -340.667 41.667 -452 125c-113.333 84 -170 193.333 -170 328
c0 83.333 25.333 154.333 76 213c50 60 121 104.333 213 133z" />
    <glyph glyph-name="nine" unicode="9" horiz-adv-x="1403" 
d="M707 1036c-37.333 0 -67.167 -13.167 -89.5 -39.5s-33.5 -60.166 -33.5 -101.499c0 -40 11.333 -73.333 34 -100c22 -26 51.667 -39 89 -39c38 0 68 13 90 39c21.333 23.333 32 56.666 32 99.999c0 41.333 -11.333 75.333 -34 102c-22 26 -51.333 39 -88 39zM585.999 416
l-21 0.000976562c-4 -1.33301 -15 -2 -33 -2c-142.667 0 -255.667 41 -339 123c-83.333 80.667 -125 192.334 -125 335.001c0 63.333 8 123 24 179c20 60.667 45.333 113.667 76 159c59.333 88 134.333 154.333 225 199c91.333 46.667 195.333 70 312 70
c184 0 335.333 -54.667 454 -164c118.667 -108.667 178 -249.334 178 -422.001c0 -99.333 -23.667 -198.333 -71 -297c-46.667 -98.667 -141 -232.334 -283 -401.001l-172 -205h-686z" />
    <glyph glyph-name="colon" unicode=":" horiz-adv-x="768" 
d="M100 795c0 64 27.332 120 81.999 168c54.667 46 121.667 69 201 69c80.667 0 148.334 -23 203.001 -69c54.667 -48 82 -104 82 -168c0 -66.667 -27.5 -123.334 -82.5 -170.001s-122.5 -70 -202.5 -70c-78.667 0 -145.667 23.333 -201 70
c-54.667 46.667 -82 103.334 -82 170.001zM99.999 209c0 66 27.333 123.332 82 171.999c55.333 46.667 122.333 70 201 70c80 0 147.667 -23.333 203 -70c54.667 -48.667 82 -106 82 -172c0 -65.333 -27.333 -121.333 -82 -168c-57.333 -48 -125 -72 -203 -72
c-78.667 0 -145.667 23.333 -201 70c-54.667 46.667 -82 103.334 -82 170.001z" />
    <glyph glyph-name="semicolon" unicode=";" horiz-adv-x="768" 
d="M199 795c0 67.333 27.1699 124.002 81.5029 170.002s121.166 69 200.499 69c80 0 147 -23 201 -69c56 -48 84 -104.667 84 -170c0 -66.667 -27.333 -123.334 -82 -170.001s-122.334 -70 -203.001 -70c-78.667 0 -145.334 23.167 -200.001 69.5s-82 103.166 -82 170.499z
M0.00292969 -349.998l238 725h499l-344 -725h-393z" />
    <glyph glyph-name="less" unicode="&#x3c;" horiz-adv-x="1706" 
d="M1442 938l-801 -328l801 -327v-299l-1178 487v281l1178 487v-301z" />
    <glyph glyph-name="equal" unicode="=" horiz-adv-x="1706" 
d="M1452 512v-272h-1198v272h1198zM1452 983v-272h-1198v272h1198z" />
    <glyph glyph-name="greater" unicode="&#x3e;" horiz-adv-x="1706" 
d="M1442 752v-281l-1178 -487v299l801 327l-801 328v301z" />
    <glyph glyph-name="question" unicode="?" horiz-adv-x="1247" 
d="M311 195c0 64 27.3311 118.333 81.998 163c56.667 45.333 124.334 68 203.001 68s146.334 -22.667 203.001 -68c54.667 -44.667 82 -99 82 -163c0 -64.667 -27.333 -119.334 -82 -164.001c-55.333 -46.667 -123 -70 -203 -70s-147.667 23.333 -203 70
c-54.667 44.667 -82 99.334 -82 164.001zM435.998 514l0.000976562 379c24.667 -6.66699 44.667 -10.667 60 -12c20.667 -4.66699 37.667 -7 51 -7c48.667 0 87.667 13 117 39c27.333 26 41 60.333 41 103c0 30 -7.66699 55.333 -23 76c-15.333 17.333 -37.333 26 -66 26
s-50.334 -9.33301 -65.001 -28c-16 -22 -25 -53 -27 -93h-504c10.667 160 69.667 286.833 177 380.5s246.333 140.5 417 140.5c173.333 0 314 -50 422 -150c108 -97.333 162 -225.666 162 -384.999c0 -144 -53.333 -260 -160 -348c-104 -90 -243 -135 -417 -135
c-17.333 0 -46 1.33301 -86 4c-17.333 1.33301 -50.333 4.66602 -99 9.99902z" />
    <glyph glyph-name="at" unicode="@" horiz-adv-x="2048" 
d="M1241 911l49 81.9971h242l-156 -626c-2.66699 -13.333 -4 -19.666 -4 -18.999v-12c0 -16.667 4 -29 12 -37c8.66699 -8 20.334 -12 35.001 -12c84.667 0 162 47 232 141c33.333 46.667 58.666 98.5 75.999 155.5s26 115.833 26 176.5c0 158 -58 285 -174 381
c-118 96.667 -272.333 145 -463 145c-92 0 -180.667 -11.667 -266 -35c-83.333 -24 -158.333 -59.333 -225 -106c-103.333 -72.667 -182.666 -162 -237.999 -268c-56 -110.667 -84 -227.667 -84 -351c0 -98 16.5 -185.5 49.5 -262.5s83.5 -145.833 151.5 -206.5
c132.667 -116 310.667 -174 534 -174c102 0 204.667 15.667 308 47c96 30.667 188.667 77.334 278 140.001l115 -160c-106.667 -80 -220.834 -140 -342.501 -180s-248.5 -60 -380.5 -60c-125.333 0 -243.333 18.667 -354 56c-108 32.667 -206.333 84.334 -295 155.001
c-99.333 78.667 -174 171.667 -224 279c-48.667 105.333 -73 225.333 -73 360c0 121.333 19 232.666 57 333.999c34.667 103.333 88.667 197.666 162 282.999c100 118 220.667 208.667 362 272c72 32.667 145.333 56.5 220 71.5s155 22.5 241 22.5c256 0 465 -69 627 -207
c159.333 -137.333 239 -314.666 239 -531.999c0 -113.333 -22.333 -217.666 -67 -312.999c-47.333 -97.333 -113 -178.666 -197 -243.999c-49.333 -38.667 -100.333 -66.667 -153 -84c-56.667 -19.333 -115 -29 -175 -29c-71.333 0 -126.333 12.333 -165 37
c-39.333 27.333 -62 66.333 -68 117c-38.667 -52.667 -81 -91.667 -127 -117c-50 -23.333 -104 -35 -162 -35c-114 0 -200 29.333 -258 88c-57.333 60.667 -86 148 -86 262c0 82.667 12 158.167 36 226.5s60 130.166 108 185.499c96 109.333 214.667 164 356 164
c47.333 0 91 -9.66699 131 -29c38.667 -18.667 68.667 -46 90 -82zM1126 493.997l48.001 194.001c-7.33301 45.333 -22 81 -44 107c-22 24 -52 36 -90 36c-64.667 0 -120.667 -38.667 -168 -116c-47.333 -78.667 -71 -170.334 -71 -275.001c0 -47.333 10 -84 30 -110
c21.333 -27.333 50.333 -41 87 -41c47.333 0 90.333 18.333 129 55c39.333 38 65.666 88 78.999 150z" />
    <glyph glyph-name="A" unicode="A" horiz-adv-x="1507" 
d="M641 532h219l-45 166c-22.667 86 -37.667 151 -45 195c-7.33301 39.333 -12 81.666 -14 126.999h-11c-2 -45.333 -6.66699 -87.666 -14 -126.999c-9.33301 -54 -24.333 -119 -45 -195zM-57 0l522 1464h586l512 -1464h-566l-47 184h-397l-45 -184h-565z" />
    <glyph glyph-name="B" unicode="B" horiz-adv-x="1434" 
d="M631 596v-234.001h88c52 0 93 10.333 123 31c27.333 22 41 50.667 41 86c0 38.667 -13.667 67.334 -41 86.001c-28.667 20.667 -69.667 31 -123 31h-88zM631 1116v-204.999h69c42.667 0 75.667 9 99 27c21.333 17.333 32 42.666 32 75.999c0 34 -10.667 59.333 -32 76
c-22 17.333 -55 26 -99 26h-69zM137 0l0.000976562 1464h701c77.333 0 144.833 -8.66699 202.5 -26s107.5 -43.333 149.5 -78c83.333 -71.333 125 -169.666 125 -294.999c0 -79.333 -20 -145.666 -60 -198.999c-38 -52.667 -94 -87.334 -168 -104.001
c100.667 -20.667 174.667 -59.667 222 -117c48.667 -56.667 73 -133.667 73 -231c0 -136 -46.333 -239.333 -139 -310c-92.667 -69.333 -228.334 -104 -407.001 -104h-699z" />
    <glyph glyph-name="C" unicode="C" horiz-adv-x="1309" 
d="M1214 883c-45.333 45.333 -94.3359 79.332 -147.003 101.999c-52 23.333 -104.667 35 -158 35c-86 0 -155 -26.667 -207 -80c-52.667 -52.667 -79 -123 -79 -211s25 -157.167 75 -207.5s117 -75.5 201 -75.5c50 0 102 11 156 33c56 25.333 112.667 59.666 170 102.999
l-17 -551c-61.333 -24.667 -118.666 -41.667 -171.999 -51c-55.333 -12.667 -112.666 -19 -171.999 -19c-71.333 0 -140.333 8.33301 -207 25c-64 14 -123.333 36.333 -178 67c-130 76.667 -227.667 171 -293 283c-66.667 114.667 -100 245.667 -100 393
c0 112.667 19 213.667 57 303c36 90.667 90.667 173.334 164 248.001c72.667 72.667 156.667 127.334 252 164.001s199 55 311 55c58 0 117 -6 177 -18c58.667 -13.333 114.334 -32 167.001 -56v-542z" />
    <glyph glyph-name="D" unicode="D" horiz-adv-x="1620" 
d="M659 446c120 3.33301 207 26.667 261 70c54 46 81 117.667 81 215c0 94.667 -25.667 165.667 -77 213c-53.333 46.667 -134 70 -242 70h-23v-568zM137 0.000976562l0.000976562 1464h426c67.333 0 128.166 -1.66699 182.499 -5s108.833 -9 163.5 -17
c94 -14.667 172 -38 234 -70c127.333 -67.333 225 -155.333 293 -264c66.667 -110.667 100 -236.334 100 -377.001c0 -141.333 -33.333 -266.333 -100 -375c-68 -108 -165.667 -196 -293 -264c-60 -32 -138.667 -55 -236 -69c-98 -15.333 -225.667 -23 -383 -23h-387z" />
    <glyph glyph-name="E" unicode="E" horiz-adv-x="1204" 
d="M137 0v1464h979v-397h-463v-141h420v-375h-420v-154h475v-397h-991z" />
    <glyph glyph-name="F" unicode="F" horiz-adv-x="1159" 
d="M137 0v1464h979v-397h-452v-170h409v-375h-409v-522h-527z" />
    <glyph glyph-name="G" unicode="G" horiz-adv-x="1708" 
d="M1069 524h-228.997v344h809c1.33301 -20 2.16602 -34 2.49902 -42s0.833008 -16.333 1.5 -25v-39c0 -84.667 -8.33301 -161.334 -25 -230.001c-13.333 -64.667 -36.333 -126 -69 -184c-74.667 -126 -171 -221.667 -289 -287c-116.667 -66.667 -250.667 -100 -402 -100
c-108 0 -211 18.333 -309 55c-91.333 36 -175.333 90.667 -252 164c-72 73.333 -127.333 155.333 -166 246c-36.667 91.333 -55 192.333 -55 303c0 112.667 19 213.667 57 303c36 90 90.667 172 164 246c69.333 69.333 153.333 124 252 164c95.333 36.667 198.333 55 309 55
c149.333 0 282.666 -32.667 399.999 -98c118.667 -67.333 214 -163.666 286 -288.999l-469 -174c-24.667 42 -54.667 72 -90 90c-33.333 20.667 -72.666 31 -117.999 31c-78 0 -140.333 -29.333 -187 -88c-46 -58.667 -69 -138.667 -69 -240c0 -105.333 23 -185.333 69 -240
c47.333 -57.333 113.666 -86 198.999 -86c49.333 0 91 10.333 125 31c31.333 24 49.666 54 54.999 90z" />
    <glyph glyph-name="H" unicode="H" horiz-adv-x="1651" 
d="M137 0v1464h527v-487h321v487h526v-1464h-526v516h-321v-516h-527z" />
    <glyph glyph-name="I" unicode="I" horiz-adv-x="829" 
d="M147 0v1464h535v-1464h-535z" />
    <glyph glyph-name="J" unicode="J" horiz-adv-x="1042" 
d="M401 655v809.001h527v-952c0 -80.667 -5.66699 -145.667 -17 -195c-10 -48 -27.667 -91.667 -53 -131c-46 -72.667 -106 -128 -180 -166c-78.667 -39.333 -162.667 -59 -252 -59c-90.667 0 -170.667 13 -240 39c-76 29.333 -144.667 69.666 -206 120.999l172 393
c26.667 -29.333 53.667 -53.333 81 -72c26 -14.667 49.333 -22 70 -22c38 0 64 14.333 78 43c13.333 27.333 20 91.333 20 192z" />
    <glyph glyph-name="K" unicode="K" horiz-adv-x="1565" 
d="M137 0v1464h516v-624l334 624h596l-442 -721l504 -743h-637l-355 612v-612h-516z" />
    <glyph glyph-name="L" unicode="L" horiz-adv-x="1200" 
d="M137 0v1464h527v-989h512v-475h-1039z" />
    <glyph glyph-name="M" unicode="M" horiz-adv-x="1999" 
d="M1475 0l-64.0029 580l-6 68l-6 67c-5.33301 56 -8.66602 100.333 -9.99902 133c-7.33301 -44 -15.666 -88.333 -24.999 -133c-8 -36.667 -21.667 -87.334 -41 -152.001l-168 -563h-313l-168 563c-17.333 53.333 -31 104 -41 152c-12.667 58.667 -21 103 -25 133
c-5.33301 -64 -8.66602 -109 -9.99902 -135l-12 -133l-64 -580h-516l250 1464h543l104 -362c1.33301 -6.66699 6.33301 -23.667 15 -51c44.667 -160 71.667 -285.667 81 -377h9c8 62.667 20 128.667 36 198c12.667 60.667 34 139.334 64 236.001l109 356h542l232 -1464h-516
z" />
    <glyph glyph-name="N" unicode="N" horiz-adv-x="1731" 
d="M137 0v1464h516l455 -766c-6 35.333 -10 73 -12 113c-2.66699 54.667 -4 108.667 -4 162v491h507v-1464h-520l-450 760c6 -32.667 10 -67.667 12 -105c2.66699 -52 4 -94.333 4 -127v-528h-508z" />
    <glyph glyph-name="O" unicode="O" horiz-adv-x="1735" 
d="M868 453c74 0 133.667 25 179 75c44.667 51.333 67 118.333 67 201c0 84.667 -22.333 152.334 -67 203.001c-46 50.667 -105.667 76 -179 76s-133.333 -25.333 -180 -76c-44.667 -50.667 -67 -118.334 -67 -203.001c0 -82.667 22.333 -149.667 67 -201
c46 -50 106 -75 180 -75zM1651 729c0 -108 -19.334 -207.663 -58.001 -298.996c-40 -94.667 -95.333 -177.334 -166 -248.001c-72 -70 -156.333 -124.667 -253 -164c-96.667 -38 -198.667 -57 -306 -57c-108.667 0 -211 19 -307 57c-93.333 38 -178 93.333 -254 166
c-73.333 74 -128.666 155.333 -165.999 244c-36.667 91.333 -55 191.666 -55 300.999s18.333 209.666 55 300.999c38.667 90.667 94 172.667 166 246c73.333 71.333 157.333 126.666 252 165.999c95.333 36.667 198.333 55 309 55c109.333 0 212 -18.333 308 -55
c95.333 -38.667 180 -94 254 -166c70.667 -72 125.667 -154 165 -246c37.333 -92.667 56 -193 56 -301z" />
    <glyph glyph-name="P" unicode="P" horiz-adv-x="1450" 
d="M137 0v1464h629c221.333 0 383 -43 485 -129c102.667 -84 154 -219 154 -405c0 -172 -45.667 -297.667 -137 -377c-92.667 -80.667 -239 -121 -439 -121h-165v-432h-527zM666 1057v-244h82c51.333 0 89.333 11 114 33c27.333 20 41 49.333 41 88
c0 36.667 -13.667 66.667 -41 90c-24.667 22 -62.667 33 -114 33h-82z" />
    <glyph glyph-name="Q" unicode="Q" horiz-adv-x="1735" 
d="M1333 -123l-106.003 167.999c-61.333 -28 -120.666 -47.667 -177.999 -59c-56 -14 -116.333 -21 -181 -21c-108 0 -211 18.333 -309 55c-91.333 36 -175.333 90.667 -252 164c-73.333 74 -128.666 155.333 -165.999 244c-36.667 91.333 -55 192.333 -55 303
c0 112.667 19 213.667 57 303c36 92 90.667 174 164 246c70 70 153.333 124 250 162c95.333 36.667 199 55 311 55c110.667 0 214 -18.333 310 -55c98.667 -40 182.667 -94.667 252 -164c70.667 -72 125.667 -154 165 -246c37.333 -92.667 56 -193 56 -301
c0 -78 -9.66699 -153 -29 -225c-23.333 -73.333 -54.666 -139.666 -93.999 -198.999l221 -246zM775.997 593.999l332.001 65.001c1.33301 9.33301 2.16602 16.166 2.49902 20.499s0.833008 9.16602 1.5 14.499c1.33301 8.66699 2 21 2 37
c0 84.667 -22.333 152.334 -67 203.001c-46 50.667 -105.667 76 -179 76s-133.333 -25.333 -180 -76c-44.667 -50.667 -67 -118.334 -67 -203.001c0 -83.333 22.333 -149.666 67 -198.999c42.667 -48.667 102.667 -73 180 -73h27z" />
    <glyph glyph-name="R" unicode="R" horiz-adv-x="1466" 
d="M653 1087v-286h82c51.333 0 90.333 12.333 117 37c26 23.333 39 58 39 104c0 46.667 -13 83 -39 109c-26.667 24 -65.667 36 -117 36h-82zM137 0l-0.000976562 1464h662c192.667 0 339.334 -42.333 440.001 -127c101.333 -85.333 152 -207.333 152 -366
c0 -104 -25.333 -189.333 -76 -256c-52 -69.333 -121 -109 -207 -119l391 -596h-590l-256 483v-483h-516z" />
    <glyph glyph-name="S" unicode="S" horiz-adv-x="1251" 
d="M4 125l167.999 410.001c79.333 -54 147 -92.333 203 -115c58 -24.667 112.667 -37 164 -37c37.333 0 66 6.66699 86 20c20 14.667 30 33.334 30 56.001c0 40 -51.667 71.333 -155 94c-22 4 -48 9.33301 -78 16c-109.333 27.333 -193.333 74.666 -252 141.999
c-57.333 67.333 -86 152 -86 254c0 155.333 56.667 283.666 170 384.999c112.667 98 260 147 442 147c86.667 0 169.334 -11 248.001 -33c83.333 -22 165.333 -55.333 246 -100l-160 -383c-53.333 38.667 -103.666 67.334 -150.999 86.001c-56 19.333 -106 29 -150 29
c-36.667 0 -65.334 -6.33301 -86.001 -19c-19.333 -12.667 -29 -29.667 -29 -51c0 -42 73.333 -78 220 -108c19.333 -6 37 -10.333 53 -13c100.667 -22 179.667 -68.333 237 -139c58.667 -68.667 88 -153.334 88 -254.001c0 -162.667 -58.667 -295 -176 -397
c-58.667 -52 -126.334 -90.667 -203.001 -116s-161 -38 -253 -38c-94 0 -189.667 13.667 -287 41s-193.666 68.333 -288.999 123z" />
    <glyph glyph-name="T" unicode="T" horiz-adv-x="1178" 
d="M326 0v985h-293v479h1112v-479h-293v-985h-526z" />
    <glyph glyph-name="U" unicode="U" horiz-adv-x="1602" 
d="M121 670l-0.000976562 794.001h526v-798c0 -94 11 -157.667 33 -191c22 -35.333 59.667 -53 113 -53c52.667 0 90 17.667 112 53c23.333 37.333 35 101 35 191v798h526v-794c0 -106.667 -6.66699 -192 -20 -256c-14.667 -70.667 -36.667 -127.334 -66 -170.001
c-59.333 -92 -139 -161.667 -239 -209c-104 -49.333 -220 -74 -348 -74c-128.667 0 -245 24.667 -349 74c-100 47.333 -179.667 117 -239 209c-27.333 42.667 -48.666 98.667 -63.999 168c-13.333 64 -20 150 -20 258z" />
    <glyph glyph-name="V" unicode="V" horiz-adv-x="1462" 
d="M487 0l-559 1464h570l155 -530c16.667 -56 34 -121.667 52 -197c12 -62 18.667 -111.667 20 -149h10c4 33.333 13.667 85 29 155c7.33301 33.333 23 93 47 179l164 542h559l-557 -1464h-490z" />
    <glyph glyph-name="W" unicode="W" horiz-adv-x="2001" 
d="M991 741c-2 -41.333 -13.002 -110.001 -33.002 -206.001c-1.33301 -6 -2.66602 -12.333 -3.99902 -19s-2.66602 -12 -3.99902 -16l-110 -500h-459l-428 1464h528l115 -645c5.33301 -30.667 12.666 -82.334 21.999 -155.001c4.66699 -32 8.33398 -76.667 11.001 -134h12
c2 61.333 12.333 138 31 230c1.33301 5.33301 2.16602 9.33301 2.49902 12s0.833008 5.33398 1.5 8.00098l139 684h371l139 -684l4 -20c18.667 -94 29 -170.667 31 -230h12c2.66699 57.333 6 102 10 134c3.33301 18.667 7.33301 45.5 12 80.5s8.33398 59.833 11.001 74.5
l115 645h528l-428 -1464h-459l-110 500c-0.666992 3.33301 -1.5 6.5 -2.5 9.5s-2.16699 7.5 -3.5 13.5s-2.33301 10 -3 12c-20 98.667 -30.667 167.334 -32 206.001h-19z" />
    <glyph glyph-name="X" unicode="X" horiz-adv-x="1466" 
d="M780 332c-14 29.333 -23.999 54.0029 -29.999 74.0029c-9.33301 19.333 -15 35.666 -17 48.999c-1.33301 -10 -6 -25.667 -14 -47c-2.66699 -8 -6.83398 -17.667 -12.501 -29l-22.5 -47l-166 -332h-602l520 780l-459 684h601l108 -239c2 -2 4 -6.33301 6 -13
c21.333 -45.333 35 -81.333 41 -108c4 18 10.333 35.667 19 53c2.66699 9.33301 6 18.666 10 27.999s9.33301 22.666 16 39.999l111 239h598l-457 -684l520 -780h-602z" />
    <glyph glyph-name="Y" unicode="Y" horiz-adv-x="1305" 
d="M375 0l0.00195312 646.999l-490 817h600l123 -284c17.333 -42.667 30.333 -79.667 39 -111c1.33301 -2.66699 2.16602 -4.66699 2.49902 -6s0.833008 -2.66602 1.5 -3.99902c5.33301 20 17.666 54 36.999 102c2.66699 5.33301 4.5 9.5 5.5 12.5s1.83301 5.16699 2.5 6.5
l121 284h596l-508 -817v-647h-530z" />
    <glyph glyph-name="Z" unicode="Z" horiz-adv-x="1380" 
d="M-53 0l655 1028h-512v436h1350l-637 -1013h565v-451h-1421z" />
    <glyph glyph-name="bracketleft" unicode="[" horiz-adv-x="891" 
d="M180 -420v1970h664v-342h-256v-1286h256v-342h-664z" />
    <glyph glyph-name="backslash" unicode="\" horiz-adv-x="958" 
d="M717 -190l-717 1687h242l716 -1687h-241z" />
    <glyph glyph-name="bracketright" unicode="]" horiz-adv-x="891" 
d="M711 -420h-662v342h254v1286h-254v342h662v-1970z" />
    <glyph glyph-name="asciicircum" unicode="^" horiz-adv-x="2048" 
d="M1192 1462l442 -565h-303l-307 309l-309 -309h-303l442 565h338z" />
    <glyph glyph-name="underscore" unicode="_" horiz-adv-x="1024" 
d="M1024 -201v-282h-1024v282h1024z" />
    <glyph glyph-name="grave" unicode="`" horiz-adv-x="1024" 
d="M215 1522h297l180 -351h-166z" />
    <glyph glyph-name="a" unicode="a" horiz-adv-x="1389" 
d="M549 520c0 -45.333 12.332 -80.666 36.999 -105.999c22 -27.333 52.667 -41 92 -41c40.667 0 72 13.667 94 41c23.333 26.667 35 62 35 106c0 45.333 -11.667 81.666 -35 108.999c-25.333 27.333 -56.666 41 -93.999 41c-38 0 -68.667 -13.667 -92 -41
c-24.667 -26.667 -37 -63 -37 -109zM822.999 0l-0.00195312 156c-51.333 -68.667 -103.666 -118 -156.999 -148c-56.667 -31.333 -117 -47 -181 -47c-119.333 0 -219 51.333 -299 154c-38.667 48.667 -68 106.5 -88 173.5s-30 140.167 -30 219.5
c0 168.667 38.667 303.667 116 405c76 102.667 176.333 154 301 154c64.667 0 122.667 -13.667 174 -41c52.667 -29.333 101.334 -72.333 146.001 -129v137h481v-1034h-463z" />
    <glyph glyph-name="b" unicode="b" horiz-adv-x="1389" 
d="M840 514c0 44 -11.666 80.333 -34.999 109c-26 27.333 -57.333 41 -94 41c-38 0 -69 -13.667 -93 -41c-24 -26.667 -36 -63 -36 -109c0 -44.667 12 -81.667 36 -111c23.333 -28.667 54.333 -43 93 -43c37.333 0 68.666 14.333 93.999 43c23.333 30.667 35 67.667 35 111z
M104.001 1550l491.998 -0.000976562v-481c0 -52 -0.666992 -87.333 -2 -106c-2 -35.333 -4.66699 -60.666 -8 -75.999c40.667 58.667 87.667 103.667 141 135c52.667 28.667 111.334 43 176.001 43c121.333 0 221 -50.667 299 -152c79.333 -99.333 119 -230.333 119 -393
c0 -169.333 -38.333 -304.333 -115 -405c-76 -102.667 -177 -154 -303 -154c-67.333 0 -128.666 15.667 -183.999 47c-57.333 32 -107.333 80 -150 144v-152h-465v1550z" />
    <glyph glyph-name="c" unicode="c" horiz-adv-x="950" 
d="M891 592c-32 26 -59.3311 43.6641 -81.998 52.9971c-30.667 11.333 -60 17 -88 17c-49.333 0 -89.666 -13 -120.999 -39c-30 -26 -45 -62.333 -45 -109c0 -43.333 14.333 -78 43 -104c31.333 -27.333 69.666 -41 114.999 -41c30.667 0 60.667 6.66699 90 20
c27.333 12 56.666 31 87.999 57v-411c-47.333 -23.333 -97.333 -41.666 -150 -54.999c-48 -12.667 -95.667 -19 -143 -19c-78.667 0 -149.667 13 -213 39c-67.333 27.333 -125.333 65 -174 113c-52.667 52.667 -93.667 113.334 -123 182.001c-27.333 68 -41 139.667 -41 215
c0 56 7 107.333 21 154c14 50 34.333 97 61 141c26.667 42.667 56.667 80.334 90 113.001s69.666 59.667 108.999 81c80.667 45.333 170.667 68 270 68c46.667 0 93 -4.66699 139 -14c52.667 -12.667 104 -27 154 -43v-418z" />
    <glyph glyph-name="d" unicode="d" horiz-adv-x="1389" 
d="M678 664c-38 0 -68.6699 -13.666 -92.0029 -40.999c-24.667 -26.667 -37 -63 -37 -109c0 -45.333 12.333 -82.333 37 -111c22.667 -28.667 53.334 -43 92.001 -43s69.334 14.333 92.001 43c24.667 28.667 37 65.667 37 111s-11.667 81.666 -35 108.999
c-25.333 27.333 -56.666 41 -93.999 41zM1286 1550v-1550h-467v152c-44 -65.333 -93 -113.333 -147 -144c-56.667 -31.333 -119 -47 -187 -47c-124 0 -225 51.333 -303 154c-76 100 -114 235 -114 405c0 79.333 10 152.5 30 219.5s49.333 124.833 88 173.5
c78 101.333 177.667 152 299 152c66.667 0 125.667 -14.333 177 -43c52.667 -30.667 99.667 -75.667 141 -135c-2 20.667 -4 46 -6 76c-2.66699 37.333 -4 72.666 -4 105.999v481h493z" />
    <glyph glyph-name="e" unicode="e" horiz-adv-x="1321" 
d="M1272 434h-712.999v-16c0 -50.667 9.66699 -89.667 29 -117c17.333 -26 46 -39 86 -39c24 0 44.333 7 61 21c17.333 12.667 31 32.334 41 59.001l465 -31c-40.667 -111.333 -111 -198 -211 -260c-99.333 -60 -220.666 -90 -363.999 -90c-80 0 -154.667 12.333 -224 37
c-74 26.667 -136.667 62 -188 106c-62.667 55.333 -110.334 117.666 -143.001 186.999c-33.333 72 -50 146.333 -50 223c0 80 17.333 155 52 225c15.333 35.333 34.333 67.666 57 96.999s50.667 58.666 84 87.999c56.667 48.667 118.667 84 186 106
c69.333 24.667 144.666 37 225.999 37c54 0 106.667 -5.66699 158 -17s98.333 -27.666 141 -48.999c84.667 -43.333 157.667 -108 219 -194c30.667 -44 53 -91.667 67 -143c15.333 -53.333 23 -110.666 23 -171.999v-35c0 -11.333 -0.666992 -19 -2 -23zM563.001 659
l227.999 -2c-3.33301 42 -13.666 72.333 -30.999 91c-18.667 20 -46 30 -82 30c-30.667 0 -56.667 -10 -78 -30c-18.667 -22 -31 -51.667 -37 -89z" />
    <glyph glyph-name="f" unicode="f" horiz-adv-x="872" 
d="M176 0l0.000976562 653h-135v381h135v117c0 143.333 38.333 253.333 115 330c77.333 76 187.333 114 330 114c37.333 0 74.666 -2 111.999 -6c35.333 -4 73 -10 113 -18v-389c0.666992 0 -7 1.33301 -23 4c-32 2.66699 -48.333 4 -49 4c-34 0 -58.667 -9.66699 -74 -29
c-14.667 -18.667 -22 -50.667 -22 -96v-31h168v-381h-168v-653h-502z" />
    <glyph glyph-name="g" unicode="g" horiz-adv-x="1389" 
d="M565 541c0 -41.333 10.999 -72.999 32.999 -94.999c22.667 -24 53.334 -36 92.001 -36c39.333 0 70 12 92 36c23.333 23.333 35 55 35 95c0 38.667 -11.667 70.667 -35 96c-22 24.667 -52.667 37 -92 37c-36.667 0 -66.667 -11.667 -90 -35
c-23.333 -28.667 -35 -61.334 -35 -98.001zM804.999 94.001l0.000976562 90c-48.667 -53.333 -98 -91.333 -148 -114c-50 -24.667 -107.333 -37 -172 -37c-122 0 -221.667 45.667 -299 137c-38.667 43.333 -68 95 -88 155s-30 125 -30 195c0 164 38 296.667 114 398
c75.333 99.333 176.333 149 303 149c63.333 0 122.333 -13.667 177 -41c51.333 -27.333 99 -69 143 -125v133h481v-884c0 -92 -4 -159.667 -12 -203c-8 -46 -21 -87.667 -39 -125c-42.667 -88 -117.667 -155.667 -225 -203c-110 -45.333 -248 -68 -414 -68
c-90 0 -176.667 8.33301 -260 25c-76.667 15.333 -150.334 39.333 -221.001 72l108 334c60.667 -36.667 116.667 -63.334 168 -80.001c52 -18 106.667 -27 164 -27c80 0 142 18.333 186 55c42.667 38.667 64 93.334 64 164.001z" />
    <glyph glyph-name="h" unicode="h" horiz-adv-x="1376" 
d="M109 0v1550h495v-428c0 -69.333 -0.666992 -115 -2 -137l-6 -94c42.667 58.667 90.334 103 143.001 133c53.333 28.667 113 43 179 43c110.667 0 198 -33.333 262 -100c64 -69.333 96 -160.333 96 -273v-694h-504v522c0 53.333 -4.66699 89 -14 107
c-10.667 18.667 -29.334 28 -56.001 28c-30 0 -52.333 -11.333 -67 -34c-15.333 -25.333 -23 -59 -23 -101v-522h-503z" />
    <glyph glyph-name="i" unicode="i" horiz-adv-x="739" 
d="M119 -4v1034h502v-1034h-502zM508 1290c0 -38 -12.332 -67.332 -36.999 -87.999c-26 -20.667 -59.333 -31 -100 -31c-41.333 0 -75 10.333 -101 31c-24.667 21.333 -37 50.666 -37 87.999c0 38 12.333 67.333 37 88c23.333 19.333 57 29 101 29
c43.333 0 76.666 -9.66699 99.999 -29c24.667 -20 37 -49.333 37 -88z" />
    <glyph glyph-name="j" unicode="j" horiz-adv-x="739" 
d="M119 -444v1480h502v-1480h-502zM518 1296c0 -38 -12.333 -67.333 -37 -88c-24 -20 -57.333 -30 -100 -30s-76 10 -100 30c-24.667 20.667 -37 50 -37 88c0 38.667 12.333 68 37 88c22 19.333 55.333 29 100 29s78 -9.66699 100 -29c24.667 -20 37 -49.333 37 -88z" />
    <glyph glyph-name="k" unicode="k" horiz-adv-x="1395" 
d="M109 0v1550h497v-911l211 395h588l-367 -497l387 -537h-594l-225 387v-387h-497z" />
    <glyph glyph-name="l" unicode="l" horiz-adv-x="739" 
d="M119 0v1550h502v-1550h-502z" />
    <glyph glyph-name="m" unicode="m" horiz-adv-x="1952" 
d="M109 0l-0.000976562 1034h479v-145c38 59.333 81.667 104.333 131 135c46.667 28.667 100.667 43 162 43c72 0 132.667 -17.667 182 -53c47.333 -35.333 86.333 -90.666 117 -165.999c38.667 72 87 126.667 145 164c54.667 36.667 118.334 55 191.001 55
c101.333 0 182.333 -33.333 243 -100c60 -68 90 -158.333 90 -271v-696h-485v520c0 53.333 -4.66699 89 -14 107c-11.333 18.667 -28 28 -50 28c-28 0 -47.667 -10.667 -59 -32c-13.333 -22 -20 -56.333 -20 -103v-520h-480v520c0 52 -4 87.667 -12 107
c-10.667 18.667 -27.667 28 -51 28c-27.333 0 -47.5 -10.833 -60.5 -32.5s-19.5 -55.834 -19.5 -102.501v-520h-489z" />
    <glyph glyph-name="n" unicode="n" horiz-adv-x="1376" 
d="M109 0v1034h487v-143c42.667 58.667 90.334 103 143.001 133c53.333 28.667 113 43 179 43c110.667 0 198 -33.333 262 -100c64 -69.333 96 -160.333 96 -273v-694h-502v522c0 48.667 -5.33301 84.334 -16 107.001c-10.667 18.667 -29.334 28 -56.001 28
c-30 0 -52.333 -11.333 -67 -34c-15.333 -25.333 -23 -59 -23 -101v-522h-503z" />
    <glyph glyph-name="o" unicode="o" horiz-adv-x="1331" 
d="M666 373c36.667 0 66 13 88 39c22.667 26.667 34 60.667 34 102c0 42.667 -10.667 76.667 -32 102c-22 26 -52 39 -90 39c-37.333 0 -66.666 -13 -87.999 -39c-23.333 -26.667 -35 -60.667 -35 -102s11.667 -75.333 35 -102c21.333 -26 50.666 -39 87.999 -39zM1270 514
c0 -76 -16.333 -150.332 -49 -222.999c-34.667 -71.333 -82.667 -133.666 -144 -186.999c-52.667 -44.667 -114 -80 -184 -106c-71.333 -24.667 -147 -37 -227 -37c-81.333 0 -156.666 12.333 -225.999 37c-67.333 22 -129.333 57.333 -186 106
c-62 52.667 -109 115 -141 187c-34.667 70 -52 144.333 -52 223c0 80 17.333 155 52 225c15.333 35.333 34.333 67.666 57 96.999s50.667 58.666 84 87.999c56.667 48.667 118.667 84 186 106c69.333 24.667 144.666 37 225.999 37c80 0 155.5 -12.333 226.5 -37
s133.167 -60 186.5 -106c60 -52 107.333 -113.667 142 -185c32.667 -72.667 49 -147.667 49 -225z" />
    <glyph glyph-name="p" unicode="p" horiz-adv-x="1389" 
d="M717 365c38 0 69.333 14.333 94 43c23.333 26.667 35 62.667 35 108c0 44.667 -11.667 81.667 -35 111c-26 27.333 -57.333 41 -94 41c-38 0 -68.667 -13.667 -92 -41c-24.667 -28.667 -37 -65.667 -37 -111c0 -46.667 12.333 -82.667 37 -108
c22 -28.667 52.667 -43 92 -43zM109 -446l-0.000976562 1480h479v-137c43.333 57.333 91.666 99.666 144.999 126.999c52.667 28.667 111.334 43 176.001 43c125.333 0 225.666 -50.667 300.999 -152c76.667 -102.667 115 -238.334 115 -407.001c0 -162 -39 -293 -117 -393
c-80 -101.333 -179.667 -152 -299 -152c-67.333 0 -126.666 15 -177.999 45c-52 28.667 -99 73 -141 133c2.66699 -18 5.33398 -45.333 8.00098 -82c2.66699 -40 4 -72.667 4 -98v-407h-493z" />
    <glyph glyph-name="q" unicode="q" horiz-adv-x="1389" 
d="M549 516c0 -46.667 12.332 -82.667 36.999 -108c22 -28.667 52.667 -43 92 -43c38.667 0 70 14.333 94 43c23.333 26.667 35 62.667 35 108c0 44.667 -11.667 81.667 -35 111c-25.333 27.333 -56.666 41 -93.999 41c-38 0 -68.667 -13.667 -92 -41
c-24.667 -28.667 -37 -65.667 -37 -111zM1286 -446l-493.003 -0.000976562v407c0 32.667 1.33301 68.334 4 107.001c2 30 4 54.333 6 73c-42 -60 -89 -104.333 -141 -133c-50 -30 -109 -45 -177 -45c-59.333 0 -114.166 12.833 -164.499 38.5s-95.166 64.167 -134.499 115.5
c-78.667 98 -118 228.333 -118 391c0 170 38 305 114 405c78 102.667 179 154 303 154c64.667 0 122.667 -13.667 174 -41c52.667 -29.333 101.334 -72.333 146.001 -129v137h481v-1480z" />
    <glyph glyph-name="r" unicode="r" horiz-adv-x="999" 
d="M109 0l-0.00195312 1034h487v-145c42.667 58 91 103 145 135c53.333 28.667 112.333 43 177 43h22c6.66699 0 11.334 -0.666992 14.001 -2v-502c-27.333 14.667 -53 26.334 -77 35.001c-25.333 6.66699 -46.666 10 -63.999 10c-64 0 -113 -17.667 -147 -53
c-36 -36 -54 -84.333 -54 -145v-410h-503z" />
    <glyph glyph-name="s" unicode="s" horiz-adv-x="999" 
d="M0 74l132.998 318.999c53.333 -36 104 -64.667 152 -86c48.667 -18.667 88 -28 118 -28c26.667 0 47.334 5.33301 62.001 16c13.333 9.33301 20 23.666 20 42.999c0 26 -30 45 -90 57c-18 4 -33.667 7.66699 -47 11c-96 22 -166.333 57.333 -211 106
c-44.667 46.667 -67 108.667 -67 186c0 108.667 45.667 197.667 137 267c91.333 68 208.666 102 351.999 102c74.667 0 144.334 -6.66699 209.001 -20c66.667 -15.333 128.667 -36 186 -62l-123 -311c-50 33.333 -92 57 -126 71c-38 15.333 -70.333 23 -97 23
c-23.333 0 -41.666 -4.66699 -54.999 -14c-14 -10.667 -21 -23.667 -21 -39c0 -25.333 39 -46.666 117 -63.999c6.66699 -1.33301 15 -3.16602 25 -5.49902s16.667 -3.83301 20 -4.5c101.333 -25.333 175 -60 221 -104c48 -48 72 -109 72 -183
c0 -116.667 -46.333 -210.667 -139 -282c-94 -74 -217.667 -111 -371 -111c-82.667 0 -164.667 9.66699 -246 29c-73.333 16.667 -150.333 44.667 -231 84z" />
    <glyph glyph-name="t" unicode="t" horiz-adv-x="856" 
d="M176 0v653h-141v381h141v342h502v-342h143v-381h-143v-653h-502z" />
    <glyph glyph-name="u" unicode="u" horiz-adv-x="1339" 
d="M94 1034l493.998 -0.000976562v-506c0 -70.667 6 -117.667 18 -141c10 -20.667 31.333 -31 64 -31c29.333 0 50.333 9.66699 63 29c11.333 24 17 71.667 17 143v506h493v-557c0 -179.333 -45.667 -309.666 -137 -390.999c-91.333 -83.333 -236.666 -125 -435.999 -125
s-345.166 41.5 -437.499 124.5s-138.5 213.5 -138.5 391.5v557z" />
    <glyph glyph-name="v" unicode="v" horiz-adv-x="1229" 
d="M385 0l-444 1034h532l102 -358c12 -36.667 20.333 -67.334 25 -92.001c6 -22.667 10 -44 12 -64c1.33301 21.333 11 65 29 131c2 4.66699 3.5 9 4.5 13s2.16699 8 3.5 12l101 358h538l-448 -1034h-455z" />
    <glyph glyph-name="w" unicode="w" horiz-adv-x="1782" 
d="M356 0l-405 1034h530l88 -395c6.66699 -30 11.667 -58 15 -84c5.33301 -40.667 8.66602 -72.667 9.99902 -96l16 100c2 10 4.33301 20.5 7 31.5l12 48.5l106 395h330l96 -407c2 -8 4.33301 -18.667 7 -32l8 -40c4.66699 -22 9.33398 -54 14.001 -96
c2 17.333 7.33301 51.333 16 102c6 34 13 66.667 21 98l94 375h530l-444 -1034h-395l-88 326c-2 4.66699 -4 11.334 -6 20.001c-14 52.667 -24.333 98.334 -31 137.001c-4 -34 -13 -77 -27 -129l-8 -28l-88 -326h-408z" />
    <glyph glyph-name="x" unicode="x" horiz-adv-x="1284" 
d="M-66 0l416.002 534.999l-385 499h563l68 -151l11 -25c3.33301 -7.33301 7 -16.333 11 -27c6.66699 -14.667 11 -30.334 13 -47.001c3.33301 18.667 12.666 44.667 27.999 78c1.33301 2 2.66602 4.83301 3.99902 8.5s2.33301 6.33398 3 8.00098
s1.33398 3.16699 2.00098 4.5l67 151h568l-369 -499l422 -535h-596l-82 152c-5.33301 10 -12.333 26.333 -21 49c-8 21.333 -13.333 38.333 -16 51c-4.66699 -25.333 -9.33398 -43.666 -14.001 -54.999c-5.33301 -14.667 -12.333 -29.667 -21 -45l-86 -152h-586z" />
    <glyph glyph-name="y" unicode="y" horiz-adv-x="1300" 
d="M410 90l-448.999 944h551l78 -264c1.33301 -1.33301 2.16602 -2.83301 2.49902 -4.5s0.833008 -3.5 1.5 -5.5c36.667 -130 57.667 -223.667 63 -281l17 72.5l16.5 64.5l14.5 56c5.33301 26 14 60.667 26 104l76 258h516l-631 -1456h-534z" />
    <glyph glyph-name="z" unicode="z" horiz-adv-x="1120" 
d="M-2 0l412 647h-344v387h1079l-410 -641h357v-393h-1094z" />
    <glyph glyph-name="braceleft" unicode="{" horiz-adv-x="1024" 
d="M905 1192c-8 0 -15.3311 0.667969 -21.998 2.00098h-21c-59.333 0 -98.333 -10.333 -117 -31c-20 -18 -30 -60.333 -30 -127v-239c0 -87.333 -15.667 -150.333 -47 -189c-30.667 -36.667 -87.334 -62.667 -170.001 -78c82 -14 139.333 -39.667 172 -77
c30 -36.667 45 -99 45 -187v-241c0 -65.333 10 -107 30 -125c18.667 -20.667 57 -31 115 -31c8 0 15.667 0.666992 23 2h22v-285h-80c-90.667 0 -161 3.66699 -211 11c-48.667 6 -88.667 17.333 -120 34c-40 19.333 -68.167 47.166 -84.5 83.499s-24.5 98.833 -24.5 187.5
v258c0 86 -15 146 -45 180s-83.333 51 -160 51c-6.66699 0 -12 -0.666992 -16 -2h-19v283h19c4 -1.33301 9.33301 -2 16 -2c75.333 0 128.666 17.667 159.999 53c30 34 45 93.333 45 178v258c0 90 8.33301 153 25 189c16 36.667 44 64.667 84 84
c33.333 16.667 73.333 28 120 34c50 7.33301 120.333 11 211 11h80v-285z" />
    <glyph glyph-name="bar" unicode="|" horiz-adv-x="1024" 
d="M653 1565v-2048h-280v2048h280z" />
    <glyph glyph-name="braceright" unicode="}" horiz-adv-x="1024" 
d="M641 1159l0.000976562 -258.001c0 -83.333 15.667 -142.666 47 -177.999s84 -53 158 -53c6.66699 0 12 0.666992 16 2h19v-283h-19c-4 1.33301 -9.33301 2 -16 2c-75.333 0 -128 -17 -158 -51c-31.333 -35.333 -47 -95.333 -47 -180v-258
c0 -86.667 -8.33301 -149 -25 -187c-15.333 -36 -44 -64.667 -86 -86c-34 -16 -72 -26.667 -114 -32c-49.333 -7.33301 -116.333 -11 -201 -11h-94v283h22c7.33301 -1.33301 14.333 -2 21 -2c59.333 0 98.333 10.333 117 31c20 18 30 60.333 30 127v241
c0 86 15.667 148.333 47 187c32.667 38 89.334 63.667 170.001 77c-82 14.667 -138.667 40 -170 76c-31.333 38.667 -47 101.667 -47 189v241c0 66.667 -10 109 -30 127c-18.667 20.667 -57.667 31 -117 31h-21c-6.66699 -1.33301 -14 -2 -22 -2v285h80
c91.333 0 161.666 -3.66699 210.999 -11c47.333 -6 86.666 -17.333 117.999 -34c41.333 -21.333 70 -50 86 -86c16.667 -38 25 -100.333 25 -187z" />
    <glyph glyph-name="asciitilde" unicode="~" horiz-adv-x="1706" 
d="M1530 543c-65.333 -45.333 -129.665 -79 -192.998 -101c-57.333 -21.333 -116.666 -32 -177.999 -32c-35.333 0 -72 4 -110 12c-38 6 -90 21 -156 45c-83.333 28.667 -148.333 47 -195 55c-46.667 10 -92.334 15 -137.001 15c-54.667 0 -113.334 -12.333 -176.001 -37
c-68 -30 -137 -70.333 -207 -121v299c77.333 49.333 149.666 85.333 216.999 108c64.667 23.333 128.334 35 191.001 35c38.667 0 79.667 -4 123 -12c35.333 -6.66699 87 -20.334 155 -41.001c14.667 -4 36 -11.667 64 -23c104 -35.333 182.333 -53 235 -53
c55.333 0 113.333 12.333 174 37c63.333 26.667 127.666 64.334 192.999 113.001v-299z" />
    <glyph glyph-name="Zcaron" horiz-adv-x="1380" 
d="M-53 0l655 1028h-512v436h1350l-637 -1013h565v-451h-1421zM500 1847l145 -262h219l146 262h-123l-131 -127l-133 127h-123z" />
    <glyph glyph-name="ogonek" 
 />
    <glyph glyph-name="caron" horiz-adv-x="2" 
d="M-20 881l145 -263h219l145 263h-122l-131 -127l-134 127h-122z" />
    <glyph glyph-name="Lslash" horiz-adv-x="1233" 
d="M170 0v459l-113 -72l-153 258l266 178v641h526v-354l187 127l178 -254l-365 -246v-280h514v-457h-1040z" />
    <glyph glyph-name="ordmasculine" horiz-adv-x="999" 
d="M500 1001c26.667 0 48.998 8.99902 66.998 26.999c16.667 18.667 25 43.334 25 74.001c0 29.333 -8.33301 53.333 -25 72c-17.333 17.333 -39.666 26 -66.999 26s-50 -8.66699 -68 -26c-16 -18.667 -24 -42.667 -24 -72c0 -30 8 -54.667 24 -74
c18.667 -18 41.334 -27 68.001 -27zM951.998 1102c0 -55.333 -12.335 -108 -37.002 -158c-24 -49.333 -59.333 -92.333 -106 -129c-39.333 -31.333 -85.666 -56 -138.999 -74c-52 -17.333 -108.667 -26 -170 -26c-60.667 0 -116.667 8 -168 24
c-56 20.667 -103.333 46 -142 76c-44 34 -78.667 77 -104 129c-26 49.333 -39 102 -39 158s12.333 108.667 37 158c26 50.667 61.333 93.667 106 129c42.667 31.333 90 56.333 142 75c50 16.667 106 25 168 25c60.667 0 117.334 -8.33301 170.001 -25
c52 -18.667 98.333 -43.667 139 -75c44.667 -36.667 80 -79.667 106 -129c24.667 -51.333 37 -104 37 -158z" />
    <glyph glyph-name="fraction" horiz-adv-x="342" 
d="M-342 -39l813 1518h211l-817 -1518h-207z" />
    <glyph glyph-name="breve" horiz-adv-x="1024" 
d="M197 1507h131.001c4 -48 20.833 -82.833 50.5 -104.5s74.167 -32.5 133.5 -32.5c58.667 0 103.667 11.667 135 35c29.333 22 45 56 47 102h131c-8 -106.667 -37.5 -184.5 -88.5 -233.5s-125.833 -73.5 -224.5 -73.5c-100.667 0 -176.334 25.333 -227.001 76
c-52.667 52 -82 129 -88 231z" />
    <glyph glyph-name="dotlessi" horiz-adv-x="739" 
d="M119 0v1034h502v-1034h-502z" />
    <glyph glyph-name="dotlessi" unicode="&#x131;" horiz-adv-x="739" 
d="M119 0v1034h502v-1034h-502z" />
    <glyph glyph-name="zcaron" horiz-adv-x="1120" 
d="M-2 0l412 647h-344v387h1079l-410 -641h357v-393h-1094zM338 1415l145 -262h219l146 262h-123l-131 -127l-133 127h-123z" />
    <glyph glyph-name="Ydieresis" horiz-adv-x="1305" 
d="M375 0l0.00195312 646.999l-490 817h600l123 -284c17.333 -42.667 30.333 -79.667 39 -111c1.33301 -2.66699 2.16602 -4.66699 2.49902 -6s0.833008 -2.66602 1.5 -3.99902c5.33301 20 17.666 54 36.999 102c2.66699 5.33301 4.5 9.5 5.5 12.5s1.83301 5.16699 2.5 6.5
l121 284h596l-508 -817v-647h-530zM692.002 1722l-2 -0.000976562c0 34.667 13 64.667 39 90c26 26 56.667 39 92 39c37.333 0 68 -12 92 -36c24.667 -24.667 37 -55.667 37 -93s-11.667 -68.666 -35 -93.999c-25.333 -23.333 -56 -35 -92 -35c-34.667 0 -66 12.333 -94 37
c-24.667 26 -37 56.667 -37 92zM340.002 1722l-1.99902 -0.000976562c0 34.667 13 64.667 39 90c25.333 26 56 39 92 39c37.333 0 68 -12 92 -36c24.667 -24.667 37 -55.667 37 -93s-11.667 -68.666 -35 -93.999c-23.333 -23.333 -54 -35 -92 -35
c-36.667 0 -67.334 12.333 -92.001 37c-26 24 -39 54.667 -39 92z" />
    <glyph glyph-name="Ydieresis" unicode="&#x178;" horiz-adv-x="1305" 
d="M375 0l0.00195312 646.999l-490 817h600l123 -284c17.333 -42.667 30.333 -79.667 39 -111c1.33301 -2.66699 2.16602 -4.66699 2.49902 -6s0.833008 -2.66602 1.5 -3.99902c5.33301 20 17.666 54 36.999 102c2.66699 5.33301 4.5 9.5 5.5 12.5s1.83301 5.16699 2.5 6.5
l121 284h596l-508 -817v-647h-530zM692.002 1722l-2 -0.000976562c0 34.667 13 64.667 39 90c26 26 56.667 39 92 39c37.333 0 68 -12 92 -36c24.667 -24.667 37 -55.667 37 -93s-11.667 -68.666 -35 -93.999c-25.333 -23.333 -56 -35 -92 -35c-34.667 0 -66 12.333 -94 37
c-24.667 26 -37 56.667 -37 92zM340.002 1722l-1.99902 -0.000976562c0 34.667 13 64.667 39 90c25.333 26 56 39 92 39c37.333 0 68 -12 92 -36c24.667 -24.667 37 -55.667 37 -93s-11.667 -68.666 -35 -93.999c-23.333 -23.333 -54 -35 -92 -35
c-36.667 0 -67.334 12.333 -92.001 37c-26 24 -39 54.667 -39 92z" />
    <glyph glyph-name="fl" unicode="&#xa0;" horiz-adv-x="1612" 
d="M991 0v1550h502v-1550h-502zM176 0l0.000976562 653h-135v381h135v117c0 143.333 38.333 253.333 115 330c77.333 76 187.333 114 330 114c37.333 0 74.666 -2 111.999 -6c35.333 -4 73 -10 113 -18v-389c0.666992 0 -7 1.33301 -23 4c-32 2.66699 -48.333 4 -49 4
c-34 0 -58.667 -9.66699 -74 -29c-14.667 -18.667 -22 -50.667 -22 -96v-31h168v-381h-168v-653h-502z" />
    <glyph glyph-name="exclamdown" unicode="&#xa1;" horiz-adv-x="768" 
d="M135 926h496v-965h-496v965zM100 1278c0 68 27.333 125.333 82 172c55.333 46.667 122.333 70 201 70c80 0 147.667 -23.333 203 -70c54.667 -48.667 82 -106 82 -172c0 -65.333 -27.333 -121.333 -82 -168c-57.333 -48 -125 -72 -203 -72c-76.667 0 -143.667 24 -201 72
c-54.667 46.667 -82 102.667 -82 168z" />
    <glyph glyph-name="cent" unicode="&#xa2;" horiz-adv-x="1403" 
d="M1065 713c-30 24 -57.3379 41.668 -82.0049 53.001c-30.667 10.667 -60 16 -88 16c-49.333 0 -89.666 -13.667 -120.999 -41c-30 -25.333 -45 -60.666 -45 -105.999c0 -43.333 14.333 -78.333 43 -105c32.667 -27.333 71 -41 115 -41c28.667 0 58.667 7 90 21
c26.667 10.667 56 29.667 88 57l-8 -415c-21.333 -12 -48.666 -22.333 -81.999 -31c-46.667 -15.333 -87.667 -26.333 -123 -33v-123h-227v135c-125.333 37.333 -223.666 102.833 -294.999 196.5s-107 206.5 -107 338.5c0 131.333 37.667 246.666 113 345.999
c38.667 50 82.334 90.667 131.001 122s104 54 166 68v121h229v-110c24 -2 54 -7.66699 90 -17c38.667 -8.66699 76.334 -19.334 113.001 -32.001v-420z" />
    <glyph glyph-name="sterling" unicode="&#xa3;" horiz-adv-x="1403" 
d="M750 555c0 -2.66699 0.668945 -5.33203 2.00195 -7.99902v-12c0 -28 -8.33301 -54.667 -25 -80c-17.333 -24 -44.666 -48.667 -81.999 -74v-14c26.667 8.66699 45 14 55 16c25.333 2.66699 44.666 4 57.999 4c44.667 0 97 -9.83301 157 -29.5s99.667 -29.5 119 -29.5
c35.333 0 64 8 86 24c24 18 45.333 44 64 78l241 -233c-24.667 -40 -52 -74.667 -82 -104s-62.667 -54.333 -98 -75c-66.667 -38 -145 -57 -235 -57c-80.667 0 -165.334 14.333 -254.001 43s-137.334 43 -146.001 43c2 0 -11 3.33301 -39 10c-24 6 -48.333 9 -73 9
c-33.333 0 -65.666 -7 -96.999 -21c-26.667 -13.333 -56 -36 -88 -68l-188 306c22.667 31.333 46.667 55 72 71c23.333 16.667 49.666 27 78.999 31c14 14.667 24.333 31 31 49c6.66699 21.333 10 39.666 10 54.999c0 8 -3.33301 28 -10 60
c-1.33301 1.33301 -2 3.33301 -2 6h-201v305h127c-16.667 40.667 -29.334 80.334 -38.001 119.001c-10 32 -15 65.333 -15 100c0 122 51.333 219 154 291c102.667 72.667 242 109 418 109c184 0 324.333 -40.333 421 -121c97.333 -82 148 -202.333 152 -361h-471
c-2 41.333 -12.333 72.333 -31 93c-18.667 18.667 -46.667 28 -84 28c-32 0 -58.667 -8 -80 -24c-20 -18.667 -30 -41.334 -30 -68.001c0 -18.667 15.667 -67 47 -145c4.66699 -12 7.33398 -19 8.00098 -21h399v-305h-331z" />
    <glyph glyph-name="currency" unicode="&#xa4;" horiz-adv-x="1241" 
d="M866 885c0 65.333 -23.667 122.667 -71 172c-50.667 47.333 -108 71 -172 71c-67.333 0 -124.666 -23.667 -171.999 -71c-49.333 -48.667 -74 -106 -74 -172c0 -68 24.667 -125.333 74 -172c48 -48 105.333 -72 172 -72c67.333 0 124.666 24.667 171.999 74
c47.333 47.333 71 104 71 170zM385 1253c36.667 24 73.6689 41.333 111.002 52c41.333 10.667 83.666 16 126.999 16s85.666 -5.33301 126.999 -16c38 -11.333 74 -28.666 108 -51.999l199 199l133 -135l-197 -203c22 -34 38.333 -70.667 49 -110
c11.333 -40 17 -79.667 17 -119s-5.66699 -79 -17 -119c-10 -40 -26.333 -77 -49 -111l197 -200l-133 -138l-199 201c-40 -25.333 -76.667 -42.333 -110 -51c-38.667 -12 -80.334 -18 -125.001 -18c-44 0 -85.667 6 -125 18c-36 9.33301 -73.667 26.333 -113 51l-199 -201
l-133 138l197 200c-23.333 35.333 -39.666 71.666 -48.999 108.999c-11.333 40 -17 81 -17 123c0 41.333 5.66699 81 17 119c10 37.333 26.333 73.333 49 108l-197 203l133 135z" />
    <glyph glyph-name="yen" unicode="&#xa5;" horiz-adv-x="1204" 
d="M137 0v1464h979v-397h-463v-141h420v-375h-420v-154h475v-397h-991zM362 1536l146 262h219l145 -262h-122l-132 127l-133 -127h-123z" />
    <glyph glyph-name="brokenbar" unicode="&#xa6;" horiz-adv-x="1024" 
d="M653 408v-758h-280v758h280zM653 1432v-758h-280v758h280z" />
    <glyph glyph-name="section" unicode="&#xa7;" horiz-adv-x="1327" 
d="M647 403c40 0 73.667 13 101 39c24 26.667 36 61 36 103s-12 76 -36 102c-26 26 -59.667 39 -101 39c-42 0 -74.667 -13 -98 -39c-26 -25.333 -39 -59.333 -39 -102s13 -77 39 -103c24 -26 56.667 -39 98 -39zM311 856c-54.667 22.667 -96.332 55.3369 -124.999 98.0039
c-27.333 45.333 -41 97.333 -41 156c0 118 48 213 144 285c96.667 69.333 227 104 391 104c170 0 299.667 -36 389 -108c86.667 -72.667 131 -181.334 133 -326.001h-397v14c0 38.667 -11 66.667 -33 84c-22.667 19.333 -54.667 29 -96 29c-40 0 -71.333 -9.66699 -94 -29
c-24.667 -18 -37 -44 -37 -78c0 -58 62 -94 186 -108c14.667 -2 28.5 -4 41.5 -6s22.5 -3.33301 28.5 -4c97.333 -16.667 161.333 -29.667 192 -39c44 -16.667 78.333 -33.667 103 -51c52 -37.333 90.667 -82.666 116 -135.999c26 -52.667 39 -113.334 39 -182.001
c0 -81.333 -19.667 -150.333 -59 -207c-41.333 -56 -100 -96.333 -176 -121c56.667 -22.667 98.167 -55.334 124.5 -98.001s39.5 -96.667 39.5 -162c0 -120.667 -48 -214 -144 -280c-96 -70 -227 -105 -393 -105c-165.333 0 -293 37 -383 111
c-89.333 75.333 -135 180.333 -137 315h401v-18c0 -39.333 11 -68 33 -86c22.667 -20.667 54.667 -31 96 -31c40 0 72.333 10.333 97 31c24 18 36 43.333 36 76c0 55.333 -65.333 94 -196 116c-33.333 7.33301 -55.333 11.666 -66 12.999
c-80.667 14.667 -149.834 34 -207.501 58s-104.5 52.333 -140.5 85c-66.667 62.667 -100 154 -100 274c0 81.333 19.667 149.666 59 204.999c40 54.667 98.667 95 176 121z" />
    <glyph glyph-name="dieresis" unicode="&#xa8;" horiz-adv-x="1024" 
d="M557 1356c0 38 14.999 71.998 44.999 101.998s65 45 105 45c40.667 0 75.334 -14.333 104.001 -43c28.667 -28 43 -62.667 43 -104c0 -43.333 -13.667 -79.666 -41 -108.999c-30.667 -27.333 -66 -41 -106 -41c-39.333 0 -75 14.333 -107 43
c-28.667 28.667 -43 64.334 -43 107.001zM167.999 1356c0 38 15.001 72 45.001 102s64.667 45 104 45c41.333 0 76.333 -14.333 105 -43c28.667 -28 43 -62.667 43 -104c0 -43.333 -13.667 -79.666 -41 -108.999c-28.667 -27.333 -64.334 -41 -107.001 -41
c-39.333 0 -74 14.167 -104 42.5s-45 64.166 -45 107.499z" />
    <glyph glyph-name="copyright" unicode="&#xa9;" horiz-adv-x="1706" 
d="M987 883c-2 41.333 -15.001 73.998 -39.001 97.998c-22 24.667 -52.667 37 -92 37c-49.333 0 -87.666 -24 -114.999 -72c-27.333 -49.333 -41 -116.333 -41 -201c0 -85.333 13.667 -150.666 41 -195.999c27.333 -44 68.333 -66 123 -66c38.667 0 69.334 12.333 92.001 37
c21.333 23.333 33 59 35 107h248c-4 -98 -40.333 -177.333 -109 -238c-68.667 -58.667 -159.334 -88 -272.001 -88c-129.333 0 -231 39 -305 117c-75.333 75.333 -113 181.666 -113 318.999c0 134 37 242 111 324s170.333 123 289 123c57.333 0 110 -6.66699 158 -20
s88 -32.666 120 -57.999c68 -55.333 105 -129.666 111 -222.999h-242zM1452 742.998c0 82 -14.999 158.668 -44.999 230.001c-32.667 74.667 -75.667 138.667 -129 192c-55.333 56 -120.333 99.667 -195 131c-68.667 30 -145 45 -229 45c-82.667 0 -159 -14.333 -229 -43
c-72.667 -30 -136.334 -73 -191.001 -129c-58 -60 -102.333 -125.333 -133 -196c-30 -71.333 -45 -148 -45 -230c0 -81.333 15 -157 45 -227c32 -74 75.5 -138.667 130.5 -194s120.167 -99.333 195.5 -132c70.667 -30 146.334 -45 227.001 -45
c79.333 0 155.666 15 228.999 45c72 30.667 137.667 75.334 197 134.001c57.333 55.333 100.333 118.666 129 189.999s43 147.666 43 228.999zM852 1493c104 0 201.669 -18.3311 293.002 -54.998c92.667 -39.333 174 -94 244 -164c67.333 -68 121 -149.333 161 -244
c37.333 -92.667 56 -189 56 -289c0 -101.333 -18.667 -197.5 -56 -288.5s-91 -170.167 -161 -237.5c-72.667 -70.667 -156 -126 -250 -166c-92.667 -39.333 -188.334 -59 -287.001 -59c-102 0 -197 19 -285 57c-92 40 -173 95.333 -243 166
c-73.333 73.333 -128 154.666 -164 243.999c-38.667 89.333 -58 184 -58 284c0 101.333 19.333 197.666 58 288.999s94 174 166 248c66 68.667 145 122 237 160c89.333 36.667 185.666 55 288.999 55z" />
    <glyph glyph-name="ordfeminine" unicode="&#xaa;" horiz-adv-x="1042" 
d="M412 1106c0 -32.667 8.66699 -58 26 -76c20.667 -19.333 44 -29 70 -29c27.333 0 51.333 9.66699 72 29c17.333 18 26 43.333 26 76s-8.66699 58 -26 76c-20 18.667 -44 28 -72 28c-26.667 0 -50 -9.33301 -70 -28c-17.333 -18 -26 -43.333 -26 -76zM618 741
l0.000976562 109.001c-34.667 -44.667 -73.334 -78.667 -116.001 -102c-41.333 -22 -87 -33 -137 -33c-44.667 0 -86 8.83301 -124 26.5s-72 44.167 -102 79.5c-58.667 71.333 -88 163.666 -88 276.999c0 118 28.667 212.667 86 284s133.333 107 228 107
c47.333 0 91 -9.66699 131 -29c37.333 -19.333 73.333 -49.333 108 -90v96h361v-725h-347z" />
    <glyph glyph-name="guillemotleft" unicode="&#xab;" horiz-adv-x="1735" 
d="M868 453c74 0 133.667 25 179 75c44.667 51.333 67 118.333 67 201c0 84.667 -22.333 152.334 -67 203.001c-46 50.667 -105.667 76 -179 76s-133.333 -25.333 -180 -76c-44.667 -50.667 -67 -118.334 -67 -203.001c0 -82.667 22.333 -149.667 67 -201
c46 -50 106 -75 180 -75zM1651 729c0 -108 -19.334 -207.663 -58.001 -298.996c-40 -94.667 -95.333 -177.334 -166 -248.001c-72 -70 -156.333 -124.667 -253 -164c-96.667 -38 -198.667 -57 -306 -57c-108.667 0 -211 19 -307 57c-93.333 38 -178 93.333 -254 166
c-73.333 74 -128.666 155.333 -165.999 244c-36.667 91.333 -55 191.666 -55 300.999s18.333 209.666 55 300.999c38.667 90.667 94 172.667 166 246c73.333 71.333 157.333 126.666 252 165.999c95.333 36.667 198.333 55 309 55c109.333 0 212 -18.333 308 -55
c95.333 -38.667 180 -94 254 -166c70.667 -72 125.667 -154 165 -246c37.333 -92.667 56 -193 56 -301zM595.999 1548l145 262h220l145 -262h-123l-131 127l-133 -127h-123z" />
    <glyph glyph-name="logicalnot" unicode="&#xac;" horiz-adv-x="1706" 
d="M1452 868v-501h-272v235h-926v266h1198z" />
    <glyph glyph-name="minus" unicode="&#xad;" horiz-adv-x="1706" 
d="M1452 750v-277h-1198v277h1198z" />
    <glyph glyph-name="registered" unicode="&#xae;" horiz-adv-x="1706" 
d="M823 1006h-38.999v-193h54c40 0 69.333 8.33301 88 25c20 16 30 40.333 30 73c0 34.667 -10.667 58.667 -32 72c-22.667 15.333 -56.334 23 -101.001 23zM862.001 1165c116.667 0 205.333 -20.5 266 -61.5s91 -100.167 91 -177.5c0 -51.333 -14.333 -96.333 -43 -135
c-28 -37.333 -68.333 -65.333 -121 -84l178 -355h-279l-145 312h-25v-312h-256v813h334zM1452 743c0 82 -14.999 158.668 -44.999 230.001c-32.667 74.667 -75.667 138.667 -129 192c-55.333 56 -120.333 99.667 -195 131c-68.667 30 -145 45 -229 45
c-82.667 0 -159 -14.333 -229 -43c-72.667 -30 -136.334 -73 -191.001 -129c-58 -60 -102.333 -125.333 -133 -196c-30 -71.333 -45 -148 -45 -230c0 -81.333 15 -157 45 -227c32 -74 75.5 -138.667 130.5 -194s120.167 -99.333 195.5 -132
c70.667 -30 146.334 -45 227.001 -45c79.333 0 155.666 15 228.999 45c72 30.667 137.667 75.334 197 134.001c57.333 55.333 100.333 118.666 129 189.999s43 147.666 43 228.999zM852.001 1493c104 0 201.669 -18.3311 293.002 -54.998c92.667 -39.333 174 -94 244 -164
c67.333 -68 121 -149.333 161 -244c37.333 -92.667 56 -189 56 -289c0 -101.333 -18.667 -197.5 -56 -288.5s-91 -170.167 -161 -237.5c-72.667 -70.667 -156 -126 -250 -166c-92.667 -39.333 -188.334 -59 -287.001 -59c-102 0 -197 19 -285 57
c-92 40 -173 95.333 -243 166c-73.333 73.333 -128 154.666 -164 243.999c-38.667 89.333 -58 184 -58 284c0 101.333 19.333 197.666 58 288.999s94 174 166 248c66 68.667 145 122 237 160c89.333 36.667 185.666 55 288.999 55z" />
    <glyph glyph-name="macron" unicode="&#xaf;" horiz-adv-x="1024" 
d="M205 1272v182h614v-182h-614z" />
    <glyph glyph-name="ring" unicode="&#xb0;" horiz-adv-x="1024" 
d="M397 1423c0 -31.333 11 -58.668 33 -82.001c22 -21.333 49.333 -32 82 -32c30.667 0 58 11.333 82 34c22 22.667 33 49.334 33 80.001c0 32.667 -11 60 -33 82s-49.333 33 -82 33s-60 -11 -82 -33s-33 -49.333 -33 -82zM242 1423c0 75.333 25.668 139.667 77.001 193
c53.333 52 117.666 78 192.999 78s139.5 -26.167 192.5 -78.5s79.5 -116.5 79.5 -192.5c0 -75.333 -26.333 -139.333 -79 -192c-52 -53.333 -116.333 -80 -193 -80s-141 26.667 -193 80c-51.333 51.333 -77 115.333 -77 192z" />
    <glyph glyph-name="plusminus" unicode="&#xb1;" horiz-adv-x="1735" 
d="M868 453c74 0 133.667 25 179 75c44.667 51.333 67 118.333 67 201c0 84.667 -22.333 152.334 -67 203.001c-46 50.667 -105.667 76 -179 76s-133.333 -25.333 -180 -76c-44.667 -50.667 -67 -118.334 -67 -203.001c0 -82.667 22.333 -149.667 67 -201
c46 -50 106 -75 180 -75zM1651 729v2.00195c0 -108 -19.333 -207.667 -58 -299c-40 -94.667 -95.333 -177.334 -166 -248.001c-72 -70 -156.333 -124.667 -253 -164c-96.667 -38 -198.667 -57 -306 -57c-108.667 0 -211 19 -307 57c-93.333 38 -178 93.333 -254 166
c-73.333 74 -128.666 155.333 -165.999 244c-36.667 91.333 -55 191.666 -55 300.999s18.333 209.666 55 300.999c38.667 90.667 94 172.667 166 246c73.333 71.333 157.333 126.666 252 165.999c95.333 36.667 198.333 55 309 55c109.333 0 212 -18.333 308 -55
c95.333 -38.667 180 -94 254 -166c38 -34.667 69.333 -73 94 -115c28 2.66699 48.667 17.334 62 44.001s22 62.5 26 107.5s6 103.833 6 176.5h160c0 -106 -7.33301 -188.5 -22 -247.5s-36.834 -101.5 -66.501 -127.5s-68.5 -41.667 -116.5 -47
c52 -101.333 78 -214.666 78 -339.999z" />
    <glyph glyph-name="twosuperior" unicode="&#xb2;" horiz-adv-x="926" 
d="M23 575l430.001 467.001c18.667 21.333 33.667 41.333 45 60c6.66699 13.333 10 26.333 10 39c0 15.333 -5.33301 29 -16 41c-10 9.33301 -24.333 14 -43 14c-22.667 0 -39.334 -8.33301 -50.001 -25c-9.33301 -14.667 -14 -40.334 -14 -77.001h-322v10
c0 112.667 35 200.667 105 264c68.667 62.667 165 94 289 94c120 0 214.667 -29.333 284 -88c71.333 -58.667 107 -135.667 107 -231c0 -51.333 -12.333 -96.333 -37 -135c-28 -44.667 -70.333 -87.667 -127 -129l-82 -62h244v-242h-823z" />
    <glyph glyph-name="threesuperior" unicode="&#xb3;" horiz-adv-x="926" 
d="M418 1120l13.999 -0.000976562c32 0 54.667 5 68 15c14.667 10.667 22 25.667 22 45c0 14.667 -4.66699 26.834 -14 36.501s-23 14.5 -41 14.5c-16.667 0 -29 -5.66699 -37 -17c-9.33301 -9.33301 -14 -24.333 -14 -45h-318c2 95.333 35 167.666 99 216.999
c61.333 50.667 154 76 278 76c111.333 0 199.333 -22.333 264 -67c66 -44.667 99 -104 99 -178c0 -44.667 -11 -81.667 -33 -111c-23.333 -29.333 -58.333 -51.333 -105 -66c58.667 -12 101.667 -35 129 -69c30 -34 45 -79 45 -135c0 -85.333 -36 -153.666 -108 -204.999
c-73.333 -52 -170.333 -78 -291 -78c-131.333 0 -233.666 29.333 -306.999 88c-75.333 58.667 -113 140 -113 244v2h332c2 -30 9 -52.667 21 -68c12.667 -14.667 30.334 -22 53.001 -22c23.333 0 41.666 6.66699 54.999 20c14 12 21 29 21 51s-8.33301 40.667 -25 56
c-16 12 -39.333 18 -70 18h-24v178z" />
    <glyph glyph-name="acute" unicode="&#xb4;" horiz-adv-x="1024" 
d="M809 1522l-311 -351h-166l180 351h297z" />
    <glyph glyph-name="mu" unicode="&#xb5;" horiz-adv-x="1372" 
d="M602 1087l-83.999 -614c-0.666992 -3.33301 -1.16699 -7.33301 -1.5 -12s-0.666016 -9 -0.999023 -13s-0.833008 -6.66699 -1.5 -8v-20c0 -45.333 11 -79 33 -101c19.333 -21.333 50.666 -32 93.999 -32c52 0 93.667 17.667 125 53c29.333 32.667 49 86 59 160l84 587
h418l-158 -1087h-368l18 131c-24 -44.667 -51.333 -78 -82 -100c-30.667 -23.333 -66 -35 -106 -35c-42 0 -77 11 -105 33c-28.667 19.333 -52.334 50 -71.001 92l-72 -543h-412l209 1509h422z" />
    <glyph glyph-name="paragraph" unicode="&#xb6;" horiz-adv-x="1024" 
d="M1014 1337l-100.999 0.000976562v-1337h-202v1337h-140v-1337h-202v784c-110.667 7.33301 -197.334 41.666 -260.001 102.999c-66 62.667 -99 143.667 -99 243c0 105.333 35.667 189.333 107 252c72 64.667 166 97 282 97h615v-142z" />
    <glyph glyph-name="periodcentered" unicode="&#xb7;" horiz-adv-x="1602" 
d="M121 670l-0.00390625 792.002h526v-798c0 -94 11 -157.667 33 -191c22 -35.333 59.667 -53 113 -53c52.667 0 90 17.667 112 53c23.333 37.333 35 101 35 191v798h526v-327c34.667 14 58.334 46.167 71.001 96.5s19 125.833 19 226.5h160
c-4 -107.333 -15.667 -190 -35 -248s-46.166 -99.333 -80.499 -124s-79.166 -41.334 -134.499 -50.001v-366c0 -106.667 -6.66699 -192 -20 -256c-14.667 -70.667 -36.667 -127.334 -66 -170.001c-59.333 -92 -139 -161.667 -239 -209c-104 -49.333 -220 -74 -348 -74
c-128.667 0 -245 24.667 -349 74c-100 47.333 -179.667 117 -239 209c-27.333 42.667 -48.666 98.667 -63.999 168c-13.333 64 -20 150 -20 258z" />
    <glyph glyph-name="periodcentered" unicode="&#x2219;" horiz-adv-x="1602" 
d="M121 670l-0.00390625 792.002h526v-798c0 -94 11 -157.667 33 -191c22 -35.333 59.667 -53 113 -53c52.667 0 90 17.667 112 53c23.333 37.333 35 101 35 191v798h526v-327c34.667 14 58.334 46.167 71.001 96.5s19 125.833 19 226.5h160
c-4 -107.333 -15.667 -190 -35 -248s-46.166 -99.333 -80.499 -124s-79.166 -41.334 -134.499 -50.001v-366c0 -106.667 -6.66699 -192 -20 -256c-14.667 -70.667 -36.667 -127.334 -66 -170.001c-59.333 -92 -139 -161.667 -239 -209c-104 -49.333 -220 -74 -348 -74
c-128.667 0 -245 24.667 -349 74c-100 47.333 -179.667 117 -239 209c-27.333 42.667 -48.666 98.667 -63.999 168c-13.333 64 -20 150 -20 258z" />
    <glyph glyph-name="cedilla" unicode="&#xb8;" horiz-adv-x="1024" 
d="M238 -440l-0.00195312 140.999c50.667 -14 99.667 -25 147 -33c50 -6.66699 88.333 -10 115 -10s46.334 5.33301 59.001 16c14 12.667 21 30 21 52c0 18.667 -8.33301 33.667 -25 45c-16.667 9.33301 -47.334 14 -92.001 14h-25c-6.66699 -1.33301 -15.334 -2 -26.001 -2
v217h123v-84h18c74.667 0 131.334 -16.333 170.001 -49c39.333 -33.333 59 -81 59 -143c0 -67.333 -21.667 -118.666 -65 -153.999c-44.667 -36.667 -107.667 -55 -189 -55c-41.333 0 -85.666 4 -132.999 12c-43.333 5.33301 -95.666 16.333 -156.999 33z" />
    <glyph glyph-name="onesuperior" unicode="&#xb9;" horiz-adv-x="926" 
d="M330 1180h-144v266h492v-871h-348v605z" />
    <glyph glyph-name="degree" unicode="&#xba;" horiz-adv-x="674" 
d="M489 1151c0 41.333 -15 76.667 -45 106c-30 30.667 -66 46 -108 46c-39.333 0 -75 -14.333 -107 -43c-28.667 -32 -43 -68.333 -43 -109s14.333 -77 43 -109c30.667 -30 67 -45 109 -45c40.667 0 76 15 106 45s45 66.333 45 109zM338 1473
c88.667 0 164.333 -31.667 227 -95c62.667 -62 94 -138.333 94 -229c0 -89.333 -31.333 -165 -94 -227c-62.667 -63.333 -139 -95 -229 -95c-88.667 0 -164.334 31.667 -227.001 95c-63.333 60.667 -95 136.334 -95 227.001c0 89.333 32.333 165.666 97 228.999
c62.667 63.333 138.334 95 227.001 95z" />
    <glyph glyph-name="guillemotright" unicode="&#xbb;" horiz-adv-x="1063" 
d="M698 80l-190 133l215 301l-217 301l192 133l297 -434zM260 80l-192 133l217 301l-219 301l194 133l297 -434z" />
    <glyph glyph-name="onequarter" unicode="&#xbc;" horiz-adv-x="2109" 
d="M1665 0v164h-395v213l346 442h364v-442h99v-213h-99v-164h-315zM1556 377h134.001v112c0 32 0.666992 52 2 60s2.16602 14 2.49902 18s0.833008 8.33301 1.5 13c-6.66699 -13.333 -15.667 -30 -27 -50c-8 -13.333 -20.333 -30.333 -37 -51zM543.001 -39l813 1518h211
l-817 -1518h-207zM315.001 1196h-139v248h471v-811h-332v563z" />
    <glyph glyph-name="onehalf" unicode="&#xbd;" horiz-adv-x="1389" 
d="M678 664c-38 0 -68.6699 -13.666 -92.0029 -40.999c-24.667 -26.667 -37 -63 -37 -109c0 -45.333 12.333 -82.333 37 -111c22.667 -28.667 53.334 -43 92.001 -43s69.334 14.333 92.001 43c24.667 28.667 37 65.667 37 111s-11.667 81.666 -35 108.999
c-25.333 27.333 -56.666 41 -93.999 41zM1286 1550v-207.001h135v-110h-135v-1237h-469v151c-44.667 -65.333 -93.667 -113 -147 -143c-56.667 -31.333 -119 -47 -187 -47c-124 0 -225 51.333 -303 154c-76 100 -114 235 -114 405c0 79.333 10 152.5 30 219.5
s49.333 124.833 88 173.5c78 101.333 177.667 152 299 152c66.667 0 125.334 -14.333 176.001 -43c53.333 -30.667 100.666 -75.667 141.999 -135c-2 20 -4 45 -6 75c-2.66699 38.667 -4 74.334 -4 107.001v172h-379v111h379l2 202h493z" />
    <glyph glyph-name="threequarters" unicode="&#xbe;" horiz-adv-x="2109" 
d="M1665 0v164h-395v213l346 442h364v-442h99v-213h-99v-164h-315zM1556 377h134.001v112c0 32 0.666992 52 2 60s2.16602 14 2.49902 18s0.833008 8.33301 1.5 13c-6.66699 -13.333 -15.667 -30 -27 -50c-8 -13.333 -20.333 -30.333 -37 -51zM543.001 -39l813 1518h211
l-817 -1518h-207zM399.001 1141l15.001 -0.000976562c28.667 0 49.667 4.66699 63 14c14 9.33301 21 23.666 21 42.999c0 14 -5 25.667 -15 35c-10 8 -22.333 12 -37 12c-16.667 0 -28.667 -4.66699 -36 -14c-8.66699 -9.33301 -13 -23.666 -13 -42.999h-305
c2 89.333 34 157 96 203c60.667 46 149.667 69 267 69c105.333 0 189.333 -21.167 252 -63.5s94 -97.5 94 -165.5c0 -42.667 -11 -77 -33 -103c-24 -27.333 -57.333 -47.666 -100 -60.999c53.333 -9.33301 95 -31.333 125 -66c28.667 -32.667 43 -75 43 -127
c0 -78.667 -35 -142.667 -105 -192c-68.667 -48 -161.334 -72 -278.001 -72c-61.333 0 -116.5 6.83301 -165.5 20.5s-91.5 34.167 -127.5 61.5c-71.333 55.333 -107 132 -107 230v2h318c0 -26 6 -46.667 18 -62c10.667 -14.667 27.667 -22 51 -22
c19.333 0 36.666 6 51.999 18c13.333 11.333 20 27 20 47c0 22 -7.66699 39 -23 51c-13.333 12.667 -35.666 19 -66.999 19h-23v166z" />
    <glyph glyph-name="questiondown" unicode="&#xbf;" horiz-adv-x="1247" 
d="M969 1286c0 -64.667 -27.333 -119.334 -82 -164.001c-54.667 -46 -122.334 -69 -203.001 -69s-148.334 23 -203.001 69c-54.667 46.667 -82 101.334 -82 164.001c0 64.667 27.333 119.334 82 164.001c56.667 45.333 124.334 68 203.001 68s146.334 -22.667 203.001 -68
c54.667 -44.667 82 -99.334 82 -164.001zM844 965l0.00292969 -378.999c-31.333 9.33301 -52.666 14.666 -63.999 15.999c-24 2.66699 -39.667 4 -47 4c-50.667 0 -89 -13 -115 -39c-28.667 -24.667 -43 -58.667 -43 -102c0 -31.333 7.66699 -57.333 23 -78
c16 -18 38 -27 66 -27c29.333 0 51.666 9.66699 66.999 29c14.667 22 23 52.667 25 92h504c-4 -52.667 -13 -101.834 -27 -147.501s-33.833 -88.167 -59.5 -127.5s-55.834 -74 -90.501 -104c-106 -94 -245 -141 -417 -141c-174.667 0 -315.334 50 -422.001 150
c-37.333 34 -67.833 70.667 -91.5 110s-41.334 81.833 -53.001 127.5s-17.5 94.834 -17.5 147.501c0 145.333 53.333 262 160 350c104.667 88.667 243.667 133 417 133c37.333 0 66 -0.666992 86 -2c30.667 -2 63.667 -6 99 -12z" />
    <glyph glyph-name="Agrave" unicode="&#xc0;" horiz-adv-x="1507" 
d="M641 532h219l-45 166c-22.667 86 -37.667 151 -45 195c-7.33301 39.333 -12 81.666 -14 126.999h-11c-2 -45.333 -6.66699 -87.666 -14 -126.999c-9.33301 -54 -24.333 -119 -45 -195zM-57 0l522 1464h586l512 -1464h-566l-47 184h-397l-45 -184h-565zM526 1829h222
l135 -262h-123z" />
    <glyph glyph-name="Aacute" unicode="&#xc1;" horiz-adv-x="1507" 
d="M641 532h219l-45 166c-22.667 86 -37.667 151 -45 195c-7.33301 39.333 -12 81.666 -14 126.999h-11c-2 -45.333 -6.66699 -87.666 -14 -126.999c-9.33301 -54 -24.333 -119 -45 -195zM-57 0l522 1464h586l512 -1464h-566l-47 184h-397l-45 -184h-565zM1018 1829
l-234 -262h-122l135 262h221z" />
    <glyph glyph-name="Acircumflex" unicode="&#xc2;" horiz-adv-x="1507" 
d="M641 532h219l-45 166c-22.667 86 -37.667 151 -45 195c-7.33301 39.333 -12 81.666 -14 126.999h-11c-2 -45.333 -6.66699 -87.666 -14 -126.999c-9.33301 -54 -24.333 -119 -45 -195zM-57 0l522 1464h586l512 -1464h-566l-47 184h-397l-45 -184h-565zM485 1526l146 262
h219l145 -262h-123l-131 127l-133 -127h-123z" />
    <glyph glyph-name="Atilde" unicode="&#xc3;" horiz-adv-x="1507" 
d="M641 532h219l-45 166c-22.667 86 -37.667 151 -45 195c-7.33301 39.333 -12 81.666 -14 126.999h-11c-2 -45.333 -6.66699 -87.666 -14 -126.999c-9.33301 -54 -24.333 -119 -45 -195zM-57 0l522 1464h586l512 -1464h-566l-47 184h-397l-45 -184h-565zM1001 1786
l-1.99805 0.000976562c-14.667 -68 -33.834 -116.833 -57.501 -146.5s-56.834 -44.5 -99.501 -44.5h-25c-4 0 -12.667 1.33301 -26 4l-68 19c-6.66699 1.33301 -15.667 2 -27 2h-18c-16 0 -29 -4 -39 -12c-9.33301 -8.66699 -17.666 -22.334 -24.999 -41.001h-88
c13.333 61.333 32 107 56 137c24 28.667 56.667 43 98 43h31c6.66699 0 18 -1.33301 34 -4l70 -19h19h18c14.667 0 27.667 5.66699 39 17s18.666 26.333 21.999 45h88z" />
    <glyph glyph-name="Adieresis" unicode="&#xc4;" horiz-adv-x="1507" 
d="M641 532h219l-45 166c-22.667 86 -37.667 151 -45 195c-7.33301 39.333 -12 81.666 -14 126.999h-11c-2 -45.333 -6.66699 -87.666 -14 -126.999c-9.33301 -54 -24.333 -119 -45 -195zM-57 0l522 1464h586l512 -1464h-566l-47 184h-397l-45 -184h-565zM772 1720
l-2 -0.00195312c0 34.667 13 64.667 39 90c26 26 56.667 39 92 39c37.333 0 68 -12.333 92 -37c24.667 -24 37 -54.667 37 -92s-11.667 -68.666 -35 -93.999c-25.333 -23.333 -56 -35 -92 -35c-34.667 0 -66 12.333 -94 37c-24.667 24.667 -37 55.334 -37 92.001zM420 1720
l-2 -0.000976562c0 34.667 13 64.667 39 90c25.333 26 56 39 92 39c36.667 0 67.334 -12.333 92.001 -37c24.667 -24 37 -54.667 37 -92s-11.667 -68.666 -35 -93.999c-23.333 -23.333 -54 -35 -92 -35c-36.667 0 -67.334 12.333 -92.001 37c-26 24 -39 54.667 -39 92z" />
    <glyph glyph-name="Aring" unicode="&#xc5;" horiz-adv-x="1507" 
d="M641 532h219l-45 166c-22.667 86 -37.667 151 -45 195c-7.33301 39.333 -12 81.666 -14 126.999h-11c-2 -45.333 -6.66699 -87.666 -14 -126.999c-9.33301 -54 -24.333 -119 -45 -195zM-57 0l522 1464h586l512 -1464h-566l-47 184h-397l-45 -184h-565zM680 1782h2
c0 -24.667 8.33301 -45.334 25 -62.001c16 -16 36.333 -24 61 -24c26 0 47 8 63 24c16.667 16.667 25 37.334 25 62.001c0 26 -8.33301 47 -25 63c-16 16.667 -37 25 -63 25s-47 -8.33301 -63 -25c-16.667 -16 -25 -37 -25 -63zM559 1782l0.00195312 -1.99902
c0 58 20.667 107.667 62 149s91.666 62 150.999 62c60 0 110.667 -20.667 152 -62c40.667 -40.667 61 -90.334 61 -149.001c0 -59.333 -20.333 -109.333 -61 -150s-91.334 -61 -152.001 -61c-60 0 -110.333 20.333 -151 61c-41.333 41.333 -62 92 -62 152z" />
    <glyph glyph-name="AE" unicode="&#xc6;" 
d="M-492 2079l-233 -262h-123l135 262h221z" />
    <glyph glyph-name="Ccedilla" unicode="&#xc7;" horiz-adv-x="1309" 
d="M1214 883c-45.333 45.333 -94.3359 79.332 -147.003 101.999c-52 23.333 -104.667 35 -158 35c-86 0 -155 -26.667 -207 -80c-52.667 -52.667 -79 -123 -79 -211s25 -157.167 75 -207.5s117 -75.5 201 -75.5c50 0 102 11 156 33c56 25.333 112.667 59.666 170 102.999
l-17 -551c-61.333 -24.667 -118.666 -41.667 -171.999 -51c-55.333 -12.667 -112.666 -19 -171.999 -19c-71.333 0 -140.333 8.33301 -207 25c-64 14 -123.333 36.333 -178 67c-130 76.667 -227.667 171 -293 283c-66.667 114.667 -100 245.667 -100 393
c0 112.667 19 213.667 57 303c36 90.667 90.667 173.334 164 248.001c72.667 72.667 156.667 127.334 252 164.001s199 55 311 55c58 0 117 -6 177 -18c58.667 -13.333 114.334 -32 167.001 -56v-542zM558.997 -418.001l-12.002 125.001
c39.333 -10.667 82.333 -19.334 129 -26.001c36.667 -4.66699 70 -7 100 -7c24.667 0 41.667 4.33301 51 13c11.333 8.66699 17 23 17 43c0 17.333 -7 30.333 -21 39c-13.333 6.66699 -40 10 -80 10h-18h-20v194h110v-73h16c65.333 0 115.833 -14.5 151.5 -43.5
s53.5 -70.5 53.5 -124.5c0 -60 -18.333 -105 -55 -135c-39.333 -33.333 -94.666 -50 -165.999 -50c-42.667 0 -81.667 3 -117 9c-35.333 3.33301 -81.666 12 -138.999 26z" />
    <glyph glyph-name="Egrave" unicode="&#xc8;" horiz-adv-x="1204" 
d="M137 0v1464h979v-397h-463v-141h420v-375h-420v-154h475v-397h-991zM375 1829h221l135 -262h-123z" />
    <glyph glyph-name="Eacute" unicode="&#xc9;" horiz-adv-x="1204" 
d="M137 0v1464h979v-397h-463v-141h420v-375h-420v-154h475v-397h-991zM907 1839l-233 -262h-123l135 262h221z" />
    <glyph glyph-name="Ecircumflex" unicode="&#xca;" horiz-adv-x="1204" 
d="M137 0v1464h979v-397h-463v-141h420v-375h-420v-154h475v-397h-991zM362 1536l146 262h219l145 -262h-122l-132 127l-133 -127h-123z" />
    <glyph glyph-name="Edieresis" unicode="&#xcb;" horiz-adv-x="1204" 
d="M137 0v1464h979v-397h-463v-141h420v-375h-420v-154h475v-397h-991zM690 1720l-2 -0.00195312c0 34.667 13 64.667 39 90c26 26 56.667 39 92 39c37.333 0 68 -12.333 92 -37c24.667 -24 37 -54.667 37 -92s-11.667 -68.666 -35 -93.999c-25.333 -23.333 -56 -35 -92 -35
c-34.667 0 -66 12.333 -94 37c-24.667 24.667 -37 55.334 -37 92.001zM338 1720l-1.99902 -0.000976562c0 34.667 13 64.667 39 90c25.333 26 56 39 92 39c37.333 0 68 -12.333 92 -37c24.667 -24 37 -54.667 37 -92s-11.667 -68.666 -35 -93.999
c-23.333 -23.333 -54 -35 -92 -35c-36.667 0 -67.334 12.333 -92.001 37c-26 24 -39 54.667 -39 92z" />
    <glyph glyph-name="Igrave" unicode="&#xcc;" horiz-adv-x="829" 
d="M147 0v1464h535v-1464h-535zM197 1839h221l135 -262h-123z" />
    <glyph glyph-name="Iacute" unicode="&#xcd;" horiz-adv-x="829" 
d="M147 0v1464h535v-1464h-535zM596 1860l-234 -263h-122l135 263h221z" />
    <glyph glyph-name="Icircumflex" unicode="&#xce;" horiz-adv-x="829" 
d="M147 0v1464h535v-1464h-535zM158 1567l145 262h219l146 -262h-123l-131 127l-133 -127h-123z" />
    <glyph glyph-name="Idieresis" unicode="&#xcf;" horiz-adv-x="829" 
d="M147 0v1464h535v-1464h-535zM475 1720l-2 -0.00195312c0 34.667 13 64.667 39 90c26 26 56.667 39 92 39c37.333 0 68 -12.333 92 -37c24.667 -24 37 -54.667 37 -92s-11.667 -68.666 -35 -93.999c-25.333 -23.333 -56 -35 -92 -35c-34.667 0 -66 12.333 -94 37
c-24.667 24.667 -37 55.334 -37 92.001zM123 1720l-2 -0.000976562c0 34.667 13 64.667 39 90c25.333 26 56 39 92 39c36.667 0 67.334 -12.333 92.001 -37c24.667 -24 37 -54.667 37 -92s-11.667 -68.666 -35 -93.999c-23.333 -23.333 -54 -35 -92 -35
c-36.667 0 -67.334 12.333 -92.001 37c-26 24 -39 54.667 -39 92z" />
    <glyph glyph-name="Eth" unicode="&#xd0;" horiz-adv-x="1647" 
d="M651 408c7.33301 -1.33301 16.333 -2 27 -2h33c114.667 0 202.667 28.667 264 86c60 56 90 137 90 243c0 105.333 -30 186 -90 242c-61.333 54.667 -150 82 -266 82h-33c-11.333 0 -19 -0.666992 -23 -2l-2 -154h209v-319h-209v-176zM166 0v571h-166v344h166v549h426
c67.333 0 128.166 -1.66699 182.499 -5s108.833 -9 163.5 -17c94.667 -14.667 172.334 -38 233.001 -70c62.667 -32 119.167 -70.833 169.5 -116.5s91.5 -94.834 123.5 -147.501c67.333 -110 101 -235.667 101 -377c0 -142 -33.667 -267.167 -101 -375.5
s-165 -196.166 -293 -263.499c-58.667 -32 -137 -55 -235 -69c-52 -7.33301 -109.167 -13 -171.5 -17s-133.5 -6 -213.5 -6h-385z" />
    <glyph glyph-name="Ntilde" unicode="&#xd1;" horiz-adv-x="1731" 
d="M137 0v1464h516l455 -766c-6 35.333 -10 73 -12 113c-2.66699 54.667 -4 108.667 -4 162v491h507v-1464h-520l-450 760c6 -32.667 10 -67.667 12 -105c2.66699 -52 4 -94.333 4 -127v-528h-508zM1151 1812h-1.99805c-14 -66 -33 -114.333 -57 -145
c-24 -30 -57.667 -45 -101 -45h-24c-4.66699 0 -13.667 1.33301 -27 4l-68 19c-6.66699 1.33301 -15.334 2 -26.001 2h-19c-14 0 -27 -4.33301 -39 -13c-10 -8 -18 -21.667 -24 -41h-88c11.333 59.333 29.666 105.333 54.999 138c25.333 28.667 58 43 98 43h31
c10 0 21.667 -1.66699 35 -5l70 -18h18h18c15.333 0 28.333 5.33301 39 16c11.333 11.333 19 26.333 23 45h88z" />
    <glyph glyph-name="Ograve" unicode="&#xd2;" horiz-adv-x="1735" 
d="M868 453c74 0 133.667 25 179 75c44.667 51.333 67 118.333 67 201c0 84.667 -22.333 152.334 -67 203.001c-46 50.667 -105.667 76 -179 76s-133.333 -25.333 -180 -76c-44.667 -50.667 -67 -118.334 -67 -203.001c0 -82.667 22.333 -149.667 67 -201
c46 -50 106 -75 180 -75zM1651 729c0 -108 -19.334 -207.663 -58.001 -298.996c-40 -94.667 -95.333 -177.334 -166 -248.001c-72 -70 -156.333 -124.667 -253 -164c-96.667 -38 -198.667 -57 -306 -57c-108.667 0 -211 19 -307 57c-93.333 38 -178 93.333 -254 166
c-73.333 74 -128.666 155.333 -165.999 244c-36.667 91.333 -55 191.666 -55 300.999s18.333 209.666 55 300.999c38.667 90.667 94 172.667 166 246c73.333 71.333 157.333 126.666 252 165.999c95.333 36.667 198.333 55 309 55c109.333 0 212 -18.333 308 -55
c95.333 -38.667 180 -94 254 -166c70.667 -72 125.667 -154 165 -246c37.333 -92.667 56 -193 56 -301zM640.999 1862h221l135 -263h-123z" />
    <glyph glyph-name="Oacute" unicode="&#xd3;" horiz-adv-x="1735" 
d="M868 453c74 0 133.667 25 179 75c44.667 51.333 67 118.333 67 201c0 84.667 -22.333 152.334 -67 203.001c-46 50.667 -105.667 76 -179 76s-133.333 -25.333 -180 -76c-44.667 -50.667 -67 -118.334 -67 -203.001c0 -82.667 22.333 -149.667 67 -201
c46 -50 106 -75 180 -75zM1651 729c0 -108 -19.334 -207.663 -58.001 -298.996c-40 -94.667 -95.333 -177.334 -166 -248.001c-72 -70 -156.333 -124.667 -253 -164c-96.667 -38 -198.667 -57 -306 -57c-108.667 0 -211 19 -307 57c-93.333 38 -178 93.333 -254 166
c-73.333 74 -128.666 155.333 -165.999 244c-36.667 91.333 -55 191.666 -55 300.999s18.333 209.666 55 300.999c38.667 90.667 94 172.667 166 246c73.333 71.333 157.333 126.666 252 165.999c95.333 36.667 198.333 55 309 55c109.333 0 212 -18.333 308 -55
c95.333 -38.667 180 -94 254 -166c70.667 -72 125.667 -154 165 -246c37.333 -92.667 56 -193 56 -301zM1163 1862l-233 -263h-123l135 263h221z" />
    <glyph glyph-name="Ocircumflex" unicode="&#xd4;" horiz-adv-x="1735" 
d="M868 453c74 0 133.667 25 179 75c44.667 51.333 67 118.333 67 201c0 84.667 -22.333 152.334 -67 203.001c-46 50.667 -105.667 76 -179 76s-133.333 -25.333 -180 -76c-44.667 -50.667 -67 -118.334 -67 -203.001c0 -82.667 22.333 -149.667 67 -201
c46 -50 106 -75 180 -75zM1651 729c0 -108 -19.334 -207.663 -58.001 -298.996c-40 -94.667 -95.333 -177.334 -166 -248.001c-72 -70 -156.333 -124.667 -253 -164c-96.667 -38 -198.667 -57 -306 -57c-108.667 0 -211 19 -307 57c-93.333 38 -178 93.333 -254 166
c-73.333 74 -128.666 155.333 -165.999 244c-36.667 91.333 -55 191.666 -55 300.999s18.333 209.666 55 300.999c38.667 90.667 94 172.667 166 246c73.333 71.333 157.333 126.666 252 165.999c95.333 36.667 198.333 55 309 55c109.333 0 212 -18.333 308 -55
c95.333 -38.667 180 -94 254 -166c70.667 -72 125.667 -154 165 -246c37.333 -92.667 56 -193 56 -301zM595.999 1548l145 262h220l145 -262h-123l-131 127l-133 -127h-123z" />
    <glyph glyph-name="Otilde" unicode="&#xd5;" horiz-adv-x="1735" 
d="M868 453c74 0 133.667 25 179 75c44.667 51.333 67 118.333 67 201c0 84.667 -22.333 152.334 -67 203.001c-46 50.667 -105.667 76 -179 76s-133.333 -25.333 -180 -76c-44.667 -50.667 -67 -118.334 -67 -203.001c0 -82.667 22.333 -149.667 67 -201
c46 -50 106 -75 180 -75zM1651 729c0 -108 -19.334 -207.663 -58.001 -298.996c-40 -94.667 -95.333 -177.334 -166 -248.001c-72 -70 -156.333 -124.667 -253 -164c-96.667 -38 -198.667 -57 -306 -57c-108.667 0 -211 19 -307 57c-93.333 38 -178 93.333 -254 166
c-73.333 74 -128.666 155.333 -165.999 244c-36.667 91.333 -55 191.666 -55 300.999s18.333 209.666 55 300.999c38.667 90.667 94 172.667 166 246c73.333 71.333 157.333 126.666 252 165.999c95.333 36.667 198.333 55 309 55c109.333 0 212 -18.333 308 -55
c95.333 -38.667 180 -94 254 -166c70.667 -72 125.667 -154 165 -246c37.333 -92.667 56 -193 56 -301zM1106 1819l-1.99805 0.000976562c-14 -66.667 -33 -115.334 -57 -146.001c-24 -30 -57.667 -45 -101 -45h-24c-4.66699 0 -13.667 1.33301 -27 4l-68 19
c-6.66699 1.33301 -15.334 2 -26.001 2h-19c-15.333 0 -28.333 -4.33301 -39 -13c-10 -8 -18 -21.667 -24 -41h-88c11.333 59.333 29.666 105.333 54.999 138c25.333 28.667 58 43 98 43h31c7.33301 0 19 -1.33301 35 -4l70 -19h18h18c16 0 29 5.66699 39 17
c11.333 10.667 19 25.667 23 45h88z" />
    <glyph glyph-name="Odieresis" unicode="&#xd6;" horiz-adv-x="1735" 
d="M868 453c74 0 133.667 25 179 75c44.667 51.333 67 118.333 67 201c0 84.667 -22.333 152.334 -67 203.001c-46 50.667 -105.667 76 -179 76s-133.333 -25.333 -180 -76c-44.667 -50.667 -67 -118.334 -67 -203.001c0 -82.667 22.333 -149.667 67 -201
c46 -50 106 -75 180 -75zM1651 729c0 -108 -19.334 -207.663 -58.001 -298.996c-40 -94.667 -95.333 -177.334 -166 -248.001c-72 -70 -156.333 -124.667 -253 -164c-96.667 -38 -198.667 -57 -306 -57c-108.667 0 -211 19 -307 57c-93.333 38 -178 93.333 -254 166
c-73.333 74 -128.666 155.333 -165.999 244c-36.667 91.333 -55 191.666 -55 300.999s18.333 209.666 55 300.999c38.667 90.667 94 172.667 166 246c73.333 71.333 157.333 126.666 252 165.999c95.333 36.667 198.333 55 309 55c109.333 0 212 -18.333 308 -55
c95.333 -38.667 180 -94 254 -166c70.667 -72 125.667 -154 165 -246c37.333 -92.667 56 -193 56 -301zM892.999 1733l-2 0.000976562c0 34 13 64 39 90s56.667 39 92 39c36.667 0 67.334 -12.333 92.001 -37s37 -55.334 37 -92.001c0 -38 -11.667 -69.667 -35 -95
c-24.667 -22.667 -55.334 -34 -92.001 -34s-68 12 -94 36c-24.667 24.667 -37 55.667 -37 93zM540.999 1733l-2 0.000976562c0 34 13 64 39 90s56.667 39 92 39s66 -12.333 92 -37c24.667 -26 37 -56.667 37 -92c0 -36.667 -11.667 -68.334 -35 -95.001
c-24 -22.667 -54.667 -34 -92 -34s-68 12 -92 36c-26 24 -39 55 -39 93z" />
    <glyph glyph-name="multiply" unicode="&#xd7;" horiz-adv-x="1389" 
d="M549 520c0 -45.333 12.332 -80.666 36.999 -105.999c22 -27.333 52.667 -41 92 -41c40.667 0 72 13.667 94 41c23.333 26.667 35 62 35 106c0 45.333 -11.667 81.666 -35 108.999c-25.333 27.333 -56.666 41 -93.999 41c-38 0 -68.667 -13.667 -92 -41
c-24.667 -26.667 -37 -63 -37 -109zM822.999 0l-0.00195312 156c-51.333 -68.667 -103.666 -118 -156.999 -148c-56.667 -31.333 -117 -47 -181 -47c-119.333 0 -219 51.333 -299 154c-38.667 48.667 -68 106.5 -88 173.5s-30 140.167 -30 219.5
c0 168.667 38.667 303.667 116 405c76 102.667 176.333 154 301 154c64.667 0 122.667 -13.667 174 -41c52.667 -29.333 101.334 -72.333 146.001 -129v137h481v-1034h-463zM577.997 1354l108 1.99902c2 -35.333 15 -60.666 39 -75.999s58.667 -23 104 -23
s81 8.33301 107 25c23.333 16.667 35 42 35 76h104c-6 -80 -29 -138 -69 -174c-41.333 -37.333 -101 -56 -179 -56c-78.667 0 -138.667 18.667 -180 56c-42 38 -65 94.667 -69 170z" />
    <glyph glyph-name="Oslash" unicode="&#xd8;" horiz-adv-x="1735" 
d="M772 455c12.667 -4.66699 29 -8.33398 49 -11.001c22.667 -2.66699 40.334 -4 53.001 -4c77.333 0 141.666 26.667 192.999 80c48 56 72 127 72 213c0 38.667 -4.33301 71.334 -13 98.001c-8.66699 30.667 -20.667 56.667 -36 78zM965 1008c-20 6 -37.333 10 -52 12
c-12 1.33301 -29 2 -51 2c-80.667 0 -144.667 -26.667 -192 -80c-49.333 -51.333 -74 -121 -74 -209c0 -34 4 -66.667 12 -98c5.33301 -26 17 -53.333 35 -82zM387 -90l-134.999 88l100 143c-89.333 76.667 -155.333 164 -198 262c-45.333 100 -68 209.333 -68 328
c0 111.333 19 211.666 57 300.999c36 90.667 90.667 173.334 164 248.001c70 70 153.333 124 250 162c95.333 36.667 199 55 311 55c64 0 129.667 -7.33301 197 -22c64.667 -16 126 -38.667 184 -68l101 141l125 -88l-95 -139c89.333 -76.667 157 -163.334 203 -260.001
c45.333 -100.667 68 -210.667 68 -330c0 -109.333 -19.333 -209.666 -58 -300.999c-39.333 -92.667 -94.666 -174.667 -165.999 -246c-69.333 -69.333 -153 -124 -251 -164c-96.667 -36.667 -199.334 -55 -308.001 -55c-64.667 0 -129.334 7.66699 -194.001 23
c-65.333 14 -127 35.667 -185 65z" />
    <glyph glyph-name="Ugrave" unicode="&#xd9;" horiz-adv-x="1602" 
d="M121 670l-0.000976562 794.001h526v-798c0 -94 11 -157.667 33 -191c22 -35.333 59.667 -53 113 -53c52.667 0 90 17.667 112 53c23.333 37.333 35 101 35 191v798h526v-794c0 -106.667 -6.66699 -192 -20 -256c-14.667 -70.667 -36.667 -127.334 -66 -170.001
c-59.333 -92 -139 -161.667 -239 -209c-104 -49.333 -220 -74 -348 -74c-128.667 0 -245 24.667 -349 74c-100 47.333 -179.667 117 -239 209c-27.333 42.667 -48.666 98.667 -63.999 168c-13.333 64 -20 150 -20 258zM503.999 1829h221l135 -262h-123z" />
    <glyph glyph-name="Uacute" unicode="&#xda;" horiz-adv-x="1602" 
d="M121 670l-0.000976562 794.001h526v-798c0 -94 11 -157.667 33 -191c22 -35.333 59.667 -53 113 -53c52.667 0 90 17.667 112 53c23.333 37.333 35 101 35 191v798h526v-794c0 -106.667 -6.66699 -192 -20 -256c-14.667 -70.667 -36.667 -127.334 -66 -170.001
c-59.333 -92 -139 -161.667 -239 -209c-104 -49.333 -220 -74 -348 -74c-128.667 0 -245 24.667 -349 74c-100 47.333 -179.667 117 -239 209c-27.333 42.667 -48.666 98.667 -63.999 168c-13.333 64 -20 150 -20 258zM1087 1829l-233 -262h-123l135 262h221z" />
    <glyph glyph-name="Ucircumflex" unicode="&#xdb;" horiz-adv-x="1602" 
d="M121 670l-0.000976562 794.001h526v-798c0 -94 11 -157.667 33 -191c22 -35.333 59.667 -53 113 -53c52.667 0 90 17.667 112 53c23.333 37.333 35 101 35 191v798h526v-794c0 -106.667 -6.66699 -192 -20 -256c-14.667 -70.667 -36.667 -127.334 -66 -170.001
c-59.333 -92 -139 -161.667 -239 -209c-104 -49.333 -220 -74 -348 -74c-128.667 0 -245 24.667 -349 74c-100 47.333 -179.667 117 -239 209c-27.333 42.667 -48.666 98.667 -63.999 168c-13.333 64 -20 150 -20 258zM550.999 1587l145 262h219l146 -262h-123l-131 127
l-133 -127h-123z" />
    <glyph glyph-name="Udieresis" unicode="&#xdc;" horiz-adv-x="1602" 
d="M121 670l-0.000976562 794.001h526v-798c0 -94 11 -157.667 33 -191c22 -35.333 59.667 -53 113 -53c52.667 0 90 17.667 112 53c23.333 37.333 35 101 35 191v798h526v-794c0 -106.667 -6.66699 -192 -20 -256c-14.667 -70.667 -36.667 -127.334 -66 -170.001
c-59.333 -92 -139 -161.667 -239 -209c-104 -49.333 -220 -74 -348 -74c-128.667 0 -245 24.667 -349 74c-100 47.333 -179.667 117 -239 209c-27.333 42.667 -48.666 98.667 -63.999 168c-13.333 64 -20 150 -20 258zM837.999 1710h-2c0 34.667 12.667 64.667 38 90
c26 26 57 39 93 39c36.667 0 67.334 -12.333 92.001 -37s37 -55.334 37 -92.001c0 -37.333 -11.667 -68.666 -35 -93.999c-25.333 -23.333 -56 -35 -92 -35c-36.667 0 -68.334 12.333 -95.001 37c-24 24 -36 54.667 -36 92zM484.999 1710h-1.99902c0 34 13 64 39 90
s56.667 39 92 39c37.333 0 68.333 -12.333 93 -37c24 -24 36 -54.667 36 -92c0 -38 -11.333 -69.333 -34 -94c-23.333 -23.333 -54.333 -35 -93 -35c-36.667 0 -67.334 12.333 -92.001 37c-26 24 -39 54.667 -39 92z" />
    <glyph glyph-name="Yacute" unicode="&#xdd;" horiz-adv-x="1305" 
d="M375 0l0.00195312 646.999l-490 817h600l123 -284c17.333 -42.667 30.333 -79.667 39 -111c1.33301 -2.66699 2.16602 -4.66699 2.49902 -6s0.833008 -2.66602 1.5 -3.99902c5.33301 20 17.666 54 36.999 102c2.66699 5.33301 4.5 9.5 5.5 12.5s1.83301 5.16699 2.5 6.5
l121 284h596l-508 -817v-647h-530zM924.002 1849l-234 -262h-123l135 262h222z" />
    <glyph glyph-name="Thorn" unicode="&#xde;" horiz-adv-x="1450" 
d="M666 866v-240.999h82c50 0 88 10 114 30c27.333 21.333 41 51.333 41 90c0 39.333 -13.667 69.666 -41 90.999c-26 20 -64 30 -114 30h-82zM664 242.001l-0.00195312 -242.001h-527v1464h527v-188h102c220.667 0 382.334 -42.333 485.001 -127
c102.667 -86 154 -222 154 -408c0 -173.333 -45.667 -299.666 -137 -378.999c-93.333 -80 -239.666 -120 -438.999 -120h-165z" />
    <glyph glyph-name="germandbls" unicode="&#xdf;" horiz-adv-x="1432" 
d="M117 0l-0.00195312 1133c0 153.333 49 268 147 344c48.667 37.333 109.834 65.666 183.501 84.999s158.5 29 254.5 29c182.667 0 323.334 -34.667 422.001 -104c98.667 -72 148 -173 148 -303c0 -62.667 -15.667 -118.667 -47 -168
c-32 -48.667 -78.667 -86.334 -140 -113.001c94 -25.333 168 -73.666 222 -144.999c50 -70.667 75 -158 75 -262c0 -166 -51.667 -289.667 -155 -371c-104 -83.333 -260.333 -125 -469 -125h-53l-7 293h11c53.333 0 92 16.333 116 49c24.667 32.667 37 84.667 37 156
c0 88 -11.667 148.667 -35 182c-22 30.667 -64.333 49 -127 55v291c3.33301 -1.33301 8.33301 -2 15 -2h18c40 0 68.667 8.33301 86 25c20.667 16 31 39.667 31 71c0 32.667 -9.66699 58 -29 76c-19.333 19.333 -45.333 29 -78 29c-44 0 -76 -15.667 -96 -47
c-19.333 -35.333 -29 -92.666 -29 -171.999v-1006h-501z" />
    <glyph glyph-name="agrave" unicode="&#xe0;" horiz-adv-x="1389" 
d="M549 520c0 -45.333 12.332 -80.666 36.999 -105.999c22 -27.333 52.667 -41 92 -41c40.667 0 72 13.667 94 41c23.333 26.667 35 62 35 106c0 45.333 -11.667 81.666 -35 108.999c-25.333 27.333 -56.666 41 -93.999 41c-38 0 -68.667 -13.667 -92 -41
c-24.667 -26.667 -37 -63 -37 -109zM822.999 0l-0.00195312 156c-51.333 -68.667 -103.666 -118 -156.999 -148c-56.667 -31.333 -117 -47 -181 -47c-119.333 0 -219 51.333 -299 154c-38.667 48.667 -68 106.5 -88 173.5s-30 140.167 -30 219.5
c0 168.667 38.667 303.667 116 405c76 102.667 176.333 154 301 154c64.667 0 122.667 -13.667 174 -41c52.667 -29.333 101.334 -72.333 146.001 -129v137h481v-1034h-463zM570.997 1432h222l135 -263h-123z" />
    <glyph glyph-name="aacute" unicode="&#xe1;" horiz-adv-x="1389" 
d="M549 520c0 -45.333 12.332 -80.666 36.999 -105.999c22 -27.333 52.667 -41 92 -41c40.667 0 72 13.667 94 41c23.333 26.667 35 62 35 106c0 45.333 -11.667 81.666 -35 108.999c-25.333 27.333 -56.666 41 -93.999 41c-38 0 -68.667 -13.667 -92 -41
c-24.667 -26.667 -37 -63 -37 -109zM822.999 0l-0.00195312 156c-51.333 -68.667 -103.666 -118 -156.999 -148c-56.667 -31.333 -117 -47 -181 -47c-119.333 0 -219 51.333 -299 154c-38.667 48.667 -68 106.5 -88 173.5s-30 140.167 -30 219.5
c0 168.667 38.667 303.667 116 405c76 102.667 176.333 154 301 154c64.667 0 122.667 -13.667 174 -41c52.667 -29.333 101.334 -72.333 146.001 -129v137h481v-1034h-463zM970.997 1432l-234 -263h-123l136 263h221z" />
    <glyph glyph-name="acircumflex" unicode="&#xe2;" horiz-adv-x="1389" 
d="M549 520c0 -45.333 12.332 -80.666 36.999 -105.999c22 -27.333 52.667 -41 92 -41c40.667 0 72 13.667 94 41c23.333 26.667 35 62 35 106c0 45.333 -11.667 81.666 -35 108.999c-25.333 27.333 -56.666 41 -93.999 41c-38 0 -68.667 -13.667 -92 -41
c-24.667 -26.667 -37 -63 -37 -109zM822.999 0l-0.00195312 156c-51.333 -68.667 -103.666 -118 -156.999 -148c-56.667 -31.333 -117 -47 -181 -47c-119.333 0 -219 51.333 -299 154c-38.667 48.667 -68 106.5 -88 173.5s-30 140.167 -30 219.5
c0 168.667 38.667 303.667 116 405c76 102.667 176.333 154 301 154c64.667 0 122.667 -13.667 174 -41c52.667 -29.333 101.334 -72.333 146.001 -129v137h481v-1034h-463zM484.997 1149l146 262h219l145 -262h-123l-131 127l-133 -127h-123z" />
    <glyph glyph-name="atilde" unicode="&#xe3;" horiz-adv-x="1389" 
d="M549 520c0 -45.333 12.332 -80.666 36.999 -105.999c22 -27.333 52.667 -41 92 -41c40.667 0 72 13.667 94 41c23.333 26.667 35 62 35 106c0 45.333 -11.667 81.666 -35 108.999c-25.333 27.333 -56.666 41 -93.999 41c-38 0 -68.667 -13.667 -92 -41
c-24.667 -26.667 -37 -63 -37 -109zM822.999 0l-0.00195312 156c-51.333 -68.667 -103.666 -118 -156.999 -148c-56.667 -31.333 -117 -47 -181 -47c-119.333 0 -219 51.333 -299 154c-38.667 48.667 -68 106.5 -88 173.5s-30 140.167 -30 219.5
c0 168.667 38.667 303.667 116 405c76 102.667 176.333 154 301 154c64.667 0 122.667 -13.667 174 -41c52.667 -29.333 101.334 -72.333 146.001 -129v137h481v-1034h-463zM1016 1389l-2.00098 0.00195312c-15.333 -68.667 -34.666 -117.334 -57.999 -146.001
c-23.333 -30 -56.666 -45 -99.999 -45h-25c-4 0 -12.667 1.33301 -26 4l-68 19c-6.66699 1.33301 -15.334 2 -26.001 2h-19c-15.333 0 -28.333 -4.33301 -39 -13c-10 -8 -18 -21.667 -24 -41h-88c12 61.333 30.333 107.333 55 138c25.333 28.667 58 43 98 43h31
c7.33301 0 19 -1.33301 35 -4l69 -19h19h18c15.333 0 28.333 5.33301 39 16c12 13.333 19.667 28.666 23 45.999h88z" />
    <glyph glyph-name="adieresis" unicode="&#xe4;" horiz-adv-x="1389" 
d="M549 520c0 -45.333 12.332 -80.666 36.999 -105.999c22 -27.333 52.667 -41 92 -41c40.667 0 72 13.667 94 41c23.333 26.667 35 62 35 106c0 45.333 -11.667 81.666 -35 108.999c-25.333 27.333 -56.666 41 -93.999 41c-38 0 -68.667 -13.667 -92 -41
c-24.667 -26.667 -37 -63 -37 -109zM822.999 0l-0.00195312 156c-51.333 -68.667 -103.666 -118 -156.999 -148c-56.667 -31.333 -117 -47 -181 -47c-119.333 0 -219 51.333 -299 154c-38.667 48.667 -68 106.5 -88 173.5s-30 140.167 -30 219.5
c0 168.667 38.667 303.667 116 405c76 102.667 176.333 154 301 154c64.667 0 122.667 -13.667 174 -41c52.667 -29.333 101.334 -72.333 146.001 -129v137h481v-1034h-463zM812.997 1292l-2 -0.00195312c0 34.667 13 64.667 39 90c26 26 56.667 39 92 39
c37.333 0 68 -12.333 92 -37c24.667 -24 37 -54.667 37 -92s-11.667 -68.666 -35 -93.999c-25.333 -23.333 -56 -35 -92 -35c-34.667 0 -66 12.333 -94 37c-24.667 24.667 -37 55.334 -37 92.001zM460.997 1292l-2 -0.000976562c0 34.667 13 64.667 39 90
c25.333 26 56 39 92 39c36.667 0 67.334 -12.333 92.001 -37c24.667 -24 37 -54.667 37 -92s-11.667 -68.666 -35 -93.999c-23.333 -23.333 -54 -35 -92 -35c-36.667 0 -67.334 12.333 -92.001 37c-26 24 -39 54.667 -39 92z" />
    <glyph glyph-name="aring" unicode="&#xe5;" horiz-adv-x="1389" 
d="M549 520c0 -45.333 12.332 -80.666 36.999 -105.999c22 -27.333 52.667 -41 92 -41c40.667 0 72 13.667 94 41c23.333 26.667 35 62 35 106c0 45.333 -11.667 81.666 -35 108.999c-25.333 27.333 -56.666 41 -93.999 41c-38 0 -68.667 -13.667 -92 -41
c-24.667 -26.667 -37 -63 -37 -109zM822.999 0l-0.00195312 156c-51.333 -68.667 -103.666 -118 -156.999 -148c-56.667 -31.333 -117 -47 -181 -47c-119.333 0 -219 51.333 -299 154c-38.667 48.667 -68 106.5 -88 173.5s-30 140.167 -30 219.5
c0 168.667 38.667 303.667 116 405c76 102.667 176.333 154 301 154c64.667 0 122.667 -13.667 174 -41c52.667 -29.333 101.334 -72.333 146.001 -129v137h481v-1034h-463zM638.997 1384h2c0 -24.667 8.33301 -45.167 25 -61.5s37 -24.5 61 -24.5
c24.667 0 46 8.33301 64 25c16 16 24 36.333 24 61c0 26.667 -8 48 -24 64c-18 16.667 -39.333 25 -64 25c-25.333 0 -46.333 -8.33301 -63 -25c-16.667 -16 -25 -37.333 -25 -64zM517.997 1384l-0.00195312 -1.99902c0 58.667 20.5 108.5 61.5 149.5s91.5 61.5 151.5 61.5
c60.667 0 111.334 -20.333 152.001 -61s61 -90.667 61 -150c0 -58.667 -20.5 -108.5 -61.5 -149.5s-91.5 -61.5 -151.5 -61.5c-59.333 0 -109.666 20.667 -150.999 62s-62 91.666 -62 150.999z" />
    <glyph glyph-name="ae" unicode="&#xe6;" 
d="M-266 1669l-234 -262h-123l136 262h221z" />
    <glyph glyph-name="ccedilla" unicode="&#xe7;" horiz-adv-x="950" 
d="M891 592c-32 26 -59.3311 43.6641 -81.998 52.9971c-30.667 11.333 -60 17 -88 17c-49.333 0 -89.666 -13 -120.999 -39c-30 -26 -45 -62.333 -45 -109c0 -43.333 14.333 -78 43 -104c31.333 -27.333 69.666 -41 114.999 -41c30.667 0 60.667 6.66699 90 20
c27.333 12 56.666 31 87.999 57v-411c-47.333 -23.333 -97.333 -41.666 -150 -54.999c-48 -12.667 -95.667 -19 -143 -19c-78.667 0 -149.667 13 -213 39c-67.333 27.333 -125.333 65 -174 113c-52.667 52.667 -93.667 113.334 -123 182.001c-27.333 68 -41 139.667 -41 215
c0 56 7 107.333 21 154c14 50 34.333 97 61 141c26.667 42.667 56.667 80.334 90 113.001s69.666 59.667 108.999 81c80.667 45.333 170.667 68 270 68c46.667 0 93 -4.66699 139 -14c52.667 -12.667 104 -27 154 -43v-418zM328.002 -422.003l-13.001 124.999
c34.667 -9.33301 77.667 -18.333 129 -27c38.667 -4 72.334 -6 101.001 -6c24.667 0 41.667 4.33301 51 13c10.667 8.66699 16 23 16 43c0 18 -6.83301 30.667 -20.5 38s-40.167 11 -79.5 11h-18h-21v194h111v-73h16c65.333 0 116 -14.333 152 -43
c35.333 -30 53 -71.667 53 -125c0 -59.333 -18.333 -104.666 -55 -135.999c-40 -32.667 -95.333 -49 -166 -49c-41.333 0 -80.333 2.66699 -117 8c-36.667 4 -83 13 -139 27z" />
    <glyph glyph-name="egrave" unicode="&#xe8;" horiz-adv-x="1321" 
d="M1272 434h-712.999v-16c0 -50.667 9.66699 -89.667 29 -117c17.333 -26 46 -39 86 -39c24 0 44.333 7 61 21c17.333 12.667 31 32.334 41 59.001l465 -31c-40.667 -111.333 -111 -198 -211 -260c-99.333 -60 -220.666 -90 -363.999 -90c-80 0 -154.667 12.333 -224 37
c-74 26.667 -136.667 62 -188 106c-62.667 55.333 -110.334 117.666 -143.001 186.999c-33.333 72 -50 146.333 -50 223c0 80 17.333 155 52 225c15.333 35.333 34.333 67.666 57 96.999s50.667 58.666 84 87.999c56.667 48.667 118.667 84 186 106
c69.333 24.667 144.666 37 225.999 37c54 0 106.667 -5.66699 158 -17s98.333 -27.666 141 -48.999c84.667 -43.333 157.667 -108 219 -194c30.667 -44 53 -91.667 67 -143c15.333 -53.333 23 -110.666 23 -171.999v-35c0 -11.333 -0.666992 -19 -2 -23zM563.001 659
l227.999 -2c-3.33301 42 -13.666 72.333 -30.999 91c-18.667 20 -46 30 -82 30c-30.667 0 -56.667 -10 -78 -30c-18.667 -22 -31 -51.667 -37 -89zM440 1432h222l135 -263h-123z" />
    <glyph glyph-name="eacute" unicode="&#xe9;" horiz-adv-x="1321" 
d="M1272 434h-712.999v-16c0 -50.667 9.66699 -89.667 29 -117c17.333 -26 46 -39 86 -39c24 0 44.333 7 61 21c17.333 12.667 31 32.334 41 59.001l465 -31c-40.667 -111.333 -111 -198 -211 -260c-99.333 -60 -220.666 -90 -363.999 -90c-80 0 -154.667 12.333 -224 37
c-74 26.667 -136.667 62 -188 106c-62.667 55.333 -110.334 117.666 -143.001 186.999c-33.333 72 -50 146.333 -50 223c0 80 17.333 155 52 225c15.333 35.333 34.333 67.666 57 96.999s50.667 58.666 84 87.999c56.667 48.667 118.667 84 186 106
c69.333 24.667 144.666 37 225.999 37c54 0 106.667 -5.66699 158 -17s98.333 -27.666 141 -48.999c84.667 -43.333 157.667 -108 219 -194c30.667 -44 53 -91.667 67 -143c15.333 -53.333 23 -110.666 23 -171.999v-35c0 -11.333 -0.666992 -19 -2 -23zM563.001 659
l227.999 -2c-3.33301 42 -13.666 72.333 -30.999 91c-18.667 20 -46 30 -82 30c-30.667 0 -56.667 -10 -78 -30c-18.667 -22 -31 -51.667 -37 -89zM963 1432l-234 -263h-123l135 263h222z" />
    <glyph glyph-name="ecircumflex" unicode="&#xea;" horiz-adv-x="1321" 
d="M1272 434h-712.999v-16c0 -50.667 9.66699 -89.667 29 -117c17.333 -26 46 -39 86 -39c24 0 44.333 7 61 21c17.333 12.667 31 32.334 41 59.001l465 -31c-40.667 -111.333 -111 -198 -211 -260c-99.333 -60 -220.666 -90 -363.999 -90c-80 0 -154.667 12.333 -224 37
c-74 26.667 -136.667 62 -188 106c-62.667 55.333 -110.334 117.666 -143.001 186.999c-33.333 72 -50 146.333 -50 223c0 80 17.333 155 52 225c15.333 35.333 34.333 67.666 57 96.999s50.667 58.666 84 87.999c56.667 48.667 118.667 84 186 106
c69.333 24.667 144.666 37 225.999 37c54 0 106.667 -5.66699 158 -17s98.333 -27.666 141 -48.999c84.667 -43.333 157.667 -108 219 -194c30.667 -44 53 -91.667 67 -143c15.333 -53.333 23 -110.666 23 -171.999v-35c0 -11.333 -0.666992 -19 -2 -23zM563.001 659
l227.999 -2c-3.33301 42 -13.666 72.333 -30.999 91c-18.667 20 -46 30 -82 30c-30.667 0 -56.667 -10 -78 -30c-18.667 -22 -31 -51.667 -37 -89zM391 1128l146 263h219l145 -263h-123l-131 127l-133 -127h-123z" />
    <glyph glyph-name="edieresis" unicode="&#xeb;" horiz-adv-x="1321" 
d="M1272 434h-712.999v-16c0 -50.667 9.66699 -89.667 29 -117c17.333 -26 46 -39 86 -39c24 0 44.333 7 61 21c17.333 12.667 31 32.334 41 59.001l465 -31c-40.667 -111.333 -111 -198 -211 -260c-99.333 -60 -220.666 -90 -363.999 -90c-80 0 -154.667 12.333 -224 37
c-74 26.667 -136.667 62 -188 106c-62.667 55.333 -110.334 117.666 -143.001 186.999c-33.333 72 -50 146.333 -50 223c0 80 17.333 155 52 225c15.333 35.333 34.333 67.666 57 96.999s50.667 58.666 84 87.999c56.667 48.667 118.667 84 186 106
c69.333 24.667 144.666 37 225.999 37c54 0 106.667 -5.66699 158 -17s98.333 -27.666 141 -48.999c84.667 -43.333 157.667 -108 219 -194c30.667 -44 53 -91.667 67 -143c15.333 -53.333 23 -110.666 23 -171.999v-35c0 -11.333 -0.666992 -19 -2 -23zM563.001 659
l227.999 -2c-3.33301 42 -13.666 72.333 -30.999 91c-18.667 20 -46 30 -82 30c-30.667 0 -56.667 -10 -78 -30c-18.667 -22 -31 -51.667 -37 -89zM678 1282h-2.00098c0 34.667 13 64.667 39 90c25.333 26 56 39 92 39c36.667 0 67.334 -12.333 92.001 -37
c24.667 -24 37 -54.667 37 -92c0 -38 -11.667 -69.333 -35 -94c-24.667 -23.333 -55.334 -35 -92.001 -35c-37.333 0 -68.666 12.333 -93.999 37c-24.667 24 -37 54.667 -37 92zM325.999 1282h-2.00098c0 34.667 12.667 64.667 38 90c26 26 57 39 93 39
c36.667 0 67.334 -12.333 92.001 -37s37 -55.334 37 -92.001c0 -37.333 -11.667 -68.666 -35 -93.999c-23.333 -23.333 -54 -35 -92 -35c-37.333 0 -68 12.333 -92 37c-26 23.333 -39 54 -39 92z" />
    <glyph glyph-name="igrave" unicode="&#xec;" horiz-adv-x="739" 
d="M119 -4v1034h502v-1034h-502zM188 1434h222l135 -263h-123z" />
    <glyph glyph-name="iacute" unicode="&#xed;" horiz-adv-x="739" 
d="M119 -4v1034h502v-1034h-502zM618 1423l-233 -262h-123l135 262h221z" />
    <glyph glyph-name="icircumflex" unicode="&#xee;" horiz-adv-x="739" 
d="M119 -4v1034h502v-1034h-502zM119 1143l145 262h219l146 -262h-123l-131 127l-133 -127h-123z" />
    <glyph glyph-name="idieresis" unicode="&#xef;" horiz-adv-x="739" 
d="M119 -4v1034h502v-1034h-502zM416 1296l-1.99902 -0.00292969c0 34.667 13 64.667 39 90c25.333 26 56 39 92 39s66.5 -12.167 91.5 -36.5s37.5 -55.166 37.5 -92.499s-11.667 -68.666 -35 -93.999c-26.667 -23.333 -57.334 -35 -92.001 -35c-36 0 -67.333 12.333 -94 37
c-24.667 24.667 -37 55.334 -37 92.001zM63.001 1296l-1.99902 -0.000976562c0 34 13 64 39 90s57 39 93 39s66.667 -12 92 -36c24.667 -26 37 -57 37 -93s-11.667 -67.333 -35 -94c-24.667 -23.333 -55.334 -35 -92.001 -35c-36 0 -67 12.333 -93 37s-39 55.334 -39 92.001
z" />
    <glyph glyph-name="eth" unicode="&#xf0;" horiz-adv-x="1331" 
d="M666 371c36 0 65.333 12.333 88 37c21.333 23.333 32 55.333 32 96c0 39.333 -10 70.666 -30 93.999c-22.667 24.667 -52.667 37 -90 37c-36.667 0 -66 -12.333 -88 -37c-23.333 -23.333 -35 -54.666 -35 -93.999s11.667 -71.333 35 -96c22 -24.667 51.333 -37 88 -37z
M735 907c-22.667 34 -49.999 67 -81.999 99s-70.667 64.667 -116 98l-258 -125l-68 137l176 88c-12 8 -27 16.333 -45 25c-28.667 14 -49 25 -61 33l198 288c42.667 -22 92.667 -49.333 150 -82c39.333 -22 83.666 -50.667 132.999 -86l305 150l86 -131l-256 -127
c58 -46.667 110.333 -98.5 157 -155.5s85 -115.833 115 -176.5c63.333 -122 95 -253 95 -393c0 -92.667 -13 -174.5 -39 -245.5s-65.667 -133.167 -119 -186.5c-106 -104 -252.667 -156 -440 -156c-178 0 -323.667 50.667 -437 152s-170 230.333 -170 387
c0 136.667 43 248 129 334c86.667 84.667 198 127 334 127c32 0 67 -4.33301 105 -13c34 -8 70 -21.667 108 -41z" />
    <glyph glyph-name="ntilde" unicode="&#xf1;" horiz-adv-x="1376" 
d="M109 0v1034h487v-143c42.667 58.667 90.334 103 143.001 133c53.333 28.667 113 43 179 43c110.667 0 198 -33.333 262 -100c64 -69.333 96 -160.333 96 -273v-694h-502v522c0 48.667 -5.33301 84.334 -16 107.001c-10.667 18.667 -29.334 28 -56.001 28
c-30 0 -52.333 -11.333 -67 -34c-15.333 -25.333 -23 -59 -23 -101v-522h-503zM999 1393h-2c-14.667 -68 -33.667 -116.667 -57 -146c-24.667 -30 -58 -45 -100 -45h-25c-3.33301 0 -12.333 1.33301 -27 4l-67 19c-6.66699 1.33301 -15.667 2 -27 2h-18
c-16.667 0 -29.667 -4.33301 -39 -13c-10.667 -8.66699 -19 -22 -25 -40h-88c13.333 61.333 32 107 56 137c24.667 28.667 57.334 43 98.001 43h31c6.66699 0 18 -1.33301 34 -4l70 -19h18h19c16 0 29 5.66699 39 17c11.333 11.333 18.666 26.333 21.999 45h88z" />
    <glyph glyph-name="ograve" unicode="&#xf2;" horiz-adv-x="1331" 
d="M666 373c36.667 0 66 13 88 39c22.667 26.667 34 60.667 34 102c0 42.667 -10.667 76.667 -32 102c-22 26 -52 39 -90 39c-37.333 0 -66.666 -13 -87.999 -39c-23.333 -26.667 -35 -60.667 -35 -102s11.667 -75.333 35 -102c21.333 -26 50.666 -39 87.999 -39zM1270 514
c0 -76 -16.333 -150.332 -49 -222.999c-34.667 -71.333 -82.667 -133.666 -144 -186.999c-52.667 -44.667 -114 -80 -184 -106c-71.333 -24.667 -147 -37 -227 -37c-81.333 0 -156.666 12.333 -225.999 37c-67.333 22 -129.333 57.333 -186 106
c-62 52.667 -109 115 -141 187c-34.667 70 -52 144.333 -52 223c0 80 17.333 155 52 225c15.333 35.333 34.333 67.666 57 96.999s50.667 58.666 84 87.999c56.667 48.667 118.667 84 186 106c69.333 24.667 144.666 37 225.999 37c80 0 155.5 -12.333 226.5 -37
s133.167 -60 186.5 -106c60 -52 107.333 -113.667 142 -185c32.667 -72.667 49 -147.667 49 -225zM459 1432h221l135 -263h-123z" />
    <glyph glyph-name="oacute" unicode="&#xf3;" horiz-adv-x="1331" 
d="M666 373c36.667 0 66 13 88 39c22.667 26.667 34 60.667 34 102c0 42.667 -10.667 76.667 -32 102c-22 26 -52 39 -90 39c-37.333 0 -66.666 -13 -87.999 -39c-23.333 -26.667 -35 -60.667 -35 -102s11.667 -75.333 35 -102c21.333 -26 50.666 -39 87.999 -39zM1270 514
c0 -76 -16.333 -150.332 -49 -222.999c-34.667 -71.333 -82.667 -133.666 -144 -186.999c-52.667 -44.667 -114 -80 -184 -106c-71.333 -24.667 -147 -37 -227 -37c-81.333 0 -156.666 12.333 -225.999 37c-67.333 22 -129.333 57.333 -186 106
c-62 52.667 -109 115 -141 187c-34.667 70 -52 144.333 -52 223c0 80 17.333 155 52 225c15.333 35.333 34.333 67.666 57 96.999s50.667 58.666 84 87.999c56.667 48.667 118.667 84 186 106c69.333 24.667 144.666 37 225.999 37c80 0 155.5 -12.333 226.5 -37
s133.167 -60 186.5 -106c60 -52 107.333 -113.667 142 -185c32.667 -72.667 49 -147.667 49 -225zM889 1432l-234 -263h-123l136 263h221z" />
    <glyph glyph-name="ocircumflex" unicode="&#xf4;" horiz-adv-x="1331" 
d="M666 373c36.667 0 66 13 88 39c22.667 26.667 34 60.667 34 102c0 42.667 -10.667 76.667 -32 102c-22 26 -52 39 -90 39c-37.333 0 -66.666 -13 -87.999 -39c-23.333 -26.667 -35 -60.667 -35 -102s11.667 -75.333 35 -102c21.333 -26 50.666 -39 87.999 -39zM1270 514
c0 -76 -16.333 -150.332 -49 -222.999c-34.667 -71.333 -82.667 -133.666 -144 -186.999c-52.667 -44.667 -114 -80 -184 -106c-71.333 -24.667 -147 -37 -227 -37c-81.333 0 -156.666 12.333 -225.999 37c-67.333 22 -129.333 57.333 -186 106
c-62 52.667 -109 115 -141 187c-34.667 70 -52 144.333 -52 223c0 80 17.333 155 52 225c15.333 35.333 34.333 67.666 57 96.999s50.667 58.666 84 87.999c56.667 48.667 118.667 84 186 106c69.333 24.667 144.666 37 225.999 37c80 0 155.5 -12.333 226.5 -37
s133.167 -60 186.5 -106c60 -52 107.333 -113.667 142 -185c32.667 -72.667 49 -147.667 49 -225zM389 1128l146 263h219l145 -263h-123l-131 127l-133 -127h-123z" />
    <glyph glyph-name="otilde" unicode="&#xf5;" horiz-adv-x="1331" 
d="M666 373c36.667 0 66 13 88 39c22.667 26.667 34 60.667 34 102c0 42.667 -10.667 76.667 -32 102c-22 26 -52 39 -90 39c-37.333 0 -66.666 -13 -87.999 -39c-23.333 -26.667 -35 -60.667 -35 -102s11.667 -75.333 35 -102c21.333 -26 50.666 -39 87.999 -39zM1270 514
c0 -76 -16.333 -150.332 -49 -222.999c-34.667 -71.333 -82.667 -133.666 -144 -186.999c-52.667 -44.667 -114 -80 -184 -106c-71.333 -24.667 -147 -37 -227 -37c-81.333 0 -156.666 12.333 -225.999 37c-67.333 22 -129.333 57.333 -186 106
c-62 52.667 -109 115 -141 187c-34.667 70 -52 144.333 -52 223c0 80 17.333 155 52 225c15.333 35.333 34.333 67.666 57 96.999s50.667 58.666 84 87.999c56.667 48.667 118.667 84 186 106c69.333 24.667 144.666 37 225.999 37c80 0 155.5 -12.333 226.5 -37
s133.167 -60 186.5 -106c60 -52 107.333 -113.667 142 -185c32.667 -72.667 49 -147.667 49 -225zM903 1389l-1.99805 0.000976562c-14 -66.667 -33 -115.334 -57 -146.001c-24 -30 -57.667 -45 -101 -45h-24c-4.66699 0 -13.667 1.33301 -27 4l-67 19
c-7.33301 1.33301 -16.333 2 -27 2h-18c-16.667 0 -29.667 -4.33301 -39 -13c-10.667 -7.33301 -19 -21 -25 -41h-88c11.333 59.333 29.666 105.333 54.999 138c25.333 28.667 58.333 43 99 43h30c7.33301 0 19 -1.33301 35 -4l70 -19h18h19c14 0 27 5.33301 39 16
c11.333 12 18.666 27.333 21.999 46h88z" />
    <glyph glyph-name="odieresis" unicode="&#xf6;" horiz-adv-x="1331" 
d="M666 373c36.667 0 66 13 88 39c22.667 26.667 34 60.667 34 102c0 42.667 -10.667 76.667 -32 102c-22 26 -52 39 -90 39c-37.333 0 -66.666 -13 -87.999 -39c-23.333 -26.667 -35 -60.667 -35 -102s11.667 -75.333 35 -102c21.333 -26 50.666 -39 87.999 -39zM1270 514
c0 -76 -16.333 -150.332 -49 -222.999c-34.667 -71.333 -82.667 -133.666 -144 -186.999c-52.667 -44.667 -114 -80 -184 -106c-71.333 -24.667 -147 -37 -227 -37c-81.333 0 -156.666 12.333 -225.999 37c-67.333 22 -129.333 57.333 -186 106
c-62 52.667 -109 115 -141 187c-34.667 70 -52 144.333 -52 223c0 80 17.333 155 52 225c15.333 35.333 34.333 67.666 57 96.999s50.667 58.666 84 87.999c56.667 48.667 118.667 84 186 106c69.333 24.667 144.666 37 225.999 37c80 0 155.5 -12.333 226.5 -37
s133.167 -60 186.5 -106c60 -52 107.333 -113.667 142 -185c32.667 -72.667 49 -147.667 49 -225zM696 1313h-1.99902c0 32.667 13 62.667 39 90c26 26 56.667 39 92 39c37.333 0 68.166 -12.333 92.499 -37s36.5 -55.334 36.5 -92.001c0 -38 -11.333 -69.333 -34 -94
c-25.333 -23.333 -56.333 -35 -93 -35c-36 0 -67.333 12.333 -94 37c-24.667 24.667 -37 55.334 -37 92.001zM344.001 1313l-1.99902 0.000976562c0 34 13 64 39 90s56.667 39 92 39c37.333 0 68 -12.333 92 -37c24.667 -24.667 37 -55.334 37 -92.001
c0 -38 -11.667 -69.333 -35 -94c-22 -23.333 -52.667 -35 -92 -35c-36.667 0 -67.334 12.333 -92.001 37c-26 23.333 -39 54 -39 92z" />
    <glyph glyph-name="divide" unicode="&#xf7;" horiz-adv-x="1706" 
d="M854 371c48.667 0 91 -18 127 -54c36.667 -36 55 -79 55 -129c0 -49.333 -18.333 -92.333 -55 -129c-36.667 -35.333 -79.667 -53 -129 -53s-92.333 17.667 -129 53c-35.333 35.333 -53 78.333 -53 129c0 52 18.333 95 55 129c36 36 79 54 129 54zM1452 748v-273h-1198
v273h1198zM854 1217c49.333 0 91.667 -18.668 127 -56.001c36.667 -34.667 55 -77.667 55 -129c0 -49.333 -18.333 -92.333 -55 -129c-35.333 -35.333 -78.333 -53 -129 -53s-93.667 17.667 -129 53s-53 78.333 -53 129c0 52.667 18.333 96.334 55 131.001
c36 36 79 54 129 54z" />
    <glyph glyph-name="oslash" unicode="&#xf8;" horiz-adv-x="1331" 
d="M623 338h5.99902c26.667 -2.66699 41.667 -4 45 -4c56.667 0 102.334 16.333 137.001 49c35.333 33.333 53 76.333 53 129c0 24 -3.33301 46.667 -10 68c-6 18 -17.667 35.667 -35 53zM710.999 688c-4 1.33301 -11 2 -21 2c-4 1.33301 -15 2 -33 2
c-56 0 -101 -17 -135 -51c-35.333 -33.333 -53 -76.333 -53 -129c0 -22.667 3.33301 -44.667 10 -66c4 -12.667 15 -31 33 -55zM345.999 -84l-113 63.999l62 94c-77.333 58 -135.333 124 -174 198c-40 78 -60 158.667 -60 242c0 78 16.667 153 50 225
c33.333 68 81 129.667 143 185c56.667 48.667 118.667 84 186 106c69.333 24.667 144.666 37 225.999 37c45.333 0 89.666 -4 132.999 -12c38.667 -7.33301 80.334 -19.666 125.001 -36.999l63 94l119 -65l-62 -95c74.667 -55.333 130.667 -119.333 168 -192
c38.667 -75.333 58 -157.333 58 -246c0 -78 -16.333 -152.5 -49 -223.5s-80 -132.5 -142 -184.5c-54.667 -46.667 -117.334 -82.667 -188.001 -108c-71.333 -24.667 -146.333 -37 -225 -37c-41.333 0 -83.666 4 -126.999 12c-47.333 12 -89.666 25 -126.999 39z" />
    <glyph glyph-name="ugrave" unicode="&#xf9;" horiz-adv-x="1339" 
d="M94 1034l493.998 -0.000976562v-506c0 -70.667 6 -117.667 18 -141c10 -20.667 31.333 -31 64 -31c29.333 0 50.333 9.66699 63 29c11.333 24 17 71.667 17 143v506h493v-557c0 -179.333 -45.667 -309.666 -137 -390.999c-91.333 -83.333 -236.666 -125 -435.999 -125
s-345.166 41.5 -437.499 124.5s-138.5 213.5 -138.5 391.5v557zM439.998 1399h222l135 -262h-123z" />
    <glyph glyph-name="uacute" unicode="&#xfa;" horiz-adv-x="1339" 
d="M94 1034l493.998 -0.000976562v-506c0 -70.667 6 -117.667 18 -141c10 -20.667 31.333 -31 64 -31c29.333 0 50.333 9.66699 63 29c11.333 24 17 71.667 17 143v506h493v-557c0 -179.333 -45.667 -309.666 -137 -390.999c-91.333 -83.333 -236.666 -125 -435.999 -125
s-345.166 41.5 -437.499 124.5s-138.5 213.5 -138.5 391.5v557zM962.998 1399l-234 -262h-123l135 262h222z" />
    <glyph glyph-name="ucircumflex" unicode="&#xfb;" horiz-adv-x="1339" 
d="M94 1034l493.998 -0.000976562v-506c0 -70.667 6 -117.667 18 -141c10 -20.667 31.333 -31 64 -31c29.333 0 50.333 9.66699 63 29c11.333 24 17 71.667 17 143v506h493v-557c0 -179.333 -45.667 -309.666 -137 -390.999c-91.333 -83.333 -236.666 -125 -435.999 -125
s-345.166 41.5 -437.499 124.5s-138.5 213.5 -138.5 391.5v557zM423.998 1137l145 262h219l146 -262h-123l-131 127l-133 -127h-123z" />
    <glyph glyph-name="udieresis" unicode="&#xfc;" horiz-adv-x="1339" 
d="M94 1034l493.998 -0.000976562v-506c0 -70.667 6 -117.667 18 -141c10 -20.667 31.333 -31 64 -31c29.333 0 50.333 9.66699 63 29c11.333 24 17 71.667 17 143v506h493v-557c0 -179.333 -45.667 -309.666 -137 -390.999c-91.333 -83.333 -236.666 -125 -435.999 -125
s-345.166 41.5 -437.499 124.5s-138.5 213.5 -138.5 391.5v557zM740.998 1280l-2 -0.000976562c0 32.667 13 62.667 39 90c26 26 56.667 39 92 39c37.333 0 68.333 -12.333 93 -37c24 -24 36 -54.667 36 -92c0 -38 -11.333 -69.333 -34 -94
c-25.333 -23.333 -56.333 -35 -93 -35c-36 0 -67.333 12.333 -94 37c-24.667 24.667 -37 55.334 -37 92.001zM388.998 1280h-1.99902c0 34 13 64 39 90s56.667 39 92 39c37.333 0 68 -12.333 92 -37c24.667 -24 37 -54.667 37 -92c0 -38 -11.667 -69.333 -35 -94
c-22 -23.333 -52.667 -35 -92 -35c-36.667 0 -67.334 12.333 -92.001 37c-26 23.333 -39 54 -39 92z" />
    <glyph glyph-name="yacute" unicode="&#xfd;" horiz-adv-x="1300" 
d="M410 90l-448.999 944h551l78 -264c1.33301 -1.33301 2.16602 -2.83301 2.49902 -4.5s0.833008 -3.5 1.5 -5.5c36.667 -130 57.667 -223.667 63 -281l17 72.5l16.5 64.5l14.5 56c5.33301 26 14 60.667 26 104l76 258h516l-631 -1456h-534zM956.001 1409l-233 -262h-123
l135 262h221z" />
    <glyph glyph-name="thorn" unicode="&#xfe;" horiz-adv-x="1300" 
d="M410 90l-448.999 944h551l78 -264c1.33301 -1.33301 2.16602 -2.83301 2.49902 -4.5s0.833008 -3.5 1.5 -5.5c36.667 -130 57.667 -223.667 63 -281l17 72.5l16.5 64.5l14.5 56c5.33301 26 14 60.667 26 104l76 258h516l-631 -1456h-534zM975.001 1352l-2 0.000976562
c-15.333 -68.667 -34.666 -117.334 -57.999 -146.001c-24 -30 -57.333 -45 -100 -45h-24c-4.66699 0 -13.667 1.33301 -27 4l-68 19c-6.66699 1.33301 -15.334 2 -26.001 2h-19c-14.667 0 -27.667 -4 -39 -12c-10 -8.66699 -18 -22.334 -24 -41.001h-88
c12 60.667 30.333 106.334 55 137.001c25.333 28.667 58 43 98 43h31c7.33301 0 19 -1.33301 35 -4l69 -19h19h18c16 0 29 5.66699 39 17c12 12 19.667 27 23 45h88z" />
    <glyph glyph-name="ydieresis" unicode="&#xff;" horiz-adv-x="1300" 
d="M410 90l-448.999 944h551l78 -264c1.33301 -1.33301 2.16602 -2.83301 2.49902 -4.5s0.833008 -3.5 1.5 -5.5c36.667 -130 57.667 -223.667 63 -281l17 72.5l16.5 64.5l14.5 56c5.33301 26 14 60.667 26 104l76 258h516l-631 -1456h-534zM698.001 1270h-2.00098
c0 32.667 13 62.667 39 90c26.667 26 57.334 39 92.001 39c36 0 67 -12.333 93 -37c24 -24.667 36 -55.334 36 -92.001c0 -38 -11.333 -69.333 -34 -94c-25.333 -23.333 -56.333 -35 -93 -35c-36 0 -67.333 12.333 -94 37c-24.667 24.667 -37 55.334 -37 92.001zM346 1270
l-2.00098 0.000976562c0 34 13 64 39 90c26.667 26 57.334 39 92.001 39c36.667 0 67.334 -12.333 92.001 -37s37 -55.334 37 -92.001c0 -38 -11.667 -69.333 -35 -94c-22 -23.333 -52.667 -35 -92 -35c-36.667 0 -67.334 12.333 -92.001 37c-26 23.333 -39 54 -39 92z" />
    <glyph glyph-name="aahoa" unicode="&#x102;" horiz-adv-x="1507" 
d="M641 532h219l-45 166c-22.667 86 -37.667 151 -45 195c-7.33301 39.333 -12 81.666 -14 126.999h-11c-2 -45.333 -6.66699 -87.666 -14 -126.999c-9.33301 -54 -24.333 -119 -45 -195zM-57 0l522 1464h586l512 -1464h-566l-47 184h-397l-45 -184h-565zM496 1761l108 2
c2 -34.667 15 -59.667 39 -75c22.667 -15.333 57.667 -23 105 -23c46 0 81.333 8.33301 106 25c23.333 16 35 41 35 75h104c-6 -80 -29.167 -138.167 -69.5 -174.5s-99.833 -54.5 -178.5 -54.5c-79.333 0 -139.333 18.333 -180 55c-42 38 -65 94.667 -69 170z" />
    <glyph glyph-name="aath" unicode="&#x103;" horiz-adv-x="1389" 
d="M549 520c0 -45.333 12.332 -80.666 36.999 -105.999c22 -27.333 52.667 -41 92 -41c40.667 0 72 13.667 94 41c23.333 26.667 35 62 35 106c0 45.333 -11.667 81.666 -35 108.999c-25.333 27.333 -56.666 41 -93.999 41c-38 0 -68.667 -13.667 -92 -41
c-24.667 -26.667 -37 -63 -37 -109zM822.999 0l-0.00195312 156c-51.333 -68.667 -103.666 -118 -156.999 -148c-56.667 -31.333 -117 -47 -181 -47c-119.333 0 -219 51.333 -299 154c-38.667 48.667 -68 106.5 -88 173.5s-30 140.167 -30 219.5
c0 168.667 38.667 303.667 116 405c76 102.667 176.333 154 301 154c64.667 0 122.667 -13.667 174 -41c52.667 -29.333 101.334 -72.333 146.001 -129v137h481v-1034h-463zM577.997 1354l108 1.99902c2 -35.333 15 -60.666 39 -75.999s58.667 -23 104 -23
s81 8.33301 107 25c23.333 16.667 35 42 35 76h104c-6 -80 -29 -138 -69 -174c-41.333 -37.333 -101 -56 -179 -56c-78.667 0 -138.667 18.667 -180 56c-42 38 -65 94.667 -69 170z" />
    <glyph glyph-name="dhoa" unicode="&#x110;" horiz-adv-x="1647" 
d="M651 408c7.33301 -1.33301 16.333 -2 27 -2h33c114.667 0 202.667 28.667 264 86c60 56 90 137 90 243c0 105.333 -30 186 -90 242c-61.333 54.667 -150 82 -266 82h-33c-11.333 0 -19 -0.666992 -23 -2l-2 -154h209v-319h-209v-176zM166 0v571h-166v344h166v549h426
c67.333 0 128.166 -1.66699 182.499 -5s108.833 -9 163.5 -17c94.667 -14.667 172.334 -38 233.001 -70c62.667 -32 119.167 -70.833 169.5 -116.5s91.5 -94.834 123.5 -147.501c67.333 -110 101 -235.667 101 -377c0 -142 -33.667 -267.167 -101 -375.5
s-165 -196.166 -293 -263.499c-58.667 -32 -137 -55 -235 -69c-52 -7.33301 -109.167 -13 -171.5 -17s-133.5 -6 -213.5 -6h-385z" />
    <glyph glyph-name="dth" unicode="&#x111;" horiz-adv-x="1389" 
d="M678 664c-38 0 -68.6699 -13.666 -92.0029 -40.999c-24.667 -26.667 -37 -63 -37 -109c0 -45.333 12.333 -82.333 37 -111c22.667 -28.667 53.334 -43 92.001 -43s69.334 14.333 92.001 43c24.667 28.667 37 65.667 37 111s-11.667 81.666 -35 108.999
c-25.333 27.333 -56.666 41 -93.999 41zM1286 1550v-207.001h135v-110h-135v-1237h-469v151c-44.667 -65.333 -93.667 -113 -147 -143c-56.667 -31.333 -119 -47 -187 -47c-124 0 -225 51.333 -303 154c-76 100 -114 235 -114 405c0 79.333 10 152.5 30 219.5
s49.333 124.833 88 173.5c78 101.333 177.667 152 299 152c66.667 0 125.334 -14.333 176.001 -43c53.333 -30.667 100.666 -75.667 141.999 -135c-2 20 -4 45 -6 75c-2.66699 38.667 -4 74.334 -4 107.001v172h-379v111h379l2 202h493z" />
    <glyph glyph-name="dth" unicode="&#x20ab;" horiz-adv-x="1389" 
d="M678 664c-38 0 -68.6699 -13.666 -92.0029 -40.999c-24.667 -26.667 -37 -63 -37 -109c0 -45.333 12.333 -82.333 37 -111c22.667 -28.667 53.334 -43 92.001 -43s69.334 14.333 92.001 43c24.667 28.667 37 65.667 37 111s-11.667 81.666 -35 108.999
c-25.333 27.333 -56.666 41 -93.999 41zM1286 1550v-207.001h135v-110h-135v-1237h-469v151c-44.667 -65.333 -93.667 -113 -147 -143c-56.667 -31.333 -119 -47 -187 -47c-124 0 -225 51.333 -303 154c-76 100 -114 235 -114 405c0 79.333 10 152.5 30 219.5
s49.333 124.833 88 173.5c78 101.333 177.667 152 299 152c66.667 0 125.334 -14.333 176.001 -43c53.333 -30.667 100.666 -75.667 141.999 -135c-2 20 -4 45 -6 75c-2.66699 38.667 -4 74.334 -4 107.001v172h-379v111h379l2 202h493z" />
    <glyph glyph-name="ihoanga" unicode="&#x128;" horiz-adv-x="829" 
d="M147 0v1464h535v-1464h-535zM651 1786h-1.99805c-14 -66.667 -33 -115.334 -57 -146.001c-24.667 -30 -58 -45 -100 -45h-25c-3.33301 0 -12.333 1.33301 -27 4l-67 19c-7.33301 1.33301 -16.333 2 -27 2h-18c-16 0 -29 -4 -39 -12c-10.667 -10 -19 -23.667 -25 -41h-88
c11.333 58.667 29.666 104.334 54.999 137.001c24.667 28.667 57.667 43 99 43h30c7.33301 0 19 -1.33301 35 -4l70 -19h18h19c13.333 0 26.333 5.66699 39 17c11.333 11.333 18.666 26.333 21.999 45h88z" />
    <glyph glyph-name="ithnga" unicode="&#x129;" horiz-adv-x="739" 
d="M119 -4v1034h502v-1034h-502zM623 1401l-2.00098 0.000976562c-15.333 -68.667 -34.666 -117.334 -57.999 -146.001c-24 -30 -57.333 -45 -100 -45h-25c-4 0 -12.667 1.33301 -26 4l-68 19c-6.66699 1.33301 -15.667 2 -27 2h-18c-16 0 -29 -4.16699 -39 -12.5
s-18 -21.833 -24 -40.5h-89c13.333 61.333 32 107 56 137c24 28.667 56.667 43 98 43h31c6 0 17.667 -1.33301 35 -4l69 -19h19h18c14.667 0 27.5 5.5 38.5 16.5s18.833 26.167 23.5 45.5h88z" />
    <glyph glyph-name="OE" unicode="&#x152;" horiz-adv-x="2238" 
d="M909 455c79.333 0 143.002 25.001 191.002 75.001c47.333 52.667 71 119 71 199c0 85.333 -23.667 153.666 -71 204.999c-46.667 50.667 -110.334 76 -191.001 76c-78.667 0 -141.334 -25.333 -188.001 -76c-48 -52 -72 -119.667 -72 -203c0 -82.667 24 -149.667 72 -201
c46 -50 108.667 -75 188 -75zM1190 0.000976562v129.001c-62 -58.667 -125.667 -101 -191 -127c-68 -27.333 -141 -41 -219 -41c-66 0 -128 8.33301 -186 25c-54.667 12.667 -110 35.667 -166 69c-112 69.333 -197.333 162.333 -256 279
c-19.333 38 -35.666 78.333 -48.999 121s-23.5 86.167 -30.5 130.5s-10.5 92.166 -10.5 143.499c0 110.667 16.333 211.667 49 303c33.333 96 82.666 179.333 147.999 250c63.333 70 136.333 123.333 219 160c83.333 36.667 173.333 55 270 55c81.333 0 155 -12.333 221 -37
c68.667 -24 135.667 -61.333 201 -112v116h958v-397h-460v-141h419v-375h-419v-154h473v-397h-971z" />
    <glyph glyph-name="oe" unicode="&#x153;" horiz-adv-x="2017" 
d="M1970 434l-712.997 0.000976562v-16c0 -48.667 9.66699 -87.667 29 -117c18 -26 46.667 -39 86 -39c24 0 44 7 60 21c17.333 15.333 31 35 41 59l466 -31c-38 -105.333 -106 -190 -204 -254c-100.667 -64 -213.334 -96 -338.001 -96
c-68.667 0 -133.834 10.167 -195.501 30.5s-121.5 51.833 -179.5 94.5c-54 -40.667 -112 -71.334 -174 -92.001c-57.333 -22 -118 -33 -182 -33c-82 0 -156.667 12.333 -224 37c-66 22 -129.333 58 -190 108c-62.667 52.667 -109.667 114.334 -141 185.001
c-33.333 70 -50 144.333 -50 223c0 78 16.667 153 50 225c33.333 68 81 129.667 143 185c56.667 48.667 118.667 84 186 106c69.333 24.667 144.666 37 225.999 37c74 0 140 -9.66699 198 -29c56 -20 107.333 -51.333 154 -94c54.667 42 110.667 72.667 168 92
c58 20.667 121.333 31 190 31c104 0 200.333 -22.667 289 -68c86.667 -45.333 159 -109.333 217 -192c29.333 -40.667 52 -88.334 68 -143.001c14.667 -56.667 22 -115 22 -175v-34c-1.33301 -6 -2 -13 -2 -21zM1262 662.001l225 -0.000976562c-2 40 -12.333 69.333 -31 88
s-46 28 -82 28c-30.667 0 -56 -9.33301 -76 -28c-18 -21.333 -30 -50.666 -36 -87.999zM680.003 369c40.667 0 74 13.667 100 41c24.667 25.333 37 60 37 104c0 45.333 -13 81 -39 107c-25.333 27.333 -58 41 -98 41c-43.333 -3.33301 -76 -17 -98 -41
c-26 -26 -39 -61.667 -39 -107c0 -44 13 -78.667 39 -104c24 -27.333 56.667 -41 98 -41z" />
    <glyph glyph-name="Scaron" unicode="&#x160;" horiz-adv-x="1251" 
d="M4 125l167.999 410.001c79.333 -54 147 -92.333 203 -115c58 -24.667 112.667 -37 164 -37c37.333 0 66 6.66699 86 20c20 14.667 30 33.334 30 56.001c0 40 -51.667 71.333 -155 94c-22 4 -48 9.33301 -78 16c-109.333 27.333 -193.333 74.666 -252 141.999
c-57.333 67.333 -86 152 -86 254c0 155.333 56.667 283.666 170 384.999c112.667 98 260 147 442 147c86.667 0 169.334 -11 248.001 -33c83.333 -22 165.333 -55.333 246 -100l-160 -383c-53.333 38.667 -103.666 67.334 -150.999 86.001c-56 19.333 -106 29 -150 29
c-36.667 0 -65.334 -6.33301 -86.001 -19c-19.333 -12.667 -29 -29.667 -29 -51c0 -42 73.333 -78 220 -108c19.333 -6 37 -10.333 53 -13c100.667 -22 179.667 -68.333 237 -139c58.667 -68.667 88 -153.334 88 -254.001c0 -162.667 -58.667 -295 -176 -397
c-58.667 -52 -126.334 -90.667 -203.001 -116s-161 -38 -253 -38c-94 0 -189.667 13.667 -287 41s-193.666 68.333 -288.999 123zM407.999 1876l145 -262h219l146 262h-123l-131 -127l-134 127h-122z" />
    <glyph glyph-name="scaron" unicode="&#x161;" horiz-adv-x="999" 
d="M0 74l132.998 318.999c53.333 -36 104 -64.667 152 -86c48.667 -18.667 88 -28 118 -28c26.667 0 47.334 5.33301 62.001 16c13.333 9.33301 20 23.666 20 42.999c0 26 -30 45 -90 57c-18 4 -33.667 7.66699 -47 11c-96 22 -166.333 57.333 -211 106
c-44.667 46.667 -67 108.667 -67 186c0 108.667 45.667 197.667 137 267c91.333 68 208.666 102 351.999 102c74.667 0 144.334 -6.66699 209.001 -20c66.667 -15.333 128.667 -36 186 -62l-123 -311c-50 33.333 -92 57 -126 71c-38 15.333 -70.333 23 -97 23
c-23.333 0 -41.666 -4.66699 -54.999 -14c-14 -10.667 -21 -23.667 -21 -39c0 -25.333 39 -46.666 117 -63.999c6.66699 -1.33301 15 -3.16602 25 -5.49902s16.667 -3.83301 20 -4.5c101.333 -25.333 175 -60 221 -104c48 -48 72 -109 72 -183
c0 -116.667 -46.333 -210.667 -139 -282c-94 -74 -217.667 -111 -371 -111c-82.667 0 -164.667 9.66699 -246 29c-73.333 16.667 -150.333 44.667 -231 84zM286.998 1438l145 -262h219l146 262h-123l-131 -127l-133 127h-123z" />
    <glyph glyph-name="uhoanga" unicode="&#x168;" horiz-adv-x="1602" 
d="M121 670l-0.000976562 794.001h526v-798c0 -94 11 -157.667 33 -191c22 -35.333 59.667 -53 113 -53c52.667 0 90 17.667 112 53c23.333 37.333 35 101 35 191v798h526v-794c0 -106.667 -6.66699 -192 -20 -256c-14.667 -70.667 -36.667 -127.334 -66 -170.001
c-59.333 -92 -139 -161.667 -239 -209c-104 -49.333 -220 -74 -348 -74c-128.667 0 -245 24.667 -349 74c-100 47.333 -179.667 117 -239 209c-27.333 42.667 -48.666 98.667 -63.999 168c-13.333 64 -20 150 -20 258zM1030 1786h-1.99707
c-14 -66.667 -33 -115.334 -57 -146.001c-24.667 -30 -58.334 -45 -101.001 -45h-24c-4.66699 0 -13.667 1.33301 -27 4l-67 19c-7.33301 1.33301 -16.333 2 -27 2h-18c-16 0 -29.167 -4.16699 -39.5 -12.5s-18.5 -21.833 -24.5 -40.5h-88
c11.333 58.667 29.666 104.334 54.999 137.001c24.667 28.667 57.667 43 99 43h30c7.33301 0 19 -1.33301 35 -4l70 -19h18h19c13.333 0 26.333 5.66699 39 17c11.333 11.333 18.666 26.333 21.999 45h88z" />
    <glyph glyph-name="uthnga" unicode="&#x169;" horiz-adv-x="1339" 
d="M94 1034l493.998 -0.000976562v-506c0 -70.667 6 -117.667 18 -141c10 -20.667 31.333 -31 64 -31c29.333 0 50.333 9.66699 63 29c11.333 24 17 71.667 17 143v506h493v-557c0 -179.333 -45.667 -309.666 -137 -390.999c-91.333 -83.333 -236.666 -125 -435.999 -125
s-345.166 41.5 -437.499 124.5s-138.5 213.5 -138.5 391.5v557zM904.998 1356h-1.99707c-14 -66.667 -33 -115.334 -57 -146.001c-24.667 -30 -58.334 -45 -101.001 -45h-24c-3.33301 0 -12.333 1.33301 -27 4l-67 19c-7.33301 1.33301 -16.333 2 -27 2h-18
c-16 0 -29.167 -4.16699 -39.5 -12.5s-18.5 -21.833 -24.5 -40.5h-88c11.333 58.667 29.666 104.334 54.999 137.001c24.667 28.667 57.667 43 99 43h30c7.33301 0 19 -1.33301 35 -4l70 -19h18h19c14.667 0 27.667 5.66699 39 17s18.666 26.333 21.999 45h88z" />
    <glyph glyph-name="florin" unicode="&#x192;" horiz-adv-x="1403" 
d="M451 594l-191.001 0.000976562l49 285h197l35 200c14.667 80.667 30.334 138 47.001 172c18.667 40 42.334 75 71.001 105c36.667 36.667 86.667 67.334 150 92.001c58.667 22 122.667 33 192 33c52 0 100.667 -2 146 -6c60.667 -10 101.667 -17.667 123 -23l-62 -373
c-22.667 7.33301 -38.334 11.666 -47.001 12.999c-8 1.33301 -19 2 -33 2c-30 0 -53.667 -9.66699 -71 -29c-18 -21.333 -31 -56 -39 -104l-14 -82h184l-53 -285h-183l-84 -463c-22 -118 -43.667 -207.333 -65 -268c-22.667 -62.667 -51.334 -115.334 -86.001 -158.001
c-39.333 -49.333 -94.666 -87.666 -165.999 -114.999c-73.333 -27.333 -155.333 -41 -246 -41c-32.667 0 -65.334 2.33301 -98.001 7c-38.667 4 -79 10 -121 18l64 371c6 -0.666992 12 -1.5 18 -2.5s12 -2.16699 18 -3.5c8.66699 -1.33301 20.334 -2 35.001 -2
c78 0 138.667 126 182 378l4 24.5c1.33301 8.33301 3 18.166 5 29.499z" />
    <glyph glyph-name="ochoa" unicode="&#x1a0;" horiz-adv-x="1735" 
d="M868 453c74 0 133.667 25 179 75c44.667 51.333 67 118.333 67 201c0 84.667 -22.333 152.334 -67 203.001c-46 50.667 -105.667 76 -179 76s-133.333 -25.333 -180 -76c-44.667 -50.667 -67 -118.334 -67 -203.001c0 -82.667 22.333 -149.667 67 -201
c46 -50 106 -75 180 -75zM1651 729v2.00195c0 -108 -19.333 -207.667 -58 -299c-40 -94.667 -95.333 -177.334 -166 -248.001c-72 -70 -156.333 -124.667 -253 -164c-96.667 -38 -198.667 -57 -306 -57c-108.667 0 -211 19 -307 57c-93.333 38 -178 93.333 -254 166
c-73.333 74 -128.666 155.333 -165.999 244c-36.667 91.333 -55 191.666 -55 300.999s18.333 209.666 55 300.999c38.667 90.667 94 172.667 166 246c73.333 71.333 157.333 126.666 252 165.999c95.333 36.667 198.333 55 309 55c109.333 0 212 -18.333 308 -55
c95.333 -38.667 180 -94 254 -166c38 -34.667 69.333 -73 94 -115c28 2.66699 48.667 17.334 62 44.001s22 62.5 26 107.5s6 103.833 6 176.5h160c0 -106 -7.33301 -188.5 -22 -247.5s-36.834 -101.5 -66.501 -127.5s-68.5 -41.667 -116.5 -47
c52 -101.333 78 -214.666 78 -339.999z" />
    <glyph glyph-name="octh" unicode="&#x1a1;" horiz-adv-x="1372" 
d="M666 373c36.667 0 66 13 88 39c22.667 26.667 34 60.667 34 102c0 42.667 -10.667 76.667 -32 102c-22 26 -52 39 -90 39c-37.333 0 -66.666 -13 -87.999 -39c-23.333 -26.667 -35 -60.667 -35 -102s11.667 -75.333 35 -102c21.333 -26 50.666 -39 87.999 -39zM1270 514
l0.00195312 6.00098c0 -75.333 -16.333 -149.666 -49 -222.999c-34.667 -72 -82.667 -134 -144 -186c-52 -45.333 -113.333 -81 -184 -107c-74 -24.667 -149.667 -37 -227 -37c-78.667 0 -154 12.333 -226 37c-70 24 -132 59.667 -186 107c-62 52 -109 114 -141 186
c-34.667 71.333 -52 145.666 -52 222.999c0 80 17.333 155 52 225c31.333 71.333 78.333 133 141 185c56.667 48.667 118.667 84 186 106c69.333 24.667 144.666 37 225.999 37c80 0 155.5 -12.333 226.5 -37s133.167 -60 186.5 -106
c59.333 -50 106.666 -111.667 141.999 -185c25.333 10.667 43.5 33 54.5 67s16.5 87.667 16.5 161c0 38 -0.666992 68.667 -2 92l156 2c-5.33301 -136.667 -24 -232.667 -56 -288s-79 -93 -141 -113c14 -30.667 21 -81.334 21 -152.001z" />
    <glyph glyph-name="uchoa" unicode="&#x1af;" horiz-adv-x="1602" 
d="M121 670l-0.00390625 792.002h526v-798c0 -94 11 -157.667 33 -191c22 -35.333 59.667 -53 113 -53c52.667 0 90 17.667 112 53c23.333 37.333 35 101 35 191v798h526v-327c34.667 14 58.334 46.167 71.001 96.5s19 125.833 19 226.5h160
c-4 -107.333 -15.667 -190 -35 -248s-46.166 -99.333 -80.499 -124s-79.166 -41.334 -134.499 -50.001v-366c0 -106.667 -6.66699 -192 -20 -256c-14.667 -70.667 -36.667 -127.334 -66 -170.001c-59.333 -92 -139 -161.667 -239 -209c-104 -49.333 -220 -74 -348 -74
c-128.667 0 -245 24.667 -349 74c-100 47.333 -179.667 117 -239 209c-27.333 42.667 -48.666 98.667 -63.999 168c-13.333 64 -20 150 -20 258z" />
    <glyph glyph-name="ucth" unicode="&#x1b0;" horiz-adv-x="1393" 
d="M94 1034l493.998 0.000976562v-506c0 -70.667 6 -117.667 18 -141c10 -20.667 31.333 -31 64 -31c29.333 0 50.333 9.66699 63 29c11.333 24 17 71.667 17 143v506h493v-321c34 12 57.5 43 70.5 93s19.5 125.333 19.5 226h160c-4 -105.333 -15.667 -186.833 -35 -244.5
s-46 -98.834 -80 -123.501s-79 -41.334 -135 -50.001v-137c0 -179.333 -45.667 -309.666 -137 -390.999c-91.333 -83.333 -236.666 -125 -435.999 -125s-345.166 41.5 -437.499 124.5s-138.5 213.5 -138.5 391.5v557z" />
    <glyph glyph-name="circumflex" unicode="&#x2c6;" horiz-adv-x="1024" 
d="M190 1171l185 351h274l182 -351h-153l-166 170l-168 -170h-154z" />
    <glyph glyph-name="tilde" unicode="&#x2dc;" horiz-adv-x="1024" 
d="M844 1497c-22 -92 -49.335 -156.67 -82.002 -194.003c-35.333 -41.333 -81 -62 -137 -62c-16.667 0 -29 0.666992 -37 2c-6 0.666992 -19 4 -39 10l-92 27c-8.66699 2.66699 -16 4.33398 -22 5.00098s-11.667 1.66699 -17 3c-16 2.66699 -25.667 4 -29 4
c-21.333 0 -39.166 -6.16699 -53.499 -18.5s-26.5 -32.166 -36.5 -59.499h-119c19.333 84.667 46 147 80 187c35.333 39.333 80.333 59 135 59c10 0 24.333 -1.33301 43 -4c10 -1.33301 25.667 -4.66602 47 -9.99902l95 -27c10.667 -2.66699 19.334 -4.66699 26.001 -6
s17 -2 31 -2c22.667 0 41 7.66699 55 23c16.667 15.333 27.667 36.333 33 63h119z" />
    <glyph glyph-name="abhuyenth" unicode="&#x300;" 
d="M-686 1597h221l135 -262h-123z" />
    <glyph glyph-name="absacth" unicode="&#x301;" 
d="M-123 1587l-233 -262h-123l135 262h221z" />
    <glyph glyph-name="absacth" unicode="&#x302;" 
d="M-123 1587l-233 -262h-123l135 262h221z" />
    <glyph glyph-name="abngath" unicode="&#x303;" 
d="M-420 1659h-1.99707c-14 -66.667 -33 -115.334 -57 -146.001c-24.667 -30 -58.334 -45 -101.001 -45h-24c-6.66699 0 -15.667 1.66699 -27 5l-67 18c-7.33301 1.33301 -16.333 2 -27 2h-18c-16 0 -29 -4 -39 -12c-10 -7.33301 -18.333 -21 -25 -41h-88
c11.333 58.667 29.666 104.334 54.999 137.001c24.667 28.667 57.667 43 99 43h30c7.33301 0 19 -1.33301 35 -4l70 -19h18h19c13.333 0 26.333 5.66699 39 17c11.333 11.333 18.666 26.333 21.999 45h88z" />
    <glyph glyph-name="abhoith" unicode="&#x309;" 
d="M-461 1300v141.998h19h12c18 0 30.333 3.33301 37 10c6.66699 4.66699 10 15 10 31c0 10.667 -0.666992 17.334 -2 20.001c-2.66699 2.66699 -8.66699 4 -18 4c-10.667 0 -17 -2 -19 -6c-2.66699 -5.33301 -4 -14.666 -4 -27.999h-180c2 55.333 21 99 57 131
c38 32.667 86.667 49 146 49c60.667 0 109.5 -17.167 146.5 -51.5s55.5 -79.5 55.5 -135.5c0 -50 -18.333 -90.167 -55 -120.5s-85.667 -45.5 -147 -45.5h-27h-31z" />
    <glyph glyph-name="ananghoa" unicode="&#x323;" 
d="M-737 -266c0 -38 -12.3311 -67.333 -36.998 -88s-58 -31 -100 -31c-42.667 0 -76.334 10.333 -101.001 31s-37 50 -37 88c0 37.333 12.333 66.666 37 87.999c23.333 18.667 57 28 101 28c43.333 0 76.666 -9.33301 99.999 -28c24.667 -21.333 37 -50.666 37 -87.999z" />
    <glyph glyph-name="ananghoa" unicode="&#xf02b;" 
d="M-737 -266c0 -38 -12.3311 -67.333 -36.998 -88s-58 -31 -100 -31c-42.667 0 -76.334 10.333 -101.001 31s-37 50 -37 88c0 37.333 12.333 66.666 37 87.999c23.333 18.667 57 28 101 28c43.333 0 76.666 -9.33301 99.999 -28c24.667 -21.333 37 -50.666 37 -87.999z" />
    <glyph glyph-name="ananghoa" unicode="&#xf029;" 
d="M-737 -266c0 -38 -12.3311 -67.333 -36.998 -88s-58 -31 -100 -31c-42.667 0 -76.334 10.333 -101.001 31s-37 50 -37 88c0 37.333 12.333 66.666 37 87.999c23.333 18.667 57 28 101 28c43.333 0 76.666 -9.33301 99.999 -28c24.667 -21.333 37 -50.666 37 -87.999z" />
    <glyph glyph-name="ananghoa" unicode="&#xf022;" 
d="M-737 -266c0 -38 -12.3311 -67.333 -36.998 -88s-58 -31 -100 -31c-42.667 0 -76.334 10.333 -101.001 31s-37 50 -37 88c0 37.333 12.333 66.666 37 87.999c23.333 18.667 57 28 101 28c43.333 0 76.666 -9.33301 99.999 -28c24.667 -21.333 37 -50.666 37 -87.999z" />
    <glyph glyph-name="ananghoa" unicode="&#xf021;" 
d="M-737 -266c0 -38 -12.3311 -67.333 -36.998 -88s-58 -31 -100 -31c-42.667 0 -76.334 10.333 -101.001 31s-37 50 -37 88c0 37.333 12.333 66.666 37 87.999c23.333 18.667 57 28 101 28c43.333 0 76.666 -9.33301 99.999 -28c24.667 -21.333 37 -50.666 37 -87.999z" />
    <glyph glyph-name="ananghoa" unicode="&#xf020;" 
d="M-737 -266c0 -38 -12.3311 -67.333 -36.998 -88s-58 -31 -100 -31c-42.667 0 -76.334 10.333 -101.001 31s-37 50 -37 88c0 37.333 12.333 66.666 37 87.999c23.333 18.667 57 28 101 28c43.333 0 76.666 -9.33301 99.999 -28c24.667 -21.333 37 -50.666 37 -87.999z" />
    <glyph glyph-name="ananghoa" unicode="&#xf01f;" 
d="M-737 -266c0 -38 -12.3311 -67.333 -36.998 -88s-58 -31 -100 -31c-42.667 0 -76.334 10.333 -101.001 31s-37 50 -37 88c0 37.333 12.333 66.666 37 87.999c23.333 18.667 57 28 101 28c43.333 0 76.666 -9.33301 99.999 -28c24.667 -21.333 37 -50.666 37 -87.999z" />
    <glyph glyph-name="ananghoa" unicode="&#xf01e;" 
d="M-737 -266c0 -38 -12.3311 -67.333 -36.998 -88s-58 -31 -100 -31c-42.667 0 -76.334 10.333 -101.001 31s-37 50 -37 88c0 37.333 12.333 66.666 37 87.999c23.333 18.667 57 28 101 28c43.333 0 76.666 -9.33301 99.999 -28c24.667 -21.333 37 -50.666 37 -87.999z" />
    <glyph glyph-name="ahuyenhoa" unicode="&#x340;" 
d="M-1065 1833h221l135 -262h-122z" />
    <glyph glyph-name="ahuyenhoa" unicode="&#xf00c;" 
d="M-1065 1833h221l135 -262h-122z" />
    <glyph glyph-name="asachoa" unicode="&#x341;" 
d="M-666 1853l-233 -262h-123l135 262h221z" />
    <glyph glyph-name="asachoa" unicode="&#xf007;" 
d="M-666 1853l-233 -262h-123l135 262h221z" />
    <glyph glyph-name="angahoa" unicode="&#x342;" 
d="M-614 1792l-2.00195 -0.000976562c-16 -69.333 -35.333 -117.666 -58 -144.999c-23.333 -30 -56.666 -45 -99.999 -45h-25c-4 0 -12.667 1.33301 -26 4l-68 18c-6.66699 1.33301 -15.667 2 -27 2h-18c-16 0 -29 -4 -39 -12c-9.33301 -7.33301 -17.333 -21 -24 -41h-89
c13.333 61.333 32 107 56 137c24 28.667 56.667 43 98 43h31c6 0 17.667 -1.33301 35 -4l69 -18h19h18c15.333 0 28.333 5.33301 39 16s18.334 25.667 23.001 45h88z" />
    <glyph glyph-name="angahoa" unicode="&#xf030;" 
d="M-614 1792l-2.00195 -0.000976562c-16 -69.333 -35.333 -117.666 -58 -144.999c-23.333 -30 -56.666 -45 -99.999 -45h-25c-4 0 -12.667 1.33301 -26 4l-68 18c-6.66699 1.33301 -15.667 2 -27 2h-18c-16 0 -29 -4 -39 -12c-9.33301 -7.33301 -17.333 -21 -24 -41h-89
c13.333 61.333 32 107 56 137c24 28.667 56.667 43 98 43h31c6 0 17.667 -1.33301 35 -4l69 -18h19h18c15.333 0 28.333 5.33301 39 16s18.334 25.667 23.001 45h88z" />
    <glyph glyph-name="angahoa" unicode="&#xf02e;" 
d="M-614 1792l-2.00195 -0.000976562c-16 -69.333 -35.333 -117.666 -58 -144.999c-23.333 -30 -56.666 -45 -99.999 -45h-25c-4 0 -12.667 1.33301 -26 4l-68 18c-6.66699 1.33301 -15.667 2 -27 2h-18c-16 0 -29 -4 -39 -12c-9.33301 -7.33301 -17.333 -21 -24 -41h-89
c13.333 61.333 32 107 56 137c24 28.667 56.667 43 98 43h31c6 0 17.667 -1.33301 35 -4l69 -18h19h18c15.333 0 28.333 5.33301 39 16s18.334 25.667 23.001 45h88z" />
    <glyph glyph-name="angahoa" unicode="&#xf01c;" 
d="M-614 1792l-2.00195 -0.000976562c-16 -69.333 -35.333 -117.666 -58 -144.999c-23.333 -30 -56.666 -45 -99.999 -45h-25c-4 0 -12.667 1.33301 -26 4l-68 18c-6.66699 1.33301 -15.667 2 -27 2h-18c-16 0 -29 -4 -39 -12c-9.33301 -7.33301 -17.333 -21 -24 -41h-89
c13.333 61.333 32 107 56 137c24 28.667 56.667 43 98 43h31c6 0 17.667 -1.33301 35 -4l69 -18h19h18c15.333 0 28.333 5.33301 39 16s18.334 25.667 23.001 45h88z" />
    <glyph glyph-name="angahoa" unicode="&#xf017;" 
d="M-614 1792l-2.00195 -0.000976562c-16 -69.333 -35.333 -117.666 -58 -144.999c-23.333 -30 -56.666 -45 -99.999 -45h-25c-4 0 -12.667 1.33301 -26 4l-68 18c-6.66699 1.33301 -15.667 2 -27 2h-18c-16 0 -29 -4 -39 -12c-9.33301 -7.33301 -17.333 -21 -24 -41h-89
c13.333 61.333 32 107 56 137c24 28.667 56.667 43 98 43h31c6 0 17.667 -1.33301 35 -4l69 -18h19h18c15.333 0 28.333 5.33301 39 16s18.334 25.667 23.001 45h88z" />
    <glyph glyph-name="angahoa" unicode="&#xf016;" 
d="M-614 1792l-2.00195 -0.000976562c-16 -69.333 -35.333 -117.666 -58 -144.999c-23.333 -30 -56.666 -45 -99.999 -45h-25c-4 0 -12.667 1.33301 -26 4l-68 18c-6.66699 1.33301 -15.667 2 -27 2h-18c-16 0 -29 -4 -39 -12c-9.33301 -7.33301 -17.333 -21 -24 -41h-89
c13.333 61.333 32 107 56 137c24 28.667 56.667 43 98 43h31c6 0 17.667 -1.33301 35 -4l69 -18h19h18c15.333 0 28.333 5.33301 39 16s18.334 25.667 23.001 45h88z" />
    <glyph glyph-name="ahoanang" unicode="&#x1ea0;" horiz-adv-x="1507" 
d="M641 532h219l-45 166c-22.667 86 -37.667 151 -45 195c-7.33301 39.333 -12 81.666 -14 126.999h-11c-2 -45.333 -6.66699 -87.666 -14 -126.999c-9.33301 -54 -24.333 -119 -45 -195zM-57 0l522 1464h586l512 -1464h-566l-47 184h-397l-45 -184h-565zM897 -254
c0 -38.667 -12.333 -68.168 -37 -88.501s-58 -30.5 -100 -30.5c-41.333 0 -75 10.333 -101 31c-24 20 -36 49.333 -36 88s11.833 67.834 35.5 87.501s57.5 29.5 101.5 29.5c44.667 0 78 -9.66699 100 -29c24.667 -20 37 -49.333 37 -88z" />
    <glyph glyph-name="athnang" unicode="&#x1ea1;" horiz-adv-x="1389" 
d="M549 520c0 -45.333 12.332 -80.666 36.999 -105.999c22 -27.333 52.667 -41 92 -41c40.667 0 72 13.667 94 41c23.333 26.667 35 62 35 106c0 45.333 -11.667 81.666 -35 108.999c-25.333 27.333 -56.666 41 -93.999 41c-38 0 -68.667 -13.667 -92 -41
c-24.667 -26.667 -37 -63 -37 -109zM822.999 0l-0.00195312 156c-51.333 -68.667 -103.666 -118 -156.999 -148c-56.667 -31.333 -117 -47 -181 -47c-119.333 0 -219 51.333 -299 154c-38.667 48.667 -68 106.5 -88 173.5s-30 140.167 -30 219.5
c0 168.667 38.667 303.667 116 405c76 102.667 176.333 154 301 154c64.667 0 122.667 -13.667 174 -41c52.667 -29.333 101.334 -72.333 146.001 -129v137h481v-1034h-463zM828.997 -272c0 -38.667 -12.168 -68.167 -36.501 -88.5s-57.833 -30.5 -100.5 -30.5
c-43.333 0 -76.666 10.333 -99.999 31c-24.667 20 -37 49.333 -37 88c0 38 12.333 67.333 37 88c22.667 18.667 56 28 100 28s77.667 -9.33301 101 -28c24 -20.667 36 -50 36 -88z" />
    <glyph glyph-name="ahoahoi" unicode="&#x1ea2;" horiz-adv-x="1507" 
d="M641 532h219l-45 166c-22.667 86 -37.667 151 -45 195c-7.33301 39.333 -12 81.666 -14 126.999h-11c-2 -45.333 -6.66699 -87.666 -14 -126.999c-9.33301 -54 -24.333 -119 -45 -195zM-57 0l522 1464h586l512 -1464h-566l-47 184h-397l-45 -184h-565zM666 1567
l0.000976562 140.998h18h12c18 0 30.333 3.33301 37 10c6.66699 4.66699 10 15 10 31c0 10.667 -0.666992 17.334 -2 20.001c-2.66699 3.33301 -8.66699 5 -18 5c-10 0 -16 -2.33301 -18 -7c-3.33301 -4.66699 -5 -14 -5 -28h-180c2 54.667 21.333 98.334 58 131.001
c35.333 32.667 83.666 49 144.999 49c63.333 0 112.333 -17 147 -51c37.333 -35.333 56 -80.333 56 -135c0 -50.667 -18.667 -91 -56 -121c-34.667 -30 -83.667 -45 -147 -45h-27h-30z" />
    <glyph glyph-name="athhoi" unicode="&#x1ea3;" horiz-adv-x="1389" 
d="M549 520c0 -45.333 12.332 -80.666 36.999 -105.999c22 -27.333 52.667 -41 92 -41c40.667 0 72 13.667 94 41c23.333 26.667 35 62 35 106c0 45.333 -11.667 81.666 -35 108.999c-25.333 27.333 -56.666 41 -93.999 41c-38 0 -68.667 -13.667 -92 -41
c-24.667 -26.667 -37 -63 -37 -109zM822.999 0l-0.00195312 156c-51.333 -68.667 -103.666 -118 -156.999 -148c-56.667 -31.333 -117 -47 -181 -47c-119.333 0 -219 51.333 -299 154c-38.667 48.667 -68 106.5 -88 173.5s-30 140.167 -30 219.5
c0 168.667 38.667 303.667 116 405c76 102.667 176.333 154 301 154c64.667 0 122.667 -13.667 174 -41c52.667 -29.333 101.334 -72.333 146.001 -129v137h481v-1034h-463zM679.997 1169l0.000976562 141.999h18h13c17.333 0 29.666 3.33301 36.999 10
c6.66699 4.66699 10 15 10 31c0 10.667 -0.666992 17.334 -2 20.001c-2.66699 2.66699 -9 4 -19 4s-16 -2 -18 -6c-2.66699 -5.33301 -4 -15 -4 -29h-180c2 56 21 100 57 132c38 32.667 86.333 49 145 49c62 0 111.333 -17.333 148 -52c36.667 -34 55 -79 55 -135
c0 -50 -18.333 -90.333 -55 -121c-36.667 -30 -86 -45 -148 -45h-26h-31z" />
    <glyph glyph-name="abhoasac" unicode="&#x1ea4;" horiz-adv-x="1507" 
d="M641 532h219l-45 166c-22.667 86 -37.667 151 -45 195c-7.33301 39.333 -12 81.666 -14 126.999h-11c-2 -45.333 -6.66699 -87.666 -14 -126.999c-9.33301 -54 -24.333 -119 -45 -195zM-57 0l522 1464h586l512 -1464h-566l-47 184h-397l-45 -184h-565zM485 1526l146 262
h219l145 -262h-123l-131 127l-133 -127h-123zM1329 1978l-233 -262h-123l135 262h221z" />
    <glyph glyph-name="abthsac" unicode="&#x1ea5;" horiz-adv-x="1389" 
d="M549 520c0 -45.333 12.332 -80.666 36.999 -105.999c22 -27.333 52.667 -41 92 -41c40.667 0 72 13.667 94 41c23.333 26.667 35 62 35 106c0 45.333 -11.667 81.666 -35 108.999c-25.333 27.333 -56.666 41 -93.999 41c-38 0 -68.667 -13.667 -92 -41
c-24.667 -26.667 -37 -63 -37 -109zM822.999 0l-0.00195312 156c-51.333 -68.667 -103.666 -118 -156.999 -148c-56.667 -31.333 -117 -47 -181 -47c-119.333 0 -219 51.333 -299 154c-38.667 48.667 -68 106.5 -88 173.5s-30 140.167 -30 219.5
c0 168.667 38.667 303.667 116 405c76 102.667 176.333 154 301 154c64.667 0 122.667 -13.667 174 -41c52.667 -29.333 101.334 -72.333 146.001 -129v137h481v-1034h-463zM484.997 1149l146 262h219l145 -262h-123l-131 127l-133 -127h-123zM1329 1602l-233 -263h-123
l135 263h221z" />
    <glyph glyph-name="abhoahuyen" unicode="&#x1ea6;" horiz-adv-x="1507" 
d="M641 532h219l-45 166c-22.667 86 -37.667 151 -45 195c-7.33301 39.333 -12 81.666 -14 126.999h-11c-2 -45.333 -6.66699 -87.666 -14 -126.999c-9.33301 -54 -24.333 -119 -45 -195zM-57 0l522 1464h586l512 -1464h-566l-47 184h-397l-45 -184h-565zM485 1526l146 262
h219l145 -262h-123l-131 127l-133 -127h-123zM735 2040h221l136 -262h-123z" />
    <glyph glyph-name="abthhuyen" unicode="&#x1ea7;" horiz-adv-x="1389" 
d="M549 520c0 -45.333 12.332 -80.666 36.999 -105.999c22 -27.333 52.667 -41 92 -41c40.667 0 72 13.667 94 41c23.333 26.667 35 62 35 106c0 45.333 -11.667 81.666 -35 108.999c-25.333 27.333 -56.666 41 -93.999 41c-38 0 -68.667 -13.667 -92 -41
c-24.667 -26.667 -37 -63 -37 -109zM822.999 0l-0.00195312 156c-51.333 -68.667 -103.666 -118 -156.999 -148c-56.667 -31.333 -117 -47 -181 -47c-119.333 0 -219 51.333 -299 154c-38.667 48.667 -68 106.5 -88 173.5s-30 140.167 -30 219.5
c0 168.667 38.667 303.667 116 405c76 102.667 176.333 154 301 154c64.667 0 122.667 -13.667 174 -41c52.667 -29.333 101.334 -72.333 146.001 -129v137h481v-1034h-463zM484.997 1149l146 262h219l145 -262h-123l-131 127l-133 -127h-123zM734.997 1663h221l136 -262
h-123z" />
    <glyph glyph-name="abhoahoi" unicode="&#x1ea8;" horiz-adv-x="1507" 
d="M641 532h219l-45 166c-22.667 86 -37.667 151 -45 195c-7.33301 39.333 -12 81.666 -14 126.999h-11c-2 -45.333 -6.66699 -87.666 -14 -126.999c-9.33301 -54 -24.333 -119 -45 -195zM-57 0l522 1464h586l512 -1464h-566l-47 184h-397l-45 -184h-565zM485 1526l146 262
h219l145 -262h-123l-131 127l-133 -127h-123zM967 1696l0.000976562 140.997h18h12c18 0 30.333 3.33301 37 10c6.66699 4.66699 10 15 10 31c0 10.667 -0.666992 17.334 -2 20.001c-2.66699 3.33301 -8.66699 5 -18 5c-10 0 -16 -2.33301 -18 -7
c-3.33301 -6.66699 -5 -16 -5 -28h-180c2 54.667 21.333 98.334 58 131.001c35.333 32.667 83.666 49 144.999 49c63.333 0 112.333 -17 147 -51c37.333 -35.333 56 -80.333 56 -135c0 -49.333 -18.667 -89.666 -56 -120.999c-34.667 -30 -83.667 -45 -147 -45h-27h-30z" />
    <glyph glyph-name="abthhoi" unicode="&#x1ea9;" horiz-adv-x="1389" 
d="M549 520c0 -45.333 12.332 -80.666 36.999 -105.999c22 -27.333 52.667 -41 92 -41c40.667 0 72 13.667 94 41c23.333 26.667 35 62 35 106c0 45.333 -11.667 81.666 -35 108.999c-25.333 27.333 -56.666 41 -93.999 41c-38 0 -68.667 -13.667 -92 -41
c-24.667 -26.667 -37 -63 -37 -109zM822.999 0l-0.00195312 156c-51.333 -68.667 -103.666 -118 -156.999 -148c-56.667 -31.333 -117 -47 -181 -47c-119.333 0 -219 51.333 -299 154c-38.667 48.667 -68 106.5 -88 173.5s-30 140.167 -30 219.5
c0 168.667 38.667 303.667 116 405c76 102.667 176.333 154 301 154c64.667 0 122.667 -13.667 174 -41c52.667 -29.333 101.334 -72.333 146.001 -129v137h481v-1034h-463zM484.997 1149l146 262h219l145 -262h-123l-131 127l-133 -127h-123zM966.997 1319
l0.000976562 140.999h18h12c18 0 30.333 3.16699 37 9.5s10 16.833 10 31.5c0 11.333 -0.666992 18.333 -2 21c-2.66699 2.66699 -8.66699 4 -18 4c-10 0 -16 -2 -18 -6c-3.33301 -6.66699 -5 -16.334 -5 -29.001h-180c2 54.667 21.333 98.334 58 131.001
c35.333 32.667 83.666 49 144.999 49c63.333 0 112.333 -17 147 -51c37.333 -35.333 56 -80.333 56 -135c0 -49.333 -18.667 -89.666 -56 -120.999c-34.667 -30 -83.667 -45 -147 -45h-27h-30z" />
    <glyph glyph-name="abhoanga" unicode="&#x1eaa;" horiz-adv-x="1507" 
d="M641 532h219l-45 166c-22.667 86 -37.667 151 -45 195c-7.33301 39.333 -12 81.666 -14 126.999h-11c-2 -45.333 -6.66699 -87.666 -14 -126.999c-9.33301 -54 -24.333 -119 -45 -195zM-57 0l522 1464h586l512 -1464h-566l-47 184h-397l-45 -184h-565zM485 1526l146 262
h219l145 -262h-123l-131 127l-133 -127h-123zM985 2079l-1.99805 -0.000976562c-14 -66.667 -33 -115.334 -57 -146.001c-24.667 -30 -58.334 -45 -101.001 -45h-24c-4.66699 0 -13.667 1.33301 -27 4l-67 19c-7.33301 1.33301 -16.333 2 -27 2h-18
c-16 0 -29.167 -4.16699 -39.5 -12.5s-18.5 -21.833 -24.5 -40.5h-88c11.333 58.667 29.666 104.334 54.999 137.001c25.333 28.667 58.333 43 99 43h30c7.33301 0 19 -1.33301 35 -4l70 -19h18h19c15.333 0 28 5.66699 38 17c11.333 10.667 19 25.667 23 45.001h88z" />
    <glyph glyph-name="abthnga" unicode="&#x1eab;" horiz-adv-x="1389" 
d="M549 520c0 -45.333 12.332 -80.666 36.999 -105.999c22 -27.333 52.667 -41 92 -41c40.667 0 72 13.667 94 41c23.333 26.667 35 62 35 106c0 45.333 -11.667 81.666 -35 108.999c-25.333 27.333 -56.666 41 -93.999 41c-38 0 -68.667 -13.667 -92 -41
c-24.667 -26.667 -37 -63 -37 -109zM822.999 0l-0.00195312 156c-51.333 -68.667 -103.666 -118 -156.999 -148c-56.667 -31.333 -117 -47 -181 -47c-119.333 0 -219 51.333 -299 154c-38.667 48.667 -68 106.5 -88 173.5s-30 140.167 -30 219.5
c0 168.667 38.667 303.667 116 405c76 102.667 176.333 154 301 154c64.667 0 122.667 -13.667 174 -41c52.667 -29.333 101.334 -72.333 146.001 -129v137h481v-1034h-463zM484.997 1149l146 262h219l145 -262h-123l-131 127l-133 -127h-123zM984.997 1702h-1.99805
c-14 -66.667 -33 -115.334 -57 -146.001c-24.667 -30 -58.334 -45 -101.001 -45h-24c-6.66699 0 -15.667 1.66699 -27 5l-67 18c-7.33301 1.33301 -16.333 2 -27 2h-18c-16 0 -29 -4 -39 -12c-10 -7.33301 -18.333 -21 -25 -41h-88
c11.333 58.667 29.666 104.334 54.999 137.001c24.667 28.667 57.667 43 99 43h30c7.33301 0 19 -1.33301 35 -4l70 -19h18h19c14 0 26.667 5.5 38 16.5s19 26.167 23 45.5h88z" />
    <glyph glyph-name="abhoanang" unicode="&#x1eac;" horiz-adv-x="1507" 
d="M641 532h219l-45 166c-22.667 86 -37.667 151 -45 195c-7.33301 39.333 -12 81.666 -14 126.999h-11c-2 -45.333 -6.66699 -87.666 -14 -126.999c-9.33301 -54 -24.333 -119 -45 -195zM-57 0l522 1464h586l512 -1464h-566l-47 184h-397l-45 -184h-565zM485 1526l146 262
h219l145 -262h-123l-131 127l-133 -127h-123zM891 -244c0 -38 -12.332 -67.332 -36.999 -87.999c-24.667 -20 -58 -30 -100 -30s-75.667 10 -101 30c-24.667 21.333 -37 50.666 -37 87.999c0 38 12.333 67.333 37 88c23.333 19.333 57 29 101 29
c43.333 0 76.666 -9.66699 99.999 -29c24.667 -20 37 -49.333 37 -88z" />
    <glyph glyph-name="abthnang" unicode="&#x1ead;" horiz-adv-x="1389" 
d="M549 520c0 -45.333 12.332 -80.666 36.999 -105.999c22 -27.333 52.667 -41 92 -41c40.667 0 72 13.667 94 41c23.333 26.667 35 62 35 106c0 45.333 -11.667 81.666 -35 108.999c-25.333 27.333 -56.666 41 -93.999 41c-38 0 -68.667 -13.667 -92 -41
c-24.667 -26.667 -37 -63 -37 -109zM822.999 0l-0.00195312 156c-51.333 -68.667 -103.666 -118 -156.999 -148c-56.667 -31.333 -117 -47 -181 -47c-119.333 0 -219 51.333 -299 154c-38.667 48.667 -68 106.5 -88 173.5s-30 140.167 -30 219.5
c0 168.667 38.667 303.667 116 405c76 102.667 176.333 154 301 154c64.667 0 122.667 -13.667 174 -41c52.667 -29.333 101.334 -72.333 146.001 -129v137h481v-1034h-463zM484.997 1149l146 262h219l145 -262h-123l-131 127l-133 -127h-123zM859.997 -242
c0 -38 -12.333 -67.333 -37 -88c-24 -20 -57.333 -30 -100 -30s-76 10 -100 30c-24.667 20.667 -37 50 -37 88c0 38.667 12.333 68 37 88c22 19.333 55.333 29 100 29s78 -9.66699 100 -29c24.667 -20 37 -49.333 37 -88z" />
    <glyph glyph-name="aahoasac" unicode="&#x1eae;" horiz-adv-x="1507" 
d="M641 532h219l-45 166c-22.667 86 -37.667 151 -45 195c-7.33301 39.333 -12 81.666 -14 126.999h-11c-2 -45.333 -6.66699 -87.666 -14 -126.999c-9.33301 -54 -24.333 -119 -45 -195zM-57 0l522 1464h586l512 -1464h-566l-47 184h-397l-45 -184h-565zM496 1761l108 2
c2 -34.667 15 -59.667 39 -75c22.667 -15.333 57.667 -23 105 -23c46 0 81.333 8.33301 106 25c23.333 16 35 41 35 75h104c-6 -80 -29.167 -138.167 -69.5 -174.5s-99.833 -54.5 -178.5 -54.5c-79.333 0 -139.333 18.333 -180 55c-42 38 -65 94.667 -69 170zM1032 2109
l-233 -262h-123l135 262h221z" />
    <glyph glyph-name="aathsac" unicode="&#x1eaf;" horiz-adv-x="1389" 
d="M549 520c0 -45.333 12.332 -80.666 36.999 -105.999c22 -27.333 52.667 -41 92 -41c40.667 0 72 13.667 94 41c23.333 26.667 35 62 35 106c0 45.333 -11.667 81.666 -35 108.999c-25.333 27.333 -56.666 41 -93.999 41c-38 0 -68.667 -13.667 -92 -41
c-24.667 -26.667 -37 -63 -37 -109zM822.999 0l-0.00195312 156c-51.333 -68.667 -103.666 -118 -156.999 -148c-56.667 -31.333 -117 -47 -181 -47c-119.333 0 -219 51.333 -299 154c-38.667 48.667 -68 106.5 -88 173.5s-30 140.167 -30 219.5
c0 168.667 38.667 303.667 116 405c76 102.667 176.333 154 301 154c64.667 0 122.667 -13.667 174 -41c52.667 -29.333 101.334 -72.333 146.001 -129v137h481v-1034h-463zM577.997 1354l108 1.99902c2 -35.333 15 -60.666 39 -75.999s58.667 -23 104 -23
s81 8.33301 107 25c23.333 16.667 35 42 35 76h104c-6 -80 -29 -138 -69 -174c-41.333 -37.333 -101 -56 -179 -56c-78.667 0 -138.667 18.667 -180 56c-42 38 -65 94.667 -69 170zM1114 1702l-233 -262h-123l135 262h221z" />
    <glyph glyph-name="aahoahuyen" unicode="&#x1eb0;" horiz-adv-x="1507" 
d="M641 532h219l-45 166c-22.667 86 -37.667 151 -45 195c-7.33301 39.333 -12 81.666 -14 126.999h-11c-2 -45.333 -6.66699 -87.666 -14 -126.999c-9.33301 -54 -24.333 -119 -45 -195zM-57 0l522 1464h586l512 -1464h-566l-47 184h-397l-45 -184h-565zM496 1761l108 2
c2 -34.667 15 -59.667 39 -75c22.667 -15.333 57.667 -23 105 -23c46 0 81.333 8.33301 106 25c23.333 16 35 41 35 75h104c-6 -80 -29.167 -138.167 -69.5 -174.5s-99.833 -54.5 -178.5 -54.5c-79.333 0 -139.333 18.333 -180 55c-42 38 -65 94.667 -69 170zM479 2109h221
l136 -262h-123z" />
    <glyph glyph-name="aathhuyen" unicode="&#x1eb1;" horiz-adv-x="1389" 
d="M549 520c0 -45.333 12.332 -80.666 36.999 -105.999c22 -27.333 52.667 -41 92 -41c40.667 0 72 13.667 94 41c23.333 26.667 35 62 35 106c0 45.333 -11.667 81.666 -35 108.999c-25.333 27.333 -56.666 41 -93.999 41c-38 0 -68.667 -13.667 -92 -41
c-24.667 -26.667 -37 -63 -37 -109zM822.999 0l-0.00195312 156c-51.333 -68.667 -103.666 -118 -156.999 -148c-56.667 -31.333 -117 -47 -181 -47c-119.333 0 -219 51.333 -299 154c-38.667 48.667 -68 106.5 -88 173.5s-30 140.167 -30 219.5
c0 168.667 38.667 303.667 116 405c76 102.667 176.333 154 301 154c64.667 0 122.667 -13.667 174 -41c52.667 -29.333 101.334 -72.333 146.001 -129v137h481v-1034h-463zM577.997 1354l108 1.99902c2 -35.333 15 -60.666 39 -75.999s58.667 -23 104 -23
s81 8.33301 107 25c23.333 16.667 35 42 35 76h104c-6 -80 -29 -138 -69 -174c-41.333 -37.333 -101 -56 -179 -56c-78.667 0 -138.667 18.667 -180 56c-42 38 -65 94.667 -69 170zM560.997 1702h221l136 -262h-123z" />
    <glyph glyph-name="aahoahoi" unicode="&#x1eb2;" horiz-adv-x="1507" 
d="M641 532h219l-45 166c-22.667 86 -37.667 151 -45 195c-7.33301 39.333 -12 81.666 -14 126.999h-11c-2 -45.333 -6.66699 -87.666 -14 -126.999c-9.33301 -54 -24.333 -119 -45 -195zM-57 0l522 1464h586l512 -1464h-566l-47 184h-397l-45 -184h-565zM496 1761l108 2
c2 -34.667 15 -59.667 39 -75c22.667 -15.333 57.667 -23 105 -23c46 0 81.333 8.33301 106 25c23.333 16 35 41 35 75h104c-6 -80 -29.167 -138.167 -69.5 -174.5s-99.833 -54.5 -178.5 -54.5c-79.333 0 -139.333 18.333 -180 55c-42 38 -65 94.667 -69 170zM700 1827
l-0.000976562 141h19h12c18 0 30.333 3.16699 37 9.5s10 16.833 10 31.5c0 10.667 -0.666992 17.667 -2 21c-2.66699 2.66699 -8.66699 4 -18 4c-10.667 0 -17 -2 -19 -6c-2.66699 -6.66699 -4 -16.334 -4 -29.001h-180c2 55.333 21 99 57 131
c36.667 32.667 85.334 49 146.001 49c62 0 111 -17 147 -51c37.333 -35.333 56 -80.333 56 -135c0 -49.333 -18.667 -89.666 -56 -120.999c-36 -30 -85 -45 -147 -45h-27h-31z" />
    <glyph glyph-name="aathhoi" unicode="&#x1eb3;" horiz-adv-x="1389" 
d="M549 520c0 -45.333 12.332 -80.666 36.999 -105.999c22 -27.333 52.667 -41 92 -41c40.667 0 72 13.667 94 41c23.333 26.667 35 62 35 106c0 45.333 -11.667 81.666 -35 108.999c-25.333 27.333 -56.666 41 -93.999 41c-38 0 -68.667 -13.667 -92 -41
c-24.667 -26.667 -37 -63 -37 -109zM822.999 0l-0.00195312 156c-51.333 -68.667 -103.666 -118 -156.999 -148c-56.667 -31.333 -117 -47 -181 -47c-119.333 0 -219 51.333 -299 154c-38.667 48.667 -68 106.5 -88 173.5s-30 140.167 -30 219.5
c0 168.667 38.667 303.667 116 405c76 102.667 176.333 154 301 154c64.667 0 122.667 -13.667 174 -41c52.667 -29.333 101.334 -72.333 146.001 -129v137h481v-1034h-463zM577.997 1354l108 1.99902c2 -35.333 15 -60.666 39 -75.999s58.667 -23 104 -23
s81 8.33301 107 25c23.333 16.667 35 42 35 76h104c-6 -80 -29 -138 -69 -174c-41.333 -37.333 -101 -56 -179 -56c-78.667 0 -138.667 18.667 -180 56c-42 38 -65 94.667 -69 170zM781.997 1419v141.999h19h12c18 0 30.333 3.33301 37 10c6.66699 4.66699 10 15 10 31
c0 10.667 -0.666992 17.334 -2 20.001c-2.66699 2.66699 -8.66699 4 -18 4c-10.667 0 -17 -2 -19 -6c-2.66699 -5.33301 -4 -15 -4 -29h-180c2 56 21 99.667 57 131c37.333 33.333 86 50 146 50c61.333 0 110.333 -17.333 147 -52c36.667 -34 55 -79 55 -135
c0 -50 -18.333 -90.333 -55 -121c-36.667 -30 -85.667 -45 -147 -45h-27h-31z" />
    <glyph glyph-name="aahoanga" unicode="&#x1eb4;" horiz-adv-x="1507" 
d="M641 532h219l-45 166c-22.667 86 -37.667 151 -45 195c-7.33301 39.333 -12 81.666 -14 126.999h-11c-2 -45.333 -6.66699 -87.666 -14 -126.999c-9.33301 -54 -24.333 -119 -45 -195zM-57 0l522 1464h586l512 -1464h-566l-47 184h-397l-45 -184h-565zM496 1761l108 2
c2 -34.667 15 -59.667 39 -75c22.667 -15.333 57.667 -23 105 -23c46 0 81.333 8.33301 106 25c23.333 16 35 41 35 75h104c-6 -80 -29.167 -138.167 -69.5 -174.5s-99.833 -54.5 -178.5 -54.5c-79.333 0 -139.333 18.333 -180 55c-42 38 -65 94.667 -69 170zM995 2087
l-1.99805 -0.000976562c-14.667 -68.667 -33.667 -117 -57 -145c-24.667 -30.667 -58 -46 -100 -46h-25c-6 0 -15 1.66699 -27 5l-67 18c-6.66699 1.33301 -15.667 2 -27 2h-18c-16 0 -29 -4 -39 -12s-18.333 -21.667 -25 -41h-88
c11.333 58.667 29.666 104.334 54.999 137.001c24.667 28.667 57.667 43 99 43h31c6.66699 0 18 -1.33301 34 -4l70 -19h18h19c13.333 0 26.333 5.66699 39 17c11.333 11.333 18.666 26.333 21.999 45h88z" />
    <glyph glyph-name="aathnga" unicode="&#x1eb5;" horiz-adv-x="1389" 
d="M549 520c0 -45.333 12.332 -80.666 36.999 -105.999c22 -27.333 52.667 -41 92 -41c40.667 0 72 13.667 94 41c23.333 26.667 35 62 35 106c0 45.333 -11.667 81.666 -35 108.999c-25.333 27.333 -56.666 41 -93.999 41c-38 0 -68.667 -13.667 -92 -41
c-24.667 -26.667 -37 -63 -37 -109zM822.999 0l-0.00195312 156c-51.333 -68.667 -103.666 -118 -156.999 -148c-56.667 -31.333 -117 -47 -181 -47c-119.333 0 -219 51.333 -299 154c-38.667 48.667 -68 106.5 -88 173.5s-30 140.167 -30 219.5
c0 168.667 38.667 303.667 116 405c76 102.667 176.333 154 301 154c64.667 0 122.667 -13.667 174 -41c52.667 -29.333 101.334 -72.333 146.001 -129v137h481v-1034h-463zM577.997 1354l108 1.99902c2 -35.333 15 -60.666 39 -75.999s58.667 -23 104 -23
s81 8.33301 107 25c23.333 16.667 35 42 35 76h104c-6 -80 -29 -138 -69 -174c-41.333 -37.333 -101 -56 -179 -56c-78.667 0 -138.667 18.667 -180 56c-42 38 -65 94.667 -69 170zM1077 1679h-1.99805c-14 -66 -33 -114.333 -57 -145c-24 -30 -57.333 -45 -100 -45h-25
c-3.33301 0 -12.333 1.33301 -27 4l-67 18c-7.33301 1.33301 -16.333 2 -27 2h-18c-16 0 -29.167 -4.16699 -39.5 -12.5s-18.5 -21.833 -24.5 -40.5h-88c11.333 60 29.666 105.667 54.999 137c24.667 28.667 57.667 43 99 43h30c7.33301 0 19 -1.33301 35 -4l70 -18h18h19
c14 0 27 5.33301 39 16c11.333 12 18.666 27 21.999 45h88z" />
    <glyph glyph-name="aahoanang" unicode="&#x1eb6;" horiz-adv-x="1507" 
d="M641 532h219l-45 166c-22.667 86 -37.667 151 -45 195c-7.33301 39.333 -12 81.666 -14 126.999h-11c-2 -45.333 -6.66699 -87.666 -14 -126.999c-9.33301 -54 -24.333 -119 -45 -195zM-57 0l522 1464h586l512 -1464h-566l-47 184h-397l-45 -184h-565zM496 1761l108 2
c2 -34.667 15 -59.667 39 -75c22.667 -15.333 57.667 -23 105 -23c46 0 81.333 8.33301 106 25c23.333 16 35 41 35 75h104c-6 -80 -29.167 -138.167 -69.5 -174.5s-99.833 -54.5 -178.5 -54.5c-79.333 0 -139.333 18.333 -180 55c-42 38 -65 94.667 -69 170zM881 -244
c0 -37.333 -12.332 -66.667 -36.999 -88c-24.667 -20 -58.334 -30 -101.001 -30c-41.333 0 -74.666 10 -99.999 30c-24.667 20.667 -37 50 -37 88c0 38.667 12.333 68 37 88c23.333 19.333 56.666 29 99.999 29c44 0 77.667 -9.66699 101 -29c24.667 -20.667 37 -50 37 -88z
" />
    <glyph glyph-name="aathnang" unicode="&#x1eb7;" horiz-adv-x="1389" 
d="M549 520c0 -45.333 12.332 -80.666 36.999 -105.999c22 -27.333 52.667 -41 92 -41c40.667 0 72 13.667 94 41c23.333 26.667 35 62 35 106c0 45.333 -11.667 81.666 -35 108.999c-25.333 27.333 -56.666 41 -93.999 41c-38 0 -68.667 -13.667 -92 -41
c-24.667 -26.667 -37 -63 -37 -109zM822.999 0l-0.00195312 156c-51.333 -68.667 -103.666 -118 -156.999 -148c-56.667 -31.333 -117 -47 -181 -47c-119.333 0 -219 51.333 -299 154c-38.667 48.667 -68 106.5 -88 173.5s-30 140.167 -30 219.5
c0 168.667 38.667 303.667 116 405c76 102.667 176.333 154 301 154c64.667 0 122.667 -13.667 174 -41c52.667 -29.333 101.334 -72.333 146.001 -129v137h481v-1034h-463zM577.997 1354l108 1.99902c2 -35.333 15 -60.666 39 -75.999s58.667 -23 104 -23
s81 8.33301 107 25c23.333 16.667 35 42 35 76h104c-6 -80 -29 -138 -69 -174c-41.333 -37.333 -101 -56 -179 -56c-78.667 0 -138.667 18.667 -180 56c-42 38 -65 94.667 -69 170zM890.997 -252.001c0 -38 -12.332 -67.332 -36.999 -87.999
c-26 -20.667 -59.333 -31 -100 -31c-41.333 0 -75 10.333 -101 31c-24.667 21.333 -37 50.666 -37 87.999c0 38 12.333 67.333 37 88c23.333 19.333 57 29 101 29c43.333 0 76.666 -9.66699 99.999 -29c24.667 -20 37 -49.333 37 -88z" />
    <glyph glyph-name="ehoanang" unicode="&#x1eb8;" horiz-adv-x="1204" 
d="M137 0v1464h979v-397h-463v-141h420v-375h-420v-154h475v-397h-991zM756 -244c0 -37.333 -12.332 -66.666 -36.999 -87.999c-24.667 -20 -58.334 -30 -101.001 -30c-41.333 0 -74.666 10 -99.999 30c-24.667 21.333 -37 50.666 -37 87.999c0 38 12.333 67.333 37 88
c23.333 19.333 56.666 29 99.999 29c44 0 77.667 -9.66699 101 -29c24.667 -20.667 37 -50 37 -88z" />
    <glyph glyph-name="ethnang" unicode="&#x1eb9;" horiz-adv-x="1321" 
d="M1272 434h-712.999v-16c0 -50.667 9.66699 -89.667 29 -117c17.333 -26 46 -39 86 -39c24 0 44.333 7 61 21c17.333 12.667 31 32.334 41 59.001l465 -31c-40.667 -111.333 -111 -198 -211 -260c-99.333 -60 -220.666 -90 -363.999 -90c-80 0 -154.667 12.333 -224 37
c-74 26.667 -136.667 62 -188 106c-62.667 55.333 -110.334 117.666 -143.001 186.999c-33.333 72 -50 146.333 -50 223c0 80 17.333 155 52 225c15.333 35.333 34.333 67.666 57 96.999s50.667 58.666 84 87.999c56.667 48.667 118.667 84 186 106
c69.333 24.667 144.666 37 225.999 37c54 0 106.667 -5.66699 158 -17s98.333 -27.666 141 -48.999c84.667 -43.333 157.667 -108 219 -194c30.667 -44 53 -91.667 67 -143c15.333 -53.333 23 -110.666 23 -171.999v-35c0 -11.333 -0.666992 -19 -2 -23zM563.001 659
l227.999 -2c-3.33301 42 -13.666 72.333 -30.999 91c-18.667 20 -46 30 -82 30c-30.667 0 -56.667 -10 -78 -30c-18.667 -22 -31 -51.667 -37 -89zM791 -262c0 -38 -12.332 -67.334 -36.999 -88.001s-58.334 -31 -101.001 -31c-42 0 -75.333 10.167 -100 30.5
s-37 49.833 -37 88.5c0 38 12.333 67.333 37 88c24 19.333 57.333 29 100 29c43.333 0 77 -9.66699 101 -29c24.667 -21.333 37 -50.666 37 -87.999z" />
    <glyph glyph-name="ehoahoi" unicode="&#x1eba;" horiz-adv-x="1204" 
d="M137 0v1464h979v-397h-463v-141h420v-375h-420v-154h475v-397h-991zM575 1567l-0.000976562 140.999h19h12c18 0 30.333 3.33301 37 10c6.66699 4.66699 10 15 10 31c0 10.667 -0.666992 17.334 -2 20.001c-2.66699 3.33301 -8.66699 5 -18 5
c-10.667 0 -17.167 -2.5 -19.5 -7.5s-3.5 -14.167 -3.5 -27.5h-180c2 54 21 97.667 57 131c36.667 32.667 85.334 49 146.001 49c62 0 111 -17 147 -51c37.333 -35.333 56 -80.333 56 -135c0 -50.667 -18.667 -91 -56 -121c-36 -30 -85 -45 -147 -45h-27h-31z" />
    <glyph glyph-name="ethhoi" unicode="&#x1ebb;" horiz-adv-x="1321" 
d="M1272 434h-712.999v-16c0 -50.667 9.66699 -89.667 29 -117c17.333 -26 46 -39 86 -39c24 0 44.333 7 61 21c17.333 12.667 31 32.334 41 59.001l465 -31c-40.667 -111.333 -111 -198 -211 -260c-99.333 -60 -220.666 -90 -363.999 -90c-80 0 -154.667 12.333 -224 37
c-74 26.667 -136.667 62 -188 106c-62.667 55.333 -110.334 117.666 -143.001 186.999c-33.333 72 -50 146.333 -50 223c0 80 17.333 155 52 225c15.333 35.333 34.333 67.666 57 96.999s50.667 58.666 84 87.999c56.667 48.667 118.667 84 186 106
c69.333 24.667 144.666 37 225.999 37c54 0 106.667 -5.66699 158 -17s98.333 -27.666 141 -48.999c84.667 -43.333 157.667 -108 219 -194c30.667 -44 53 -91.667 67 -143c15.333 -53.333 23 -110.666 23 -171.999v-35c0 -11.333 -0.666992 -19 -2 -23zM563.001 659
l227.999 -2c-3.33301 42 -13.666 72.333 -30.999 91c-18.667 20 -46 30 -82 30c-30.667 0 -56.667 -10 -78 -30c-18.667 -22 -31 -51.667 -37 -89zM610 1169v141.999h19h12c18 0 30.333 3.33301 37 10c6.66699 4.66699 10 15 10 31c0 10.667 -0.666992 17.334 -2 20.001
c-2.66699 2.66699 -8.66699 4 -18 4c-10.667 0 -17 -2 -19 -6c-2.66699 -5.33301 -4 -15 -4 -29h-180c2 56 21 100 57 132c38 32.667 86.667 49 146 49c61.333 0 110.333 -17.333 147 -52c36.667 -34 55 -79 55 -135c0 -50 -18.333 -90.333 -55 -121
c-36.667 -30 -85.667 -45 -147 -45h-27h-31z" />
    <glyph glyph-name="ehoanga" unicode="&#x1ebc;" horiz-adv-x="1204" 
d="M137 0v1464h979v-397h-463v-141h420v-375h-420v-154h475v-397h-991zM870 1786h-1.99902c-14.667 -68 -33.667 -116.667 -57 -146c-24.667 -30 -58 -45 -100 -45h-25c-3.33301 0 -12.333 1.33301 -27 4l-67 19c-6.66699 1.33301 -15.667 2 -27 2h-18c-16 0 -29 -4 -39 -12
c-10.667 -10 -19 -23.667 -25 -41h-88c13.333 61.333 32 107 56 137c24 28.667 56.667 43 98 43h31c6.66699 0 18 -1.33301 34 -4l70 -19h18h19c14.667 0 27.667 5.66699 39 17s18.666 26.333 21.999 45h88z" />
    <glyph glyph-name="ethnga" unicode="&#x1ebd;" horiz-adv-x="1321" 
d="M1272 434h-712.999v-16c0 -50.667 9.66699 -89.667 29 -117c17.333 -26 46 -39 86 -39c24 0 44.333 7 61 21c17.333 12.667 31 32.334 41 59.001l465 -31c-40.667 -111.333 -111 -198 -211 -260c-99.333 -60 -220.666 -90 -363.999 -90c-80 0 -154.667 12.333 -224 37
c-74 26.667 -136.667 62 -188 106c-62.667 55.333 -110.334 117.666 -143.001 186.999c-33.333 72 -50 146.333 -50 223c0 80 17.333 155 52 225c15.333 35.333 34.333 67.666 57 96.999s50.667 58.666 84 87.999c56.667 48.667 118.667 84 186 106
c69.333 24.667 144.666 37 225.999 37c54 0 106.667 -5.66699 158 -17s98.333 -27.666 141 -48.999c84.667 -43.333 157.667 -108 219 -194c30.667 -44 53 -91.667 67 -143c15.333 -53.333 23 -110.666 23 -171.999v-35c0 -11.333 -0.666992 -19 -2 -23zM563.001 659
l227.999 -2c-3.33301 42 -13.666 72.333 -30.999 91c-18.667 20 -46 30 -82 30c-30.667 0 -56.667 -10 -78 -30c-18.667 -22 -31 -51.667 -37 -89zM905 1389l-1.99805 0.000976562c-14 -66.667 -33 -115.334 -57 -146.001c-24 -30 -57.667 -45 -101 -45h-24
c-3.33301 0 -12.333 1.33301 -27 4l-67 19c-7.33301 1.33301 -16.333 2 -27 2h-18c-16.667 0 -29.667 -4.33301 -39 -13c-10.667 -7.33301 -19 -21 -25 -41h-88c11.333 59.333 29.666 105.333 54.999 138c25.333 28.667 58.333 43 99 43h30c7.33301 0 19 -1.33301 35 -4
l70 -19h18h19c14 0 27 5.33301 39 16c11.333 12 18.666 27.333 21.999 46h88z" />
    <glyph glyph-name="ebhoasac" unicode="&#x1ebe;" horiz-adv-x="1204" 
d="M137 0v1464h979v-397h-463v-141h420v-375h-420v-154h475v-397h-991zM362 1536l146 262h219l145 -262h-122l-132 127l-133 -127h-123zM1206 1989l-233 -263h-123l135 263h221z" />
    <glyph glyph-name="ebthsac" unicode="&#x1ebf;" horiz-adv-x="1321" 
d="M1272 434h-712.999v-16c0 -50.667 9.66699 -89.667 29 -117c17.333 -26 46 -39 86 -39c24 0 44.333 7 61 21c17.333 12.667 31 32.334 41 59.001l465 -31c-40.667 -111.333 -111 -198 -211 -260c-99.333 -60 -220.666 -90 -363.999 -90c-80 0 -154.667 12.333 -224 37
c-74 26.667 -136.667 62 -188 106c-62.667 55.333 -110.334 117.666 -143.001 186.999c-33.333 72 -50 146.333 -50 223c0 80 17.333 155 52 225c15.333 35.333 34.333 67.666 57 96.999s50.667 58.666 84 87.999c56.667 48.667 118.667 84 186 106
c69.333 24.667 144.666 37 225.999 37c54 0 106.667 -5.66699 158 -17s98.333 -27.666 141 -48.999c84.667 -43.333 157.667 -108 219 -194c30.667 -44 53 -91.667 67 -143c15.333 -53.333 23 -110.666 23 -171.999v-35c0 -11.333 -0.666992 -19 -2 -23zM563.001 659
l227.999 -2c-3.33301 42 -13.666 72.333 -30.999 91c-18.667 20 -46 30 -82 30c-30.667 0 -56.667 -10 -78 -30c-18.667 -22 -31 -51.667 -37 -89zM391 1128l146 263h219l145 -263h-123l-131 127l-133 -127h-123zM1235 1581l-234 -262h-122l135 262h221z" />
    <glyph glyph-name="ebhoahuyen" unicode="&#x1ec0;" horiz-adv-x="1204" 
d="M137 0v1464h979v-397h-463v-141h420v-375h-420v-154h475v-397h-991zM362 1536l146 262h219l145 -262h-122l-132 127l-133 -127h-123zM612 2050h222l135 -262h-123z" />
    <glyph glyph-name="ebthhuyen" unicode="&#x1ec1;" horiz-adv-x="1321" 
d="M1272 434h-712.999v-16c0 -50.667 9.66699 -89.667 29 -117c17.333 -26 46 -39 86 -39c24 0 44.333 7 61 21c17.333 12.667 31 32.334 41 59.001l465 -31c-40.667 -111.333 -111 -198 -211 -260c-99.333 -60 -220.666 -90 -363.999 -90c-80 0 -154.667 12.333 -224 37
c-74 26.667 -136.667 62 -188 106c-62.667 55.333 -110.334 117.666 -143.001 186.999c-33.333 72 -50 146.333 -50 223c0 80 17.333 155 52 225c15.333 35.333 34.333 67.666 57 96.999s50.667 58.666 84 87.999c56.667 48.667 118.667 84 186 106
c69.333 24.667 144.666 37 225.999 37c54 0 106.667 -5.66699 158 -17s98.333 -27.666 141 -48.999c84.667 -43.333 157.667 -108 219 -194c30.667 -44 53 -91.667 67 -143c15.333 -53.333 23 -110.666 23 -171.999v-35c0 -11.333 -0.666992 -19 -2 -23zM563.001 659
l227.999 -2c-3.33301 42 -13.666 72.333 -30.999 91c-18.667 20 -46 30 -82 30c-30.667 0 -56.667 -10 -78 -30c-18.667 -22 -31 -51.667 -37 -89zM391 1128l146 263h219l145 -263h-123l-131 127l-133 -127h-123zM641 1642h221l135 -262h-123z" />
    <glyph glyph-name="ebhoahoi" unicode="&#x1ec2;" horiz-adv-x="1204" 
d="M137 0v1464h979v-397h-463v-141h420v-375h-420v-154h475v-397h-991zM362 1536l146 262h219l145 -262h-122l-132 127l-133 -127h-123zM844 1706l-0.000976562 140.998h18h12c18 0 30.333 3.66699 37 11c7.33301 4.66699 11 14.667 11 30c0 11.333 -0.666992 18.333 -2 21
c-3.33301 2.66699 -9.66602 4 -18.999 4c-10 0 -16 -2 -18 -6c-2.66699 -5.33301 -4 -15 -4 -29h-181c2 54.667 21.333 98.334 58 131.001s85 49 145 49c62.667 0 112 -17 148 -51c36.667 -35.333 55 -80.333 55 -135c0 -49.333 -18.333 -89.666 -55 -120.999
c-36 -30 -85.333 -45 -148 -45h-27h-30z" />
    <glyph glyph-name="ebthhoi" unicode="&#x1ec3;" horiz-adv-x="1321" 
d="M1272 434h-712.999v-16c0 -50.667 9.66699 -89.667 29 -117c17.333 -26 46 -39 86 -39c24 0 44.333 7 61 21c17.333 12.667 31 32.334 41 59.001l465 -31c-40.667 -111.333 -111 -198 -211 -260c-99.333 -60 -220.666 -90 -363.999 -90c-80 0 -154.667 12.333 -224 37
c-74 26.667 -136.667 62 -188 106c-62.667 55.333 -110.334 117.666 -143.001 186.999c-33.333 72 -50 146.333 -50 223c0 80 17.333 155 52 225c15.333 35.333 34.333 67.666 57 96.999s50.667 58.666 84 87.999c56.667 48.667 118.667 84 186 106
c69.333 24.667 144.666 37 225.999 37c54 0 106.667 -5.66699 158 -17s98.333 -27.666 141 -48.999c84.667 -43.333 157.667 -108 219 -194c30.667 -44 53 -91.667 67 -143c15.333 -53.333 23 -110.666 23 -171.999v-35c0 -11.333 -0.666992 -19 -2 -23zM563.001 659
l227.999 -2c-3.33301 42 -13.666 72.333 -30.999 91c-18.667 20 -46 30 -82 30c-30.667 0 -56.667 -10 -78 -30c-18.667 -22 -31 -51.667 -37 -89zM391 1128l146 263h219l145 -263h-123l-131 127l-133 -127h-123zM872 1298v141.998h19h12c18 0 30.333 3.33301 37 10
c6.66699 4.66699 10 15 10 31c0 10.667 -0.666992 17.334 -2 20.001c-2.66699 2.66699 -8.66699 4 -18 4c-10.667 0 -17 -2 -19 -6c-2.66699 -5.33301 -4 -15 -4 -29h-180c2 54.667 21 98.667 57 132c38 32.667 86.667 49 146 49c61.333 0 110.333 -17.333 147 -52
c37.333 -34 56 -79 56 -135c0 -49.333 -18.667 -89.666 -56 -120.999c-36.667 -30 -85.667 -45 -147 -45h-27h-31z" />
    <glyph glyph-name="ebhoanga" unicode="&#x1ec4;" horiz-adv-x="1204" 
d="M137 0v1464h979v-397h-463v-141h420v-375h-420v-154h475v-397h-991zM362 1536l146 262h219l145 -262h-122l-132 127l-133 -127h-123zM862 2089l-1.99707 -0.000976562c-14 -66.667 -33.167 -115.167 -57.5 -145.5s-57.833 -45.5 -100.5 -45.5h-24
c-2.66699 0 -7.83398 0.833008 -15.501 2.5l-11.5 2.5l-67 18c-7.33301 1.33301 -16.333 2 -27 2h-18c-16 0 -29 -4 -39 -12c-10 -7.33301 -18.333 -21 -25 -41h-88c11.333 58.667 29.666 104.334 54.999 137.001c24.667 28.667 57.667 43 99 43h30
c7.33301 0 19 -1.33301 35 -4l70 -18h18h19c14 0 27 5.33301 39 16c11.333 11.333 18.666 26.333 21.999 45h88z" />
    <glyph glyph-name="ebthnga" unicode="&#x1ec5;" horiz-adv-x="1321" 
d="M1272 434h-712.999v-16c0 -50.667 9.66699 -89.667 29 -117c17.333 -26 46 -39 86 -39c24 0 44.333 7 61 21c17.333 12.667 31 32.334 41 59.001l465 -31c-40.667 -111.333 -111 -198 -211 -260c-99.333 -60 -220.666 -90 -363.999 -90c-80 0 -154.667 12.333 -224 37
c-74 26.667 -136.667 62 -188 106c-62.667 55.333 -110.334 117.666 -143.001 186.999c-33.333 72 -50 146.333 -50 223c0 80 17.333 155 52 225c15.333 35.333 34.333 67.666 57 96.999s50.667 58.666 84 87.999c56.667 48.667 118.667 84 186 106
c69.333 24.667 144.666 37 225.999 37c54 0 106.667 -5.66699 158 -17s98.333 -27.666 141 -48.999c84.667 -43.333 157.667 -108 219 -194c30.667 -44 53 -91.667 67 -143c15.333 -53.333 23 -110.666 23 -171.999v-35c0 -11.333 -0.666992 -19 -2 -23zM563.001 659
l227.999 -2c-3.33301 42 -13.666 72.333 -30.999 91c-18.667 20 -46 30 -82 30c-30.667 0 -56.667 -10 -78 -30c-18.667 -22 -31 -51.667 -37 -89zM391 1128l146 263h219l145 -263h-123l-131 127l-133 -127h-123zM891 1681h-2.00098c-16 -68 -35.333 -116.333 -58 -145
c-23.333 -30 -56.666 -45 -99.999 -45h-24c-4.66699 0 -13.667 1.33301 -27 4l-68 18c-6.66699 2 -15.334 3 -26.001 3h-19c-14 0 -27 -4.33301 -39 -13c-10 -8 -18 -21.667 -24 -41h-88c12 61.333 30.333 107 55 137c24.667 28.667 57.334 43 98.001 43h31
c7.33301 0 19 -1.33301 35 -4l70 -18h18h18c15.333 0 28.333 5.33301 39 16c11.333 11.333 19 26.333 23 45h88z" />
    <glyph glyph-name="ebhoanang" unicode="&#x1ec6;" horiz-adv-x="1204" 
d="M137 0v1464h979v-397h-463v-141h420v-375h-420v-154h475v-397h-991zM362 1536l146 262h219l145 -262h-122l-132 127l-133 -127h-123zM717 -254c0 -38.667 -12.332 -68 -36.999 -88c-26 -20.667 -59.333 -31 -100 -31c-41.333 0 -75 10.333 -101 31
c-24.667 20.667 -37 50 -37 88s12.333 67.333 37 88c23.333 19.333 57 29 101 29c43.333 0 76.666 -9.66699 99.999 -29c24.667 -20 37 -49.333 37 -88z" />
    <glyph glyph-name="ebthnang" unicode="&#x1ec7;" horiz-adv-x="1321" 
d="M1272 434h-712.999v-16c0 -50.667 9.66699 -89.667 29 -117c17.333 -26 46 -39 86 -39c24 0 44.333 7 61 21c17.333 12.667 31 32.334 41 59.001l465 -31c-40.667 -111.333 -111 -198 -211 -260c-99.333 -60 -220.666 -90 -363.999 -90c-80 0 -154.667 12.333 -224 37
c-74 26.667 -136.667 62 -188 106c-62.667 55.333 -110.334 117.666 -143.001 186.999c-33.333 72 -50 146.333 -50 223c0 80 17.333 155 52 225c15.333 35.333 34.333 67.666 57 96.999s50.667 58.666 84 87.999c56.667 48.667 118.667 84 186 106
c69.333 24.667 144.666 37 225.999 37c54 0 106.667 -5.66699 158 -17s98.333 -27.666 141 -48.999c84.667 -43.333 157.667 -108 219 -194c30.667 -44 53 -91.667 67 -143c15.333 -53.333 23 -110.666 23 -171.999v-35c0 -11.333 -0.666992 -19 -2 -23zM563.001 659
l227.999 -2c-3.33301 42 -13.666 72.333 -30.999 91c-18.667 20 -46 30 -82 30c-30.667 0 -56.667 -10 -78 -30c-18.667 -22 -31 -51.667 -37 -89zM391 1128l146 263h219l145 -263h-123l-131 127l-133 -127h-123zM766 -262c0 -38.667 -12.332 -67.999 -36.999 -87.999
c-23.333 -20.667 -56.666 -31 -99.999 -31c-42.667 0 -76.334 10.333 -101.001 31c-24 20 -36 49.333 -36 88c0 37.333 12 66.666 36 87.999c24 19.333 57.667 29 101 29s76.666 -9.66699 99.999 -29c24.667 -20.667 37 -50 37 -88z" />
    <glyph glyph-name="ihoahoi" unicode="&#x1ec8;" horiz-adv-x="829" 
d="M147 0v1464h535v-1464h-535zM356 1567l-0.000976562 140.999h19h12c18 0 30.333 3.33301 37 10c6.66699 4.66699 10 15 10 31c0 10.667 -0.666992 17.334 -2 20.001c-2.66699 3.33301 -8.66699 5 -18 5c-10.667 0 -17.167 -2.5 -19.5 -7.5s-3.5 -14.167 -3.5 -27.5h-180
c2 55.333 21 99 57 131c36.667 32.667 85.334 49 146.001 49c62 0 111 -17 147 -51c36.667 -34.667 55 -79.667 55 -135c0 -50.667 -18.333 -91 -55 -121c-36 -30 -85 -45 -147 -45h-27h-31z" />
    <glyph glyph-name="ithhoi" unicode="&#x1ec9;" horiz-adv-x="739" 
d="M119 -4v1034h502v-1034h-502zM328 1151v140.999h18h12c18 0 30.333 3.66699 37 11c7.33301 5.33301 11 15.333 11 30c0 11.333 -1.16699 18.333 -3.5 21s-8.16602 4 -17.499 4c-10 0 -16 -2 -18 -6c-3.33301 -6.66699 -5 -16.334 -5 -29.001h-180
c2 54.667 21.333 98.334 58 131.001c35.333 32.667 83.666 49 144.999 49c63.333 0 112.333 -17 147 -51c37.333 -35.333 56 -80.333 56 -135c0 -49.333 -18.667 -89.666 -56 -120.999c-34.667 -30 -83.667 -45 -147 -45h-27h-30z" />
    <glyph glyph-name="ihoanang" unicode="&#x1eca;" horiz-adv-x="829" 
d="M147 0v1464h535v-1464h-535zM526 -254c0 -38.667 -12.333 -68.167 -37 -88.5s-58 -30.5 -100 -30.5s-75.333 10.167 -100 30.5s-37 49.833 -37 88.5s12.333 68 37 88c22 19.333 55.333 29 100 29s78 -9.66699 100 -29c24.667 -20 37 -49.333 37 -88z" />
    <glyph glyph-name="ithnang" unicode="&#x1ecb;" horiz-adv-x="739" 
d="M119 -4v1034h502v-1034h-502zM508 1290c0 -38 -12.332 -67.332 -36.999 -87.999c-26 -20.667 -59.333 -31 -100 -31c-41.333 0 -75 10.333 -101 31c-24.667 21.333 -37 50.666 -37 87.999c0 38 12.333 67.333 37 88c23.333 19.333 57 29 101 29
c43.333 0 76.666 -9.66699 99.999 -29c24.667 -20 37 -49.333 37 -88zM487.001 -267.999c0 -38.667 -12.168 -68.167 -36.501 -88.5s-57.833 -30.5 -100.5 -30.5c-43.333 0 -76.666 10.333 -99.999 31c-24.667 20 -37 49.333 -37 88c0 38 12.333 67.333 37 88
c22.667 18.667 56 28 100 28s77.667 -9.33301 101 -28c24 -20.667 36 -50 36 -88z" />
    <glyph glyph-name="ohoanang" unicode="&#x1ecc;" horiz-adv-x="1735" 
d="M868 453c74 0 133.667 25 179 75c44.667 51.333 67 118.333 67 201c0 84.667 -22.333 152.334 -67 203.001c-46 50.667 -105.667 76 -179 76s-133.333 -25.333 -180 -76c-44.667 -50.667 -67 -118.334 -67 -203.001c0 -82.667 22.333 -149.667 67 -201
c46 -50 106 -75 180 -75zM1651 729c0 -108 -19.334 -207.663 -58.001 -298.996c-40 -94.667 -95.333 -177.334 -166 -248.001c-72 -70 -156.333 -124.667 -253 -164c-96.667 -38 -198.667 -57 -306 -57c-108.667 0 -211 19 -307 57c-93.333 38 -178 93.333 -254 166
c-73.333 74 -128.666 155.333 -165.999 244c-36.667 91.333 -55 191.666 -55 300.999s18.333 209.666 55 300.999c38.667 90.667 94 172.667 166 246c73.333 71.333 157.333 126.666 252 165.999c95.333 36.667 198.333 55 309 55c109.333 0 212 -18.333 308 -55
c95.333 -38.667 180 -94 254 -166c70.667 -72 125.667 -154 165 -246c37.333 -92.667 56 -193 56 -301zM990.999 -261.996c0 -38.667 -12.333 -68 -37 -88c-23.333 -20.667 -56.666 -31 -99.999 -31s-76.666 10.333 -99.999 31c-24.667 20 -37 49.333 -37 88
c0 38 12.333 67.333 37 88c23.333 19.333 56.666 29 99.999 29s76.666 -9.66699 99.999 -29c24.667 -20.667 37 -50 37 -88z" />
    <glyph glyph-name="othnang" unicode="&#x1ecd;" horiz-adv-x="1331" 
d="M666 373c36.667 0 66 13 88 39c22.667 26.667 34 60.667 34 102c0 42.667 -10.667 76.667 -32 102c-22 26 -52 39 -90 39c-37.333 0 -66.666 -13 -87.999 -39c-23.333 -26.667 -35 -60.667 -35 -102s11.667 -75.333 35 -102c21.333 -26 50.666 -39 87.999 -39zM1270 514
c0 -76 -16.333 -150.332 -49 -222.999c-34.667 -71.333 -82.667 -133.666 -144 -186.999c-52.667 -44.667 -114 -80 -184 -106c-71.333 -24.667 -147 -37 -227 -37c-81.333 0 -156.666 12.333 -225.999 37c-67.333 22 -129.333 57.333 -186 106
c-62 52.667 -109 115 -141 187c-34.667 70 -52 144.333 -52 223c0 80 17.333 155 52 225c15.333 35.333 34.333 67.666 57 96.999s50.667 58.666 84 87.999c56.667 48.667 118.667 84 186 106c69.333 24.667 144.666 37 225.999 37c80 0 155.5 -12.333 226.5 -37
s133.167 -60 186.5 -106c60 -52 107.333 -113.667 142 -185c32.667 -72.667 49 -147.667 49 -225zM799 -261.999c0 -38 -12.332 -67.333 -36.999 -88s-58 -31 -100 -31c-42.667 0 -76.334 10.333 -101.001 31s-37 50 -37 88c0 37.333 12.333 66.666 37 87.999
c24 19.333 57.667 29 101 29c42.667 0 76 -9.66699 100 -29c24.667 -21.333 37 -50.666 37 -87.999z" />
    <glyph glyph-name="ohoahoi" unicode="&#x1ece;" horiz-adv-x="1735" 
d="M868 453c74 0 133.667 25 179 75c44.667 51.333 67 118.333 67 201c0 84.667 -22.333 152.334 -67 203.001c-46 50.667 -105.667 76 -179 76s-133.333 -25.333 -180 -76c-44.667 -50.667 -67 -118.334 -67 -203.001c0 -82.667 22.333 -149.667 67 -201
c46 -50 106 -75 180 -75zM1651 729c0 -108 -19.334 -207.663 -58.001 -298.996c-40 -94.667 -95.333 -177.334 -166 -248.001c-72 -70 -156.333 -124.667 -253 -164c-96.667 -38 -198.667 -57 -306 -57c-108.667 0 -211 19 -307 57c-93.333 38 -178 93.333 -254 166
c-73.333 74 -128.666 155.333 -165.999 244c-36.667 91.333 -55 191.666 -55 300.999s18.333 209.666 55 300.999c38.667 90.667 94 172.667 166 246c73.333 71.333 157.333 126.666 252 165.999c95.333 36.667 198.333 55 309 55c109.333 0 212 -18.333 308 -55
c95.333 -38.667 180 -94 254 -166c70.667 -72 125.667 -154 165 -246c37.333 -92.667 56 -193 56 -301zM810.999 1599l0.000976562 141.998h18h13c17.333 0 29.666 3.33301 36.999 10c6.66699 4.66699 10 15 10 31c0 10.667 -0.666992 17.334 -2 20.001
c-2.66699 2.66699 -9 4 -19 4s-16 -2 -18 -6c-2.66699 -5.33301 -4 -14.666 -4 -27.999h-180c2 55.333 21 99 57 131c38 32.667 86.333 49 145 49c61.333 0 110.5 -17.167 147.5 -51.5s55.5 -79.5 55.5 -135.5c0 -50 -18.333 -90.167 -55 -120.5s-86 -45.5 -148 -45.5h-26
h-31z" />
    <glyph glyph-name="othhoi" unicode="&#x1ecf;" horiz-adv-x="1331" 
d="M666 373c36.667 0 66 13 88 39c22.667 26.667 34 60.667 34 102c0 42.667 -10.667 76.667 -32 102c-22 26 -52 39 -90 39c-37.333 0 -66.666 -13 -87.999 -39c-23.333 -26.667 -35 -60.667 -35 -102s11.667 -75.333 35 -102c21.333 -26 50.666 -39 87.999 -39zM1270 514
c0 -76 -16.333 -150.332 -49 -222.999c-34.667 -71.333 -82.667 -133.666 -144 -186.999c-52.667 -44.667 -114 -80 -184 -106c-71.333 -24.667 -147 -37 -227 -37c-81.333 0 -156.666 12.333 -225.999 37c-67.333 22 -129.333 57.333 -186 106
c-62 52.667 -109 115 -141 187c-34.667 70 -52 144.333 -52 223c0 80 17.333 155 52 225c15.333 35.333 34.333 67.666 57 96.999s50.667 58.666 84 87.999c56.667 48.667 118.667 84 186 106c69.333 24.667 144.666 37 225.999 37c80 0 155.5 -12.333 226.5 -37
s133.167 -60 186.5 -106c60 -52 107.333 -113.667 142 -185c32.667 -72.667 49 -147.667 49 -225zM608 1169v141.999h19h12c18 0 30.333 3.33301 37 10c6.66699 4.66699 10 15 10 31c0 10.667 -0.666992 17.334 -2 20.001c-2.66699 2.66699 -8.66699 4 -18 4
c-10.667 0 -17 -2 -19 -6c-2.66699 -5.33301 -4 -15 -4 -29h-180c2 56 21 100 57 132c38 32.667 86.667 49 146 49c61.333 0 110.333 -17.333 147 -52c36.667 -34 55 -79 55 -135c0 -50 -18.333 -90.333 -55 -121c-36.667 -30 -85.667 -45 -147 -45h-27h-31z" />
    <glyph glyph-name="obhoasac" unicode="&#x1ed0;" horiz-adv-x="1735" 
d="M868 453c74 0 133.667 25 179 75c44.667 51.333 67 118.333 67 201c0 84.667 -22.333 152.334 -67 203.001c-46 50.667 -105.667 76 -179 76s-133.333 -25.333 -180 -76c-44.667 -50.667 -67 -118.334 -67 -203.001c0 -82.667 22.333 -149.667 67 -201
c46 -50 106 -75 180 -75zM1651 729c0 -108 -19.334 -207.663 -58.001 -298.996c-40 -94.667 -95.333 -177.334 -166 -248.001c-72 -70 -156.333 -124.667 -253 -164c-96.667 -38 -198.667 -57 -306 -57c-108.667 0 -211 19 -307 57c-93.333 38 -178 93.333 -254 166
c-73.333 74 -128.666 155.333 -165.999 244c-36.667 91.333 -55 191.666 -55 300.999s18.333 209.666 55 300.999c38.667 90.667 94 172.667 166 246c73.333 71.333 157.333 126.666 252 165.999c95.333 36.667 198.333 55 309 55c109.333 0 212 -18.333 308 -55
c95.333 -38.667 180 -94 254 -166c70.667 -72 125.667 -154 165 -246c37.333 -92.667 56 -193 56 -301zM595.999 1548l145 262h220l145 -262h-123l-131 127l-133 -127h-123zM1440 2001l-234 -262h-123l136 262h221z" />
    <glyph glyph-name="obthsac" unicode="&#x1ed1;" horiz-adv-x="1331" 
d="M666 373c36.667 0 66 13 88 39c22.667 26.667 34 60.667 34 102c0 42.667 -10.667 76.667 -32 102c-22 26 -52 39 -90 39c-37.333 0 -66.666 -13 -87.999 -39c-23.333 -26.667 -35 -60.667 -35 -102s11.667 -75.333 35 -102c21.333 -26 50.666 -39 87.999 -39zM1270 514
c0 -76 -16.333 -150.332 -49 -222.999c-34.667 -71.333 -82.667 -133.666 -144 -186.999c-52.667 -44.667 -114 -80 -184 -106c-71.333 -24.667 -147 -37 -227 -37c-81.333 0 -156.666 12.333 -225.999 37c-67.333 22 -129.333 57.333 -186 106
c-62 52.667 -109 115 -141 187c-34.667 70 -52 144.333 -52 223c0 80 17.333 155 52 225c15.333 35.333 34.333 67.666 57 96.999s50.667 58.666 84 87.999c56.667 48.667 118.667 84 186 106c69.333 24.667 144.666 37 225.999 37c80 0 155.5 -12.333 226.5 -37
s133.167 -60 186.5 -106c60 -52 107.333 -113.667 142 -185c32.667 -72.667 49 -147.667 49 -225zM389 1128l146 263h219l145 -263h-123l-131 127l-133 -127h-123zM1233 1581l-234 -262h-122l135 262h221z" />
    <glyph glyph-name="obhoahuyen" unicode="&#x1ed2;" horiz-adv-x="1735" 
d="M868 453c74 0 133.667 25 179 75c44.667 51.333 67 118.333 67 201c0 84.667 -22.333 152.334 -67 203.001c-46 50.667 -105.667 76 -179 76s-133.333 -25.333 -180 -76c-44.667 -50.667 -67 -118.334 -67 -203.001c0 -82.667 22.333 -149.667 67 -201
c46 -50 106 -75 180 -75zM1651 729c0 -108 -19.334 -207.663 -58.001 -298.996c-40 -94.667 -95.333 -177.334 -166 -248.001c-72 -70 -156.333 -124.667 -253 -164c-96.667 -38 -198.667 -57 -306 -57c-108.667 0 -211 19 -307 57c-93.333 38 -178 93.333 -254 166
c-73.333 74 -128.666 155.333 -165.999 244c-36.667 91.333 -55 191.666 -55 300.999s18.333 209.666 55 300.999c38.667 90.667 94 172.667 166 246c73.333 71.333 157.333 126.666 252 165.999c95.333 36.667 198.333 55 309 55c109.333 0 212 -18.333 308 -55
c95.333 -38.667 180 -94 254 -166c70.667 -72 125.667 -154 165 -246c37.333 -92.667 56 -193 56 -301zM595.999 1548l145 262h220l145 -262h-123l-131 127l-133 -127h-123zM845.999 2062h221l135 -262h-123z" />
    <glyph glyph-name="obthhuyen" unicode="&#x1ed3;" horiz-adv-x="1331" 
d="M666 373c36.667 0 66 13 88 39c22.667 26.667 34 60.667 34 102c0 42.667 -10.667 76.667 -32 102c-22 26 -52 39 -90 39c-37.333 0 -66.666 -13 -87.999 -39c-23.333 -26.667 -35 -60.667 -35 -102s11.667 -75.333 35 -102c21.333 -26 50.666 -39 87.999 -39zM1270 514
c0 -76 -16.333 -150.332 -49 -222.999c-34.667 -71.333 -82.667 -133.666 -144 -186.999c-52.667 -44.667 -114 -80 -184 -106c-71.333 -24.667 -147 -37 -227 -37c-81.333 0 -156.666 12.333 -225.999 37c-67.333 22 -129.333 57.333 -186 106
c-62 52.667 -109 115 -141 187c-34.667 70 -52 144.333 -52 223c0 80 17.333 155 52 225c15.333 35.333 34.333 67.666 57 96.999s50.667 58.666 84 87.999c56.667 48.667 118.667 84 186 106c69.333 24.667 144.666 37 225.999 37c80 0 155.5 -12.333 226.5 -37
s133.167 -60 186.5 -106c60 -52 107.333 -113.667 142 -185c32.667 -72.667 49 -147.667 49 -225zM389 1128l146 263h219l145 -263h-123l-131 127l-133 -127h-123zM639 1642h221l135 -262h-123z" />
    <glyph glyph-name="obhoahoi" unicode="&#x1ed4;" horiz-adv-x="1735" 
d="M868 453c74 0 133.667 25 179 75c44.667 51.333 67 118.333 67 201c0 84.667 -22.333 152.334 -67 203.001c-46 50.667 -105.667 76 -179 76s-133.333 -25.333 -180 -76c-44.667 -50.667 -67 -118.334 -67 -203.001c0 -82.667 22.333 -149.667 67 -201
c46 -50 106 -75 180 -75zM1651 729c0 -108 -19.334 -207.663 -58.001 -298.996c-40 -94.667 -95.333 -177.334 -166 -248.001c-72 -70 -156.333 -124.667 -253 -164c-96.667 -38 -198.667 -57 -306 -57c-108.667 0 -211 19 -307 57c-93.333 38 -178 93.333 -254 166
c-73.333 74 -128.666 155.333 -165.999 244c-36.667 91.333 -55 191.666 -55 300.999s18.333 209.666 55 300.999c38.667 90.667 94 172.667 166 246c73.333 71.333 157.333 126.666 252 165.999c95.333 36.667 198.333 55 309 55c109.333 0 212 -18.333 308 -55
c95.333 -38.667 180 -94 254 -166c70.667 -72 125.667 -154 165 -246c37.333 -92.667 56 -193 56 -301zM595.999 1548l145 262h220l145 -262h-123l-131 127l-133 -127h-123zM1077 1718v141.999h19h12c18 0 30.333 3.33301 37 10c6.66699 4.66699 10 15 10 31
c0 10.667 -0.666992 17.334 -2 20.001c-2.66699 2.66699 -8.66699 4 -18 4c-10.667 0 -17 -2 -19 -6c-2.66699 -5.33301 -4 -15 -4 -29h-180c2 56 21 99.667 57 131c37.333 33.333 86 50 146 50c61.333 0 110.333 -17.333 147 -52c36.667 -34 55 -79 55 -135
c0 -50 -18.333 -90.333 -55 -121c-36.667 -30 -85.667 -45 -147 -45h-27h-31z" />
    <glyph glyph-name="obthhoi" unicode="&#x1ed5;" horiz-adv-x="1331" 
d="M666 373c36.667 0 66 13 88 39c22.667 26.667 34 60.667 34 102c0 42.667 -10.667 76.667 -32 102c-22 26 -52 39 -90 39c-37.333 0 -66.666 -13 -87.999 -39c-23.333 -26.667 -35 -60.667 -35 -102s11.667 -75.333 35 -102c21.333 -26 50.666 -39 87.999 -39zM1270 514
c0 -76 -16.333 -150.332 -49 -222.999c-34.667 -71.333 -82.667 -133.666 -144 -186.999c-52.667 -44.667 -114 -80 -184 -106c-71.333 -24.667 -147 -37 -227 -37c-81.333 0 -156.666 12.333 -225.999 37c-67.333 22 -129.333 57.333 -186 106
c-62 52.667 -109 115 -141 187c-34.667 70 -52 144.333 -52 223c0 80 17.333 155 52 225c15.333 35.333 34.333 67.666 57 96.999s50.667 58.666 84 87.999c56.667 48.667 118.667 84 186 106c69.333 24.667 144.666 37 225.999 37c80 0 155.5 -12.333 226.5 -37
s133.167 -60 186.5 -106c60 -52 107.333 -113.667 142 -185c32.667 -72.667 49 -147.667 49 -225zM389 1128l146 263h219l145 -263h-123l-131 127l-133 -127h-123zM870 1298v141.999h19h12c18 0 30.333 3.33301 37 10c6.66699 4.66699 10 15 10 31
c0 10.667 -0.666992 17.334 -2 20.001c-2.66699 2.66699 -8.66699 4 -18 4c-10.667 0 -17 -2 -19 -6c-2.66699 -5.33301 -4 -15 -4 -29h-180c2 56 21 100 57 132c38 32.667 86.667 49 146 49c61.333 0 110.333 -17.333 147 -52c36.667 -34 55 -79 55 -135
c0 -50 -18.333 -90.333 -55 -121c-36.667 -30 -85.667 -45 -147 -45h-27h-31z" />
    <glyph glyph-name="obhoanga" unicode="&#x1ed6;" horiz-adv-x="1735" 
d="M868 453c74 0 133.667 25 179 75c44.667 51.333 67 118.333 67 201c0 84.667 -22.333 152.334 -67 203.001c-46 50.667 -105.667 76 -179 76s-133.333 -25.333 -180 -76c-44.667 -50.667 -67 -118.334 -67 -203.001c0 -82.667 22.333 -149.667 67 -201
c46 -50 106 -75 180 -75zM1651 729c0 -108 -19.334 -207.663 -58.001 -298.996c-40 -94.667 -95.333 -177.334 -166 -248.001c-72 -70 -156.333 -124.667 -253 -164c-96.667 -38 -198.667 -57 -306 -57c-108.667 0 -211 19 -307 57c-93.333 38 -178 93.333 -254 166
c-73.333 74 -128.666 155.333 -165.999 244c-36.667 91.333 -55 191.666 -55 300.999s18.333 209.666 55 300.999c38.667 90.667 94 172.667 166 246c73.333 71.333 157.333 126.666 252 165.999c95.333 36.667 198.333 55 309 55c109.333 0 212 -18.333 308 -55
c95.333 -38.667 180 -94 254 -166c70.667 -72 125.667 -154 165 -246c37.333 -92.667 56 -193 56 -301zM595.999 1548l145 262h220l145 -262h-123l-131 127l-133 -127h-123zM1096 2101h-2c-16 -68 -35.333 -116.333 -58 -145c-23.333 -30 -56.666 -45 -99.999 -45h-25
c-4 0 -12.667 1.33301 -26 4l-68 18c-6.66699 1.33301 -15.334 2 -26.001 2h-19c-16 0 -29 -4 -39 -12s-18 -21.667 -24 -41h-88c12 61.333 30.333 107 55 137c24 28.667 56.667 43 98 43h31c6 0 17.667 -1.33301 35 -4l69 -18h19h18c15.333 0 28.333 5.33301 39 16
c11.333 11.333 19 26.333 23 45h88z" />
    </font>
</defs>
</svg>
